SplineFontDB: 3.0
FontName: Weiqi
FullName: Weiqi
FamilyName: Weiqi
Weight: Medium
Copyright: 
Version: 0.1
ItalicAngle: 0
UnderlinePosition: -100
UnderlineWidth: 50
Ascent: 800
Descent: 200
InvalidEm: 0
sfntRevision: 0x00001999
LayerCount: 2
Layer: 0 0 "Back" 1
Layer: 1 0 "Fore" 0
XUID: [1021 612 -1182629745 20809]
StyleMap: 0x0040
FSType: 0
OS2Version: 4
OS2_WeightWidthSlopeOnly: 0
OS2_UseTypoMetrics: 1
CreationTime: 1450544619
ModificationTime: 1539664357
PfmFamily: 17
TTFWeight: 500
TTFWidth: 5
LineGap: 90
VLineGap: 0
Panose: 2 0 6 3 0 0 0 0 0 0
OS2TypoAscent: 800
OS2TypoAOffset: 0
OS2TypoDescent: -200
OS2TypoDOffset: 0
OS2TypoLinegap: 90
OS2WinAscent: 1692
OS2WinAOffset: 0
OS2WinDescent: 147
OS2WinDOffset: 0
HheadAscent: 1692
HheadAOffset: 0
HheadDescent: -147
HheadDOffset: 0
OS2SubXSize: 650
OS2SubYSize: 700
OS2SubXOff: 0
OS2SubYOff: 140
OS2SupXSize: 650
OS2SupYSize: 700
OS2SupXOff: 0
OS2SupYOff: 480
OS2StrikeYSize: 49
OS2StrikeYPos: 258
OS2CapHeight: 981
OS2XHeight: 1206
OS2Vendor: 'PfEd'
OS2CodePages: 0000000c.00000000
OS2UnicodeRanges: 0000029f.08000000.00000000.00000000
MarkAttachClasses: 1
DEI: 91125
LangName: 1033 "" "" "" "FontForge 2.0 : Weiqi : 21-12-2015"
Encoding: Custom
Compacted: 1
UnicodeInterp: none
NameList: AGL For New Fonts
DisplaySize: -48
AntiAlias: 1
FitToEm: 0
WinInfo: 0 27 9
BeginPrivate: 7
BlueValues 27 [-14 289 920 921 1026 1214]
BlueScale 10 0.00326733
BlueShift 1 0
StdHW 4 [30]
StdVW 4 [30]
StemSnapH 13 [30 59 66 72]
StemSnapV 25 [30 74 80 85 107 121 137]
EndPrivate
BeginChars: 65537 910

StartChar: uniFFFD
Encoding: 65533 65533 0
Width: 1205
VWidth: 2048
Flags: W
HStem: 5.55762 21G<577.441 617.441> 255.079 86.1006<541.212 653.086> 1180.44 20G<577.441 617.441>
LayerCount: 2
Fore
SplineSet
597.44140625 1200.44335938 m 1
 1194.88476562 603 l 1
 597.44140625 5.5576171875 l 1
 0 603 l 1
 597.44140625 1200.44335938 l 1
537.698242188 255.079101562 m 1
 537.698242188 106.302734375 l 1
 656.600585938 106.302734375 l 1
 656.600585938 255.079101562 l 1
 537.698242188 255.079101562 l 1
653.0859375 341.1796875 m 1
 653.0859375 413.224609375 l 2
 653.0859375 433.530273438 653.671875 449.5390625 654.84375 461.25390625 c 0
 656.014648438 472.96875 657.771484375 482.926757812 660.115234375 491.126953125 c 0
 663.23828125 500.888671875 668.509765625 510.845703125 675.9296875 520.999023438 c 0
 684.91015625 533.102539062 697.9921875 547.552734375 715.173828125 564.342773438 c 2
 766.717773438 614.715820312 l 2
 802.642578125 649.858398438 827.2421875 679.92578125 840.518554688 704.916992188 c 0
 854.576171875 731.860351562 861.60546875 760.169921875 861.60546875 789.84765625 c 0
 861.60546875 851.93359375 839.834960938 901.916992188 796.296875 939.793945312 c 0
 752.7578125 977.670898438 695.063476562 996.609375 623.213867188 996.609375 c 0
 582.994140625 996.609375 544.04296875 991.142578125 506.361328125 980.209960938 c 0
 468.6796875 969.275390625 431.486328125 952.6796875 394.780273438 930.422851562 c 1
 394.780273438 820.305664062 l 1
 432.657226562 846.467773438 469.069335938 866.3828125 504.017578125 880.049804688 c 0
 538.967773438 893.716796875 571.865234375 900.549804688 602.713867188 900.549804688 c 0
 644.885742188 900.549804688 678.759765625 889.811523438 704.337890625 868.333984375 c 0
 729.9140625 846.859375 742.703125 818.743164062 742.703125 783.991210938 c 0
 742.703125 764.856445312 737.723632812 746.114257812 727.766601562 727.760742188 c 0
 717.80859375 709.407226562 701.701171875 689.8828125 679.443359375 669.1875 c 2
 626.727539062 617.057617188 l 2
 591.584960938 583.475585938 568.545898438 553.994140625 557.612304688 528.61328125 c 0
 546.6796875 503.231445312 541.211914062 470.8203125 541.211914062 431.381835938 c 2
 541.211914062 341.1796875 l 1
 653.0859375 341.1796875 l 1
EndSplineSet
EndChar

StartChar: u1F7D8
Encoding: 9679 9679 1
Width: 1200
GlyphClass: 2
Flags: W
HStem: 0.5 21G<589.625 610.375> 1179.41 20G<585.854 601.681>
LayerCount: 2
Fore
SplineSet
569 1199 m 0
 573.393398282 1199.29289322 581.218254069 1199.41421356 590.48959236 1199.41421356 c 0
 612.872583002 1199.41421356 643.686291501 1198.70710678 655 1198 c 0
 766 1187 869 1148 957 1082 c 0
 1044 1018 1113 929 1155 830 c 0
 1177 776 1191 716 1198 654 c 0
 1199 641.5 1199.5 620.75 1199.5 600 c 0
 1199.5 579.25 1199 558.5 1198 546 c 0
 1190 468 1171 401 1137 334 c 0
 1073 204 963 101 830 45 c 0
 776 23 716 9 654 2 c 0
 641.5 1 620.75 0.5 600 0.5 c 0
 579.25 0.5 558.5 1 546 2 c 0
 468 10 401 29 334 63 c 0
 204 127 101 237 45 371 c 0
 23 424 9 484 2 546 c 0
 1 558.5 0.5 579.25 0.5 600 c 0
 0.5 620.75 1 641.5 2 654 c 0
 10 732 29 799 63 867 c 0
 127 996 237 1099 371 1155 c 0
 431 1180 500 1195 569 1199 c 0
EndSplineSet
Validated: 1
EndChar

StartChar: one
Encoding: 49 49 2
Width: 1200
GlyphClass: 2
Flags: W
LayerCount: 2
Fore
SplineSet
623 914 m 2
 632 921 l 1
 641 921 l 1
 651 921 l 1
 651 634 l 1
 651 347 l 1
 723 347 l 1
 794 347 l 1
 794 318 l 1
 794 288 l 1
 611 288 l 1
 428 288 l 1
 428 318 l 1
 428 347 l 1
 500 347 l 1
 571 347 l 1
 571 586 l 1
 571 825 l 1
 571 825 567 824 564 822 c 0
 532 810 478 801 433 801 c 2
 421 801 l 1
 421 831 l 1
 421 860 l 1
 433 860 l 2
 439 860 451 860 460 861 c 0
 531 866 582 883 623 914 c 2
EndSplineSet
Validated: 1
EndChar

StartChar: two
Encoding: 50 50 3
Width: 1200
GlyphClass: 2
Flags: W
LayerCount: 2
Fore
SplineSet
560 920 m 0
 570 921 614 920 625 919 c 0
 672 912 708 899 741 877 c 0
 782 850 810 812 822 768 c 0
 828 747 828 739 828 715 c 0
 828 694 828 691 826 680 c 0
 819 647 805 618 782 589 c 0
 777 583 766 570 756 560 c 0
 729 534 710 519 651 477 c 0
 628 461 495 364 490 359 c 1
 490 359 566 359 659 360 c 2
 829 360 l 1
 829 324 l 1
 829 288 l 1
 599 288 l 1
 369 288 l 1
 369 310 l 2
 369 323 369 334 370 336 c 0
 371 339 373 342 376 346 c 0
 381 351 516 455 586 507 c 0
 626 538 645 552 662 567 c 0
 702 602 726 635 738 670 c 0
 743 685 745 698 745 715 c 0
 745 776 709 822 644 844 c 0
 598 859 545 860 510 846 c 0
 471 830 442 795 425 740 c 0
 423 734 420 727 418 725 c 0
 415 720 406 716 401 716 c 0
 392 716 389 718 377 729 c 0
 363 744 360 747 361 757 c 0
 361 763 361 765 366 778 c 0
 390 835 425 874 473 898 c 0
 487 905 499 909 515 913 c 0
 525 916 548 919 560 920 c 0
EndSplineSet
Validated: 33
EndChar

StartChar: three
Encoding: 51 51 4
Width: 1200
GlyphClass: 2
Flags: W
LayerCount: 2
Fore
SplineSet
570 920 m 0
 588 922 625 921 644 918 c 0
 725 906 787 862 803 804 c 0
 805 795 805 793 805 777 c 0
 805 761 805 757 803 748 c 0
 796 711 779 682 751 655 c 0
 738 642 725 632 708 623 c 2
 700 618 l 1
 709 615 l 2
 729 608 749 597 767 584 c 0
 780 575 804 550 812 538 c 0
 824 520 831 504 835 485 c 0
 839 470 838 443 835 428 c 0
 828 395 812 366 788 340 c 0
 780 333 771 324 767 321 c 0
 722 286 670 268 609 266 c 0
 534 264 460 288 400 335 c 0
 387 345 366 364 363 369 c 0
 360 375 359 380 362 393 c 0
 365 406 365 407 371 413 c 0
 376 417 381 419 387 419 c 0
 394 419 397 417 410 405 c 0
 444 374 473 356 512 343 c 0
 547 331 587 326 619 329 c 0
 687 337 738 381 746 440 c 0
 748 453 748 462 746 475 c 0
 741 514 715 549 677 568 c 0
 662 576 646 582 627 585 c 0
 623 586 602 587 570 587 c 2
 519 588 l 1
 514 591 l 2
 511 592 508 595 507 598 c 0
 504 603 503 604 503 615 c 0
 503 622 503 629 504 632 c 0
 506 638 510 643 516 646 c 0
 521 649 523 649 556 651 c 0
 603 654 612 655 624 658 c 0
 667 669 702 699 716 738 c 0
 721 753 722 761 722 777 c 0
 722 789 722 791 720 797 c 0
 706 838 654 864 593 862 c 0
 534 859 477 833 441 791 c 0
 428 775 423 770 419 769 c 0
 406 766 397 771 383 790 c 0
 377 797 376 803 376 809 c 0
 377 816 379 820 393 833 c 0
 409 849 422 861 440 872 c 0
 479 898 522 914 570 920 c 0
EndSplineSet
Validated: 33
EndChar

StartChar: four
Encoding: 52 52 5
Width: 1200
GlyphClass: 2
Flags: W
LayerCount: 2
Fore
SplineSet
631 891 m 2
 637 899 l 1
 686 899 l 1
 735 899 l 1
 735 702 l 1
 735 505 l 1
 795 505 l 1
 854 505 l 1
 854 474 l 1
 854 443 l 1
 795 443 l 1
 735 443 l 1
 735 366 l 1
 735 288 l 1
 695 288 l 1
 655 288 l 1
 655 366 l 1
 655 443 l 1
 500 443 l 1
 344 443 l 1
 344 474 l 1
 344 505 l 1
 485 694 l 2
 562 798 628 887 631 891 c 2
661 661 m 1
 661 817 l 2
 660 817 429 506 429 506 c 2
 429 505 481 505 545 505 c 2
 661 505 l 1
 661 661 l 1
EndSplineSet
Validated: 1
EndChar

StartChar: five
Encoding: 53 53 6
Width: 1200
GlyphClass: 2
Flags: W
LayerCount: 2
Fore
SplineSet
409 725 m 1
 409 899 l 1
 600 899 l 1
 790 899 l 1
 790 867 l 1
 790 834 l 1
 636 834 l 1
 482 834 l 1
 482 736 l 2
 482 642 482 639 484 640 c 0
 485 641 490 645 495 649 c 0
 528 674 564 686 607 688 c 0
 730 692 833 592 829 471 c 0
 827 422 807 378 770 340 c 0
 743 314 709 293 671 281 c 0
 640 270 615 266 580 267 c 0
 554 267 542 268 520 273 c 0
 478 282 436 303 404 330 c 0
 392 340 369 364 365 369 c 0
 362 375 361 382 363 388 c 0
 364 392 375 408 381 414 c 0
 392 424 407 422 417 409 c 0
 449 367 494 340 549 330 c 0
 563 328 596 328 610 330 c 0
 680 343 729 391 738 458 c 0
 740 476 739 496 735 516 c 0
 724 569 691 608 646 621 c 0
 629 626 613 627 591 625 c 0
 542 619 505 596 482 558 c 2
 477 550 l 1
 443 550 l 1
 409 550 l 1
 409 725 l 1
EndSplineSet
Validated: 33
EndChar

StartChar: six
Encoding: 54 54 7
Width: 1200
GlyphClass: 2
Flags: W
LayerCount: 2
Fore
SplineSet
643 920 m 0
 652 921 681 921 693 920 c 0
 718 918 738 914 763 905 c 0
 779 900 783 898 787 891 c 0
 789 887 790 886 790 873 c 0
 790 860 789 859 786 854 c 0
 783 848 776 844 769 843 c 0
 764 843 761 844 747 848 c 0
 729 854 713 858 699 860 c 0
 685 862 657 862 646 861 c 0
 572 853 509 804 476 727 c 0
 464 700 454 664 452 636 c 0
 451 632 451 628 450 626 c 0
 450 625 453 627 458 633 c 0
 484 660 516 679 552 689 c 0
 576 697 594 699 621 699 c 0
 680 699 721 682 764 642 c 0
 814 593 834 545 832 475 c 0
 831 433 821 402 799 370 c 0
 773 331 723 292 683 279 c 0
 644 266 595 262 555 271 c 0
 506 280 461 309 431 348 c 0
 388 405 366 485 366 590 c 0
 366 622 368 644 375 672 c 0
 398 778 469 864 562 901 c 0
 586 911 616 918 643 920 c 0
641 634 m 0
 634 636 628 636 610 637 c 0
 586 637 586 637 572 634 c 0
 558 631 546 627 532 620 c 0
 493 601 467 570 459 533 c 0
 457 523 457 503 459 492 c 0
 461 484 461 482 460 477 c 0
 459 472 459 470 462 458 c 0
 468 438 472 425 480 409 c 0
 493 381 508 364 529 350 c 0
 552 334 577 327 607 328 c 0
 630 329 647 333 664 340 c 0
 690 353 721 382 734 410 c 0
 745 432 748 448 748 482 c 0
 748 518 745 535 734 558 c 0
 718 589 688 618 659 629 c 0
 654 631 646 633 641 634 c 0
EndSplineSet
Validated: 33
EndChar

StartChar: seven
Encoding: 55 55 8
Width: 1200
GlyphClass: 2
Flags: W
LayerCount: 2
Fore
SplineSet
360 863 m 1
 360 899 l 1
 599 899 l 1
 838 899 l 1
 838 867 l 1
 838 834 l 1
 827 824 l 2
 812 812 779 779 765 763 c 0
 653 639 589 483 579 315 c 0
 578 305 578 293 578 287 c 2
 578 277 l 1
 535 277 l 1
 493 277 l 1
 493 298 l 2
 496 390 516 477 553 559 c 0
 598 660 666 747 752 816 c 0
 760 822 766 827 766 828 c 2
 766 828 675 828 563 827 c 2
 360 827 l 1
 360 863 l 1
EndSplineSet
Validated: 1
EndChar

StartChar: eight
Encoding: 56 56 9
Width: 1200
GlyphClass: 2
Flags: W
LayerCount: 2
Fore
SplineSet
578 920 m 0
 586 921 627 920 639 919 c 0
 708 909 767 876 799 829 c 0
 824 790 829 746 811 710 c 0
 799 687 777 664 751 648 c 0
 734 637 709 626 692 621 c 0
 683 619 680 617 684 617 c 0
 687 617 714 607 726 602 c 0
 778 579 817 539 831 497 c 0
 836 482 838 474 837 456 c 0
 837 437 836 425 830 409 c 0
 809 346 750 295 674 276 c 0
 608 258 534 265 476 294 c 0
 415 323 375 371 363 428 c 0
 361 436 361 442 361 456 c 0
 360 474 362 482 367 497 c 0
 381 539 420 579 472 602 c 0
 484 607 511 617 514 617 c 0
 518 617 515 619 507 621 c 0
 496 624 478 631 466 637 c 0
 415 663 382 701 377 743 c 0
 372 777 386 816 413 847 c 0
 448 886 504 913 564 919 c 0
 570 920 576 920 578 920 c 0
637 860 m 0
 625 861 586 862 573 861 c 0
 507 854 464 826 450 779 c 0
 448 772 448 769 448 756 c 0
 448 740 449 732 455 718 c 0
 472 683 509 660 563 651 c 0
 578 649 620 649 635 651 c 0
 658 655 673 659 690 667 c 0
 720 682 740 704 748 734 c 0
 750 740 750 744 750 756 c 0
 750 769 750 772 748 779 c 0
 734 823 696 851 637 860 c 0
633 585 m 0
 623 586 589 587 582 586 c 0
 580 586 574 586 569 585 c 0
 549 583 525 575 508 566 c 0
 455 537 431 480 447 422 c 0
 450 412 460 392 466 384 c 0
 493 348 541 328 599 328 c 0
 657 328 705 348 732 384 c 0
 738 392 748 412 751 422 c 0
 762 461 755 501 731 531 c 0
 710 559 675 578 633 585 c 0
EndSplineSet
Validated: 33
EndChar

StartChar: nine
Encoding: 57 57 10
Width: 1200
GlyphClass: 2
Flags: W
LayerCount: 2
Fore
SplineSet
577 920 m 0
 590 921 615 921 626 920 c 0
 688 913 741 881 775 831 c 0
 806 783 824 728 830 652 c 0
 831 644 831 622 831 600 c 0
 831 567 831 561 829 546 c 0
 823 502 812 465 793 427 c 0
 777 395 760 371 734 346 c 0
 708 320 689 306 658 291 c 0
 620 273 583 265 541 266 c 0
 492 268 455 280 415 307 c 0
 398 318 396 321 396 332 c 0
 396 339 396 340 401 350 c 0
 410 365 416 369 427 369 c 0
 433 369 436 368 451 358 c 0
 462 350 481 340 494 336 c 0
 510 331 524 329 549 329 c 0
 568 329 572 329 581 331 c 0
 602 336 623 344 641 356 c 0
 694 391 731 453 743 529 c 0
 745 537 746 547 746 551 c 0
 747 555 747 560 748 561 c 0
 748 563 746 561 740 555 c 0
 725 538 704 523 682 512 c 0
 649 495 617 488 578 488 c 0
 526 488 488 501 451 530 c 0
 441 538 419 561 411 570 c 0
 387 601 374 630 368 667 c 0
 366 680 365 713 367 727 c 0
 369 752 375 772 385 793 c 0
 401 826 432 859 470 884 c 0
 502 905 535 916 577 920 c 0
631 859 m 0
 621 861 596 862 583 861 c 0
 546 857 519 843 491 814 c 0
 468 790 456 768 451 738 c 0
 449 722 449 683 452 668 c 0
 457 640 466 620 486 598 c 0
 503 578 523 564 544 557 c 0
 559 551 566 550 592 551 c 0
 615 551 617 551 629 553 c 0
 682 566 722 600 736 645 c 0
 741 660 742 681 739 698 c 0
 738 704 738 706 739 710 c 0
 740 715 740 717 737 727 c 0
 733 749 723 775 713 793 c 0
 694 828 666 850 631 859 c 0
EndSplineSet
Validated: 33
EndChar

StartChar: colon
Encoding: 58 58 11
Width: 1200
GlyphClass: 2
Flags: W
LayerCount: 2
Fore
SplineSet
568 1214 m 0
 583 1215 640 1214 656 1213 c 0
 735 1205 806 1185 875 1150 c 0
 993 1091 1089 995 1148 878 c 0
 1184 807 1205 737 1213 656 c 0
 1215 631 1215 569 1213 544 c 0
 1201 428 1161 324 1093 233 c 0
 1001 109 863 23 714 -4 c 0
 671 -12 646 -14 600 -14 c 0
 554 -14 529 -12 486 -4 c 0
 379 15 275 66 193 139 c 0
 83 236 12 369 -9 513 c 0
 -13 544 -14 560 -14 600 c 0
 -14 640 -13 656 -9 688 c 0
 16 860 114 1015 259 1112 c 0
 351 1173 456 1208 568 1214 c 0
573 1184 m 2
 573 1184 558 1184 545 1182 c 0
 514 1179 491 1175 462 1168 c 0
 272 1122 118 984 50 800 c 0
 33 753 23 706 17 652 c 0
 15 628 15 572 17 548 c 0
 24 484 37 429 60 375 c 0
 68 357 80 331 81 332 c 0
 82 333 573 1183 573 1184 c 2
654 1182 m 0
 638 1184 627 1184 627 1184 c 2
 627 1183 1118 333 1119 332 c 0
 1120 331 1132 357 1140 375 c 0
 1163 429 1176 484 1183 548 c 0
 1184 561 1184 575 1184 600 c 0
 1184 636 1183 653 1179 684 c 0
 1163 791 1119 891 1049 975 c 0
 950 1093 809 1168 654 1182 c 0
847 743 m 0
 711 977 600 1169 600 1169 c 2
 599 1169 107 317 107 316 c 0
 107 315 329 315 600 315 c 0
 871 315 1093 315 1093 316 c 2
 1093 316 982 508 847 743 c 0
1085 273 m 2
 1093 285 l 1
 600 285 l 1
 107 285 l 1
 115 273 l 2
 183 171 284 93 400 50 c 0
 447 33 493 23 547 17 c 0
 560 16 574 16 600 16 c 0
 654 16 693 20 742 33 c 0
 882 67 1005 154 1085 273 c 2
EndSplineSet
Validated: 33
EndChar

StartChar: semicolon
Encoding: 59 59 12
Width: 1200
GlyphClass: 2
Flags: W
LayerCount: 2
Fore
SplineSet
569 1199 m 0
 584 1200 639 1199 655 1198 c 0
 766 1187 869 1148 957 1082 c 0
 1044 1018 1113 929 1155 830 c 0
 1177 776 1191 716 1198 654 c 0
 1200 629 1200 571 1198 546 c 0
 1190 468 1171 401 1137 334 c 0
 1073 204 963 101 830 45 c 0
 776 23 716 9 654 2 c 0
 629 0 571 0 546 2 c 0
 468 10 401 29 334 63 c 0
 204 127 101 237 45 371 c 0
 23 424 9 484 2 546 c 0
 0 571 0 629 2 654 c 0
 10 732 29 799 63 867 c 0
 127 996 237 1099 371 1155 c 0
 431 1180 500 1195 569 1199 c 0
611 1182 m 0
 607 1183 604 1184 600 1184 c 0
 593 1184 586 1181 581 1176 c 0
 578 1172 99 345 94 333 c 0
 92 329 91 325 91 322 c 0
 91 311 99 300 109 296 c 0
 114 295 172 295 600 295 c 0
 1028 295 1086 295 1091 296 c 0
 1101 300 1109 311 1109 322 c 0
 1109 325 1108 329 1106 333 c 0
 1101 345 622 1172 619 1176 c 0
 617 1178 613 1180 611 1182 c 0
382 727 m 0
 501 935 600 1105 600 1105 c 1
 600 1105 1036 351 1037 349 c 0
 1037 348 887 348 600 348 c 0
 313 348 163 348 163 349 c 0
 163 350 262 520 382 727 c 0
EndSplineSet
Validated: 33
EndChar

StartChar: u1F7D7
Encoding: 9675 9675 13
Width: 1200
GlyphClass: 2
Flags: W
LayerCount: 2
Fore
SplineSet
568 1214 m 0
 583 1215 640 1214 656 1213 c 0
 735 1205 806 1185 875 1150 c 0
 993 1091 1089 995 1148 878 c 0
 1184 807 1205 737 1213 656 c 0
 1215 631 1215 569 1213 544 c 0
 1201 428 1161 324 1093 233 c 0
 1001 109 863 23 714 -4 c 0
 671 -12 646 -14 600 -14 c 0
 554 -14 529 -12 486 -4 c 0
 379 15 275 66 193 139 c 0
 83 236 12 369 -9 513 c 0
 -13 544 -14 560 -14 600 c 0
 -14 640 -13 656 -9 688 c 0
 16 860 114 1015 259 1112 c 0
 351 1173 456 1208 568 1214 c 0
654 1183 m 0
 639 1184 583 1185 572 1184 c 0
 522 1181 499 1177 462 1168 c 0
 272 1122 118 984 50 800 c 0
 33 753 23 706 17 652 c 0
 16 639 16 625 16 600 c 0
 16 564 17 547 21 517 c 0
 38 398 90 290 172 201 c 0
 261 105 386 40 516 21 c 0
 546 17 563 16 600 16 c 0
 645 16 675 18 713 26 c 0
 903 64 1060 191 1137 369 c 0
 1162 425 1176 482 1183 548 c 0
 1184 561 1184 575 1184 600 c 0
 1184 644 1182 672 1174 713 c 0
 1139 890 1024 1042 862 1123 c 0
 796 1156 729 1175 654 1183 c 0
EndSplineSet
Validated: 33
EndChar

StartChar: A
Encoding: 65 65 14
Width: 1200
GlyphClass: 2
Flags: W
LayerCount: 2
Fore
SplineSet
276 284 m 1
 549 978 l 1
 650 978 l 1
 924 284 l 1
 814 284 l 1
 792 340 766 407 739 477 c 1
 438 477 l 1
 411 407 384 340 362 284 c 1
 276 284 l 1
462 540 m 1
 714 540 l 1
 649 707 589 871 589 898 c 1
 588 898 l 1
 588 871 527 707 462 540 c 1
EndSplineSet
Validated: 1
EndChar

StartChar: B
Encoding: 66 66 15
Width: 1200
GlyphClass: 2
Flags: W
LayerCount: 2
Fore
SplineSet
325.5 290 m 1
 325.5 984 l 1
 580.5 984 l 2
 682.5 984 846.5 932 846.5 809 c 0
 846.5 722 746.5 670 673.5 653 c 1
 760.5 639 874.5 581 874.5 479 c 0
 874.5 351 719.5 290 610.5 290 c 2
 325.5 290 l 1
423.5 353 m 1
 580.5 353 l 2
 653.5 353 780.5 389 780.5 479 c 0
 780.5 577 645.5 616 566.5 616 c 2
 423.5 616 l 1
 423.5 353 l 1
423.5 686 m 1
 551.5 686 l 2
 622.5 686 755.5 719 755.5 809 c 0
 755.5 893 616.5 921 551.5 921 c 2
 423.5 921 l 1
 423.5 686 l 1
EndSplineSet
Validated: 1
EndChar

StartChar: C
Encoding: 67 67 16
Width: 1200
GlyphClass: 2
Flags: W
LayerCount: 2
Fore
SplineSet
668 287.900390625 m 0
 468 287.900390625 320 462.900390625 320 655.900390625 c 0
 320 848.900390625 468 1024.90039062 668 1024.90039062 c 0
 743 1024.90039062 796 1014.90039062 868 988.900390625 c 1
 852 894.900390625 l 1
 851 893.900390625 l 1
 791 934.900390625 740 950.900390625 668 950.900390625 c 0
 514 950.900390625 425 793.900390625 425 655.900390625 c 0
 425 517.900390625 514 361.900390625 668 361.900390625 c 0
 759 361.900390625 797 372.900390625 873 423.900390625 c 1
 880 344.900390625 l 1
 880 343.900390625 l 1
 799 297.900390625 761 287.900390625 668 287.900390625 c 0
EndSplineSet
Validated: 1
EndChar

StartChar: D
Encoding: 68 68 17
Width: 1200
GlyphClass: 2
Flags: W
LayerCount: 2
Fore
SplineSet
294.5 290.900390625 m 1
 294.5 984.900390625 l 1
 581.5 984.900390625 l 2
 771.5 984.900390625 905.5 812.900390625 905.5 631.900390625 c 0
 905.5 451.900390625 766.5 290.900390625 581.5 290.900390625 c 2
 294.5 290.900390625 l 1
396.5 353.900390625 m 1
 554.5 353.900390625 l 2
 712.5 353.900390625 803.5 483.900390625 803.5 631.900390625 c 0
 803.5 779.900390625 716.5 921.900390625 554.5 921.900390625 c 2
 396.5 921.900390625 l 1
 396.5 353.900390625 l 1
EndSplineSet
Validated: 1
EndChar

StartChar: E
Encoding: 69 69 18
Width: 1200
GlyphClass: 2
Flags: W
LayerCount: 2
Fore
SplineSet
351 288.599609375 m 1
 351 982.599609375 l 1
 834 982.599609375 l 1
 834 908.599609375 l 1
 456 909.599609375 l 1
 456 684.599609375 l 1
 805 684.599609375 l 1
 805 614.599609375 l 1
 456 614.599609375 l 1
 456 368.599609375 l 1
 849 370.599609375 l 1
 849 288.599609375 l 1
 351 288.599609375 l 1
EndSplineSet
Validated: 1
EndChar

StartChar: F
Encoding: 70 70 19
Width: 1200
GlyphClass: 2
Flags: W
LayerCount: 2
Fore
SplineSet
366 288 m 1
 366 982 l 1
 834 982 l 1
 834 908 l 1
 471 909 l 1
 471 670 l 1
 789 670 l 1
 789 600 l 1
 471 600 l 1
 471 288 l 1
 366 288 l 1
EndSplineSet
Validated: 1
EndChar

StartChar: G
Encoding: 71 71 20
Width: 1200
GlyphClass: 2
Flags: W
LayerCount: 2
Fore
SplineSet
661.5 288 m 0
 462.5 288 314.5 463 314.5 656 c 0
 314.5 849 462.5 1025 661.5 1025 c 0
 744.5 1025 801.5 1011 876.5 975 c 1
 859.5 880 l 1
 797.5 931 741.5 951 661.5 951 c 0
 508.5 951 419.5 794 419.5 656 c 0
 419.5 518 508.5 362 661.5 362 c 0
 706.5 362 751.5 367 794.5 380 c 1
 794.5 538 l 1
 661.5 538 l 1
 661.5 608 l 1
 885.5 608 l 1
 885.5 337 l 1
 815.5 305 738.5 288 661.5 288 c 0
EndSplineSet
Validated: 1
EndChar

StartChar: H
Encoding: 72 72 21
Width: 1200
GlyphClass: 2
Flags: W
LayerCount: 2
Fore
SplineSet
320.5 288.900390625 m 1
 320.5 982.900390625 l 1
 425.5 982.900390625 l 1
 425.5 684.900390625 l 1
 774.5 684.900390625 l 1
 774.5 982.900390625 l 1
 879.5 982.900390625 l 1
 879.5 288.900390625 l 1
 774.5 288.900390625 l 1
 774.5 614.900390625 l 1
 425.5 614.900390625 l 1
 425.5 288.900390625 l 1
 320.5 288.900390625 l 1
EndSplineSet
Validated: 1
EndChar

StartChar: I
Encoding: 73 73 22
Width: 1200
GlyphClass: 2
Flags: W
LayerCount: 2
Fore
SplineSet
547.5 288.900390625 m 1
 547.5 982.900390625 l 1
 652.5 982.900390625 l 1
 652.5 288.900390625 l 1
 547.5 288.900390625 l 1
EndSplineSet
Validated: 1
EndChar

StartChar: J
Encoding: 74 74 23
Width: 1200
GlyphClass: 2
Flags: W
LayerCount: 2
Fore
SplineSet
415.5 327.900390625 m 1
 430.5 414.900390625 l 1
 467.5 377.900390625 509.5 355.900390625 561.5 355.900390625 c 0
 623.5 355.900390625 682.5 382.900390625 682.5 452.900390625 c 2
 682.5 1000.90039062 l 1
 784.5 1000.90039062 l 1
 784.5 452.900390625 l 2
 784.5 342.900390625 703.5 285.900390625 600.5 285.900390625 c 0
 536.5 285.900390625 473.5 299.900390625 415.5 327.900390625 c 1
EndSplineSet
Validated: 1
EndChar

StartChar: K
Encoding: 75 75 24
Width: 1200
GlyphClass: 2
Flags: W
LayerCount: 2
Fore
SplineSet
302.5 286 m 1
 302.5 980 l 1
 400.5 980 l 1
 400.5 617 l 1
 775.5 980 l 1
 882.5 980 l 1
 599.5 706 l 1
 897.5 286 l 1
 790.5 286 l 1
 536.5 644 l 1
 400.5 513 l 1
 400.5 286 l 1
 302.5 286 l 1
EndSplineSet
Validated: 1
EndChar

StartChar: L
Encoding: 76 76 25
Width: 1200
GlyphClass: 2
Flags: W
LayerCount: 2
Fore
SplineSet
380.5 288.900390625 m 1
 380.5 982.900390625 l 1
 485.5 982.900390625 l 1
 485.5 361.900390625 l 1
 819.5 362.900390625 l 1
 819.5 288.900390625 l 1
 380.5 288.900390625 l 1
EndSplineSet
Validated: 1
EndChar

StartChar: M
Encoding: 77 77 26
Width: 1200
GlyphClass: 2
Flags: W
LayerCount: 2
Fore
SplineSet
240 289.900390625 m 1
 240 983.900390625 l 1
 368 983.900390625 l 1
 449 784.900390625 599 415.900390625 599 390.900390625 c 1
 600 415.900390625 750 784.900390625 831 983.900390625 c 1
 960 983.900390625 l 1
 960 289.900390625 l 1
 872 289.900390625 l 1
 872 903.900390625 l 2
 871 880.900390625 720 509.900390625 640 310.900390625 c 1
 558 310.900390625 l 1
 477 509.900390625 329 872.900390625 328 903.900390625 c 2
 328 289.900390625 l 1
 240 289.900390625 l 1
EndSplineSet
Validated: 1
EndChar

StartChar: N
Encoding: 78 78 27
Width: 1200
GlyphClass: 2
Flags: W
LayerCount: 2
Fore
SplineSet
323.5 284.900390625 m 1
 323.5 978.900390625 l 1
 465.5 978.900390625 l 1
 575.5 769.900390625 787.5 369.900390625 788.5 364.900390625 c 2
 788.5 978.900390625 l 1
 876.5 978.900390625 l 1
 876.5 284.900390625 l 1
 734.5 284.900390625 l 1
 624.5 493.900390625 412.5 893.900390625 411.5 898.900390625 c 2
 411.5 284.900390625 l 1
 323.5 284.900390625 l 1
EndSplineSet
Validated: 1
EndChar

StartChar: O
Encoding: 79 79 28
Width: 1200
GlyphClass: 2
Flags: W
LayerCount: 2
Fore
SplineSet
600 288.900390625 m 0
 404 288.900390625 267 466.900390625 267 653.900390625 c 0
 267 840.900390625 401 1025.90039062 600 1025.90039062 c 0
 799 1025.90039062 933 840.900390625 933 653.900390625 c 0
 933 466.900390625 796 288.900390625 600 288.900390625 c 0
600 362.900390625 m 0
 757 362.900390625 828 535.900390625 828 670.900390625 c 0
 828 804.900390625 749 951.900390625 600 951.900390625 c 0
 451 951.900390625 372 804.900390625 372 670.900390625 c 0
 372 535.900390625 443 362.900390625 600 362.900390625 c 0
EndSplineSet
Validated: 1
EndChar

StartChar: P
Encoding: 80 80 29
Width: 1200
GlyphClass: 2
Flags: W
LayerCount: 2
Fore
SplineSet
339 285.900390625 m 1
 339 979.900390625 l 1
 611 979.900390625 l 2
 727 979.900390625 861 904.900390625 861 774.900390625 c 0
 861 643.900390625 729 566.900390625 611 566.900390625 c 2
 444 566.900390625 l 1
 444 285.900390625 l 1
 339 285.900390625 l 1
441 633.900390625 m 1
 585 633.900390625 l 2
 672 633.900390625 767 674.900390625 767 774.900390625 c 0
 767 874.900390625 672 916.900390625 585 916.900390625 c 2
 441 916.900390625 l 1
 441 633.900390625 l 1
EndSplineSet
Validated: 1
EndChar

StartChar: Q
Encoding: 81 81 30
Width: 1200
GlyphClass: 2
Flags: W
LayerCount: 2
Fore
SplineSet
600 288.599609375 m 0
 404 288.599609375 267 466.599609375 267 653.599609375 c 0
 267 840.599609375 401 1025.59960938 600 1025.59960938 c 0
 799 1025.59960938 933 840.599609375 933 653.599609375 c 0
 933 532.599609375 877 412.599609375 777 344.599609375 c 1
 904 181.599609375 l 1
 782 181.599609375 l 1
 693 303.599609375 l 1
 664 293.599609375 632 288.599609375 600 288.599609375 c 0
548 503.599609375 m 1
 652 503.599609375 l 1
 727 407.599609375 l 1
 800 465.599609375 831 562.599609375 831 653.599609375 c 0
 831 788.599609375 755 951.599609375 600 951.599609375 c 0
 445 951.599609375 369 788.599609375 369 653.599609375 c 0
 369 517.599609375 447 362.599609375 600 362.599609375 c 0
 616 362.599609375 632 363.599609375 647 367.599609375 c 1
 548 503.599609375 l 1
EndSplineSet
Validated: 1
EndChar

StartChar: R
Encoding: 82 82 31
Width: 1200
GlyphClass: 2
Flags: W
LayerCount: 2
Fore
SplineSet
319.5 285.900390625 m 1
 319.5 979.900390625 l 1
 581.5 979.900390625 l 2
 689.5 979.900390625 850.5 921.900390625 850.5 792.900390625 c 0
 850.5 695.900390625 759.5 631.900390625 674.5 609.900390625 c 1
 880.5 285.900390625 l 1
 775.5 285.900390625 l 1
 583.5 597.900390625 l 1
 421.5 597.900390625 l 1
 421.5 285.900390625 l 1
 319.5 285.900390625 l 1
421.5 667.900390625 m 1
 568.5 667.900390625 l 2
 645.5 667.900390625 756.5 695.900390625 756.5 792.900390625 c 0
 756.5 887.900390625 645.5 916.900390625 568.5 916.900390625 c 2
 421.5 916.900390625 l 1
 421.5 667.900390625 l 1
EndSplineSet
Validated: 1
EndChar

StartChar: S
Encoding: 83 83 32
Width: 1200
GlyphClass: 2
Flags: W
LayerCount: 2
Fore
SplineSet
358 360.900390625 m 1
 375 455.900390625 l 1
 439 400.900390625 521 372.900390625 606 372.900390625 c 0
 675 372.900390625 751 417.900390625 751 493.900390625 c 0
 751 554.900390625 700 598.900390625 645 612.900390625 c 2
 542 636.900390625 l 2
 453 657.900390625 370 730.900390625 370 828.900390625 c 0
 370 951.900390625 493 1025.90039062 606 1025.90039062 c 0
 683 1025.90039062 736 1014.90039062 805 978.900390625 c 1
 788 883.900390625 l 1
 732 932.900390625 680 951.900390625 606 951.900390625 c 0
 542 951.900390625 461 914.900390625 461 841.900390625 c 0
 461 784.900390625 512 747.900390625 562 735.900390625 c 2
 665 711.900390625 l 2
 760 688.900390625 842 606.900390625 842 504.900390625 c 0
 842 378.900390625 725 291.900390625 606 291.900390625 c 0
 518 291.900390625 433 315.900390625 358 360.900390625 c 1
EndSplineSet
Validated: 1
EndChar

StartChar: T
Encoding: 84 84 33
Width: 1200
GlyphClass: 2
Flags: W
LayerCount: 2
Fore
SplineSet
547.5 288.900390625 m 1
 547.5 909.900390625 l 1
 275.5 908.900390625 l 1
 275.5 982.900390625 l 1
 924.5 982.900390625 l 1
 924.5 908.900390625 l 1
 652.5 909.900390625 l 1
 652.5 288.900390625 l 1
 547.5 288.900390625 l 1
EndSplineSet
Validated: 1
EndChar

StartChar: U
Encoding: 85 85 34
Width: 1200
GlyphClass: 2
Flags: W
LayerCount: 2
Fore
SplineSet
331 540.900390625 m 2
 331 1003.90039062 l 1
 436 1003.90039062 l 1
 436 540.900390625 l 2
 436 439.900390625 495 351.900390625 604 351.900390625 c 0
 712 351.900390625 778 437.900390625 778 540.900390625 c 2
 778 1003.90039062 l 1
 869 1003.90039062 l 1
 869 540.900390625 l 2
 869 396.900390625 744 288.900390625 604 288.900390625 c 0
 463 288.900390625 331 393.900390625 331 540.900390625 c 2
EndSplineSet
Validated: 1
EndChar

StartChar: V
Encoding: 86 86 35
Width: 1200
GlyphClass: 2
Flags: W
LayerCount: 2
Fore
SplineSet
547.5 285.900390625 m 1
 261.5 979.900390625 l 1
 371.5 979.900390625 l 1
 455.5 774.900390625 608.5 402.900390625 609.5 365.900390625 c 1
 609.5 402.900390625 763.5 774.900390625 847.5 979.900390625 c 1
 938.5 979.900390625 l 1
 652.5 285.900390625 l 1
 547.5 285.900390625 l 1
EndSplineSet
Validated: 1
EndChar

StartChar: W
Encoding: 87 87 36
Width: 1200
GlyphClass: 2
Flags: W
LayerCount: 2
Fore
SplineSet
330 285.900390625 m 1
 114 979.900390625 l 1
 213 979.900390625 l 1
 277 775.900390625 386 423.900390625 387 365.900390625 c 1
 387 423.900390625 497 775.900390625 561 979.900390625 c 1
 649 979.900390625 l 1
 713 774.900390625 826 411.900390625 827 365.900390625 c 1
 827 411.900390625 941 774.900390625 1004 979.900390625 c 1
 1086 979.900390625 l 1
 870 285.900390625 l 1
 774 285.900390625 l 1
 710 490.900390625 597 853.900390625 596 899.900390625 c 1
 596 853.900390625 483 490.900390625 419 285.900390625 c 1
 330 285.900390625 l 1
EndSplineSet
Validated: 1
EndChar

StartChar: X
Encoding: 88 88 37
Width: 1200
GlyphClass: 2
Flags: W
LayerCount: 2
Fore
SplineSet
261.5 288.900390625 m 1
 541.5 654.900390625 l 1
 276.5 982.900390625 l 1
 400.5 982.900390625 l 1
 592.5 730.900390625 l 1
 780.5 982.900390625 l 1
 894.5 982.900390625 l 1
 643.5 654.900390625 l 1
 938.5 288.900390625 l 1
 814.5 288.900390625 l 1
 592.5 586.900390625 l 1
 374.5 288.900390625 l 1
 261.5 288.900390625 l 1
EndSplineSet
Validated: 1
EndChar

StartChar: Y
Encoding: 89 89 38
Width: 1200
GlyphClass: 2
Flags: W
LayerCount: 2
Fore
SplineSet
549.5 285.900390625 m 1
 549.5 563.900390625 l 1
 249.5 979.900390625 l 1
 374.5 979.900390625 l 1
 457.5 864.900390625 610.5 652.900390625 611.5 643.900390625 c 1
 611.5 652.900390625 764.5 864.900390625 846.5 979.900390625 c 1
 950.5 979.900390625 l 1
 651.5 563.900390625 l 1
 651.5 285.900390625 l 1
 549.5 285.900390625 l 1
EndSplineSet
Validated: 1
EndChar

StartChar: Z
Encoding: 90 90 39
Width: 1200
GlyphClass: 2
Flags: W
LayerCount: 2
Fore
SplineSet
332 288.900390625 m 1
 332 337.900390625 l 1
 727 912.900390625 l 1
 347 911.900390625 l 1
 347 981.900390625 l 1
 862 981.900390625 l 1
 862 935.900390625 l 1
 468 361.900390625 l 1
 868 362.900390625 l 1
 868 288.900390625 l 1
 332 288.900390625 l 1
EndSplineSet
Validated: 1
EndChar

StartChar: cent
Encoding: 9678 9678 40
Width: 1200
GlyphClass: 2
Flags: W
LayerCount: 2
Fore
SplineSet
568 1214 m 0
 583 1215 640 1214 656 1213 c 0
 771 1201 876 1161 966 1094 c 0
 1098 997 1186 849 1209 688 c 0
 1213 656 1214 640 1214 600 c 0
 1214 560 1213 544 1209 513 c 0
 1180 315 1056 142 878 52 c 0
 807 15 738 -4 655 -13 c 0
 630 -15 570 -15 545 -13 c 0
 512 -9 484 -5 454 3 c 0
 333 32 223 98 139 193 c 0
 60 282 8 394 -9 513 c 0
 -13 544 -14 560 -14 600 c 0
 -14 640 -13 656 -9 688 c 0
 16 860 114 1015 259 1112 c 0
 351 1173 456 1208 568 1214 c 0
654 1183 m 0
 639 1184 583 1185 572 1184 c 0
 522 1181 499 1177 462 1168 c 0
 272 1122 118 984 50 800 c 0
 33 753 23 706 17 652 c 0
 15 628 15 572 17 548 c 0
 24 482 38 425 63 369 c 0
 122 231 231 122 369 63 c 0
 425 38 482 24 547 17 c 0
 572 15 628 15 653 17 c 0
 729 25 796 44 862 77 c 0
 928 110 988 156 1037 211 c 0
 1113 297 1163 403 1179 517 c 0
 1183 547 1184 564 1184 600 c 0
 1184 636 1183 653 1179 684 c 0
 1162 802 1110 910 1028 999 c 0
 982 1048 924 1092 862 1123 c 0
 796 1156 729 1175 654 1183 c 0
573 919 m 0
 597 921 627 920 653 916 c 0
 719 904 779 873 827 826 c 0
 843 809 853 796 867 776 c 0
 901 724 920 662 920 600 c 0
 920 559 911 516 896 478 c 0
 885 452 866 421 849 399 c 0
 838 385 815 363 802 352 c 0
 772 328 737 309 702 297 c 0
 644 277 581 275 521 290 c 0
 466 304 415 333 373 374 c 0
 357 391 347 404 333 424 c 0
 299 476 280 538 280 600 c 0
 280 641 289 684 304 723 c 0
 315 748 334 779 351 801 c 0
 362 815 385 837 399 848 c 0
 421 867 452 885 478 896 c 0
 506 907 542 916 573 919 c 0
640 877 m 0
 625 879 590 880 576 879 c 0
 509 873 450 845 404 799 c 0
 365 760 341 718 328 668 c 0
 322 642 321 629 321 600 c 0
 321 571 322 558 328 533 c 0
 341 482 365 440 404 401 c 0
 447 358 498 332 561 323 c 0
 572 321 579 321 600 321 c 0
 621 321 628 321 640 323 c 0
 702 332 753 358 796 401 c 0
 835 440 859 482 872 533 c 0
 878 558 879 571 879 600 c 0
 879 629 878 642 872 668 c 0
 859 718 835 760 796 799 c 0
 753 842 701 868 640 877 c 0
EndSplineSet
Validated: 33
EndChar

StartChar: sterling
Encoding: 9673 9673 41
Width: 1200
GlyphClass: 2
Flags: W
LayerCount: 2
Fore
SplineSet
569 1199 m 0
 584 1200 639 1199 655 1198 c 0
 766 1187 869 1148 957 1082 c 0
 1044 1018 1113 929 1155 830 c 0
 1177 776 1191 716 1198 654 c 0
 1200 629 1200 571 1198 546 c 0
 1190 468 1171 401 1137 334 c 0
 1073 204 963 101 830 45 c 0
 776 23 716 9 654 2 c 0
 629 0 571 0 546 2 c 0
 468 10 401 29 334 63 c 0
 204 127 101 237 45 371 c 0
 28 413 13 467 6 515 c 0
 2 545 1 562 1 600 c 0
 1 627 1 641 2 654 c 0
 10 732 29 799 63 867 c 0
 127 996 237 1099 371 1155 c 0
 431 1180 500 1195 569 1199 c 0
641 933 m 0
 629 934 587 935 577 934 c 0
 532 930 493 920 455 902 c 0
 362 857 292 769 272 668 c 0
 267 641 266 630 266 600 c 0
 266 570 267 559 272 532 c 0
 292 431 362 343 455 298 c 0
 488 282 521 273 560 267 c 0
 578 265 622 265 641 267 c 0
 699 275 751 296 795 328 c 0
 872 384 920 464 933 560 c 0
 935 578 935 622 933 641 c 0
 926 687 912 730 890 768 c 0
 836 859 747 919 641 933 c 0
582 864 m 0
 590 865 625 864 636 863 c 0
 665 858 692 850 716 838 c 0
 777 807 821 760 846 697 c 0
 859 664 864 638 864 600 c 0
 864 562 859 536 846 503 c 0
 818 433 764 379 695 352 c 0
 663 340 636 336 600 336 c 0
 576 336 563 337 544 341 c 0
 457 360 387 420 354 503 c 0
 341 536 336 562 336 600 c 0
 336 624 337 637 341 657 c 0
 357 727 402 790 463 827 c 0
 502 849 534 860 582 864 c 0
EndSplineSet
Validated: 33
EndChar

StartChar: at
Encoding: 164 64 42
Width: 1200
GlyphClass: 2
Flags: W
LayerCount: 2
Fore
SplineSet
568 1214 m 0
 583 1215 640 1214 656 1213 c 0
 771 1201 876 1161 966 1094 c 0
 1098 997 1186 849 1209 688 c 0
 1213 656 1214 640 1214 600 c 0
 1214 560 1213 544 1209 513 c 0
 1180 315 1056 142 878 52 c 0
 807 15 738 -4 655 -13 c 0
 630 -15 570 -15 545 -13 c 0
 512 -9 484 -5 454 3 c 0
 333 32 223 98 139 193 c 0
 60 282 8 394 -9 513 c 0
 -13 544 -14 560 -14 600 c 0
 -14 640 -13 656 -9 688 c 0
 16 860 114 1015 259 1112 c 0
 351 1173 456 1208 568 1214 c 0
654 1183 m 0
 639 1184 583 1185 572 1184 c 0
 522 1181 499 1177 462 1168 c 0
 272 1122 118 984 50 800 c 0
 33 753 23 706 17 652 c 0
 15 628 15 572 17 548 c 0
 24 482 38 425 63 369 c 0
 122 231 231 122 369 63 c 0
 425 38 482 24 547 17 c 0
 572 15 628 15 653 17 c 0
 729 25 796 44 862 77 c 0
 928 110 988 156 1037 211 c 0
 1113 297 1163 403 1179 517 c 0
 1183 547 1184 564 1184 600 c 0
 1184 636 1183 653 1179 684 c 0
 1162 802 1110 910 1028 999 c 0
 982 1048 924 1092 862 1123 c 0
 796 1156 729 1175 654 1183 c 0
280 600 m 1
 280 920 l 1
 600 920 l 1
 920 920 l 1
 920 600 l 1
 920 280 l 1
 600 280 l 1
 280 280 l 1
 280 600 l 1
880 600 m 1
 880 880 l 1
 600 880 l 1
 320 880 l 1
 320 600 l 1
 320 320 l 1
 600 320 l 1
 880 320 l 1
 880 600 l 1
EndSplineSet
Validated: 33
EndChar

StartChar: numbersign
Encoding: 165 35 43
Width: 1200
GlyphClass: 2
Flags: W
LayerCount: 2
Fore
SplineSet
569 1199 m 0
 584 1200 639 1199 655 1198 c 0
 766 1187 869 1148 957 1082 c 0
 1044 1018 1113 929 1155 830 c 0
 1177 776 1191 716 1198 654 c 0
 1200 629 1200 571 1198 546 c 0
 1190 468 1171 401 1137 334 c 0
 1073 204 963 101 830 45 c 0
 776 23 716 9 654 2 c 0
 629 0 571 0 546 2 c 0
 468 10 401 29 334 63 c 0
 204 127 101 237 45 371 c 0
 28 413 13 467 6 515 c 0
 2 545 1 562 1 600 c 0
 1 627 1 641 2 654 c 0
 10 732 29 799 63 867 c 0
 127 996 237 1099 371 1155 c 0
 431 1180 500 1195 569 1199 c 0
935 600 m 1
 935 935 l 1
 600 935 l 1
 265 935 l 1
 265 600 l 1
 265 265 l 1
 600 265 l 1
 935 265 l 1
 935 600 l 1
335 600 m 1
 335 865 l 1
 600 865 l 1
 865 865 l 1
 865 600 l 1
 865 335 l 1
 600 335 l 1
 335 335 l 1
 335 600 l 1
EndSplineSet
Validated: 33
EndChar

StartChar: uni2BBE
Encoding: 11198 11198 44
Width: 1200
GlyphClass: 2
Flags: W
LayerCount: 2
Fore
SplineSet
568 1214 m 0
 583 1215 640 1214 656 1213 c 0
 771 1201 876 1161 966 1094 c 0
 1098 997 1186 849 1209 688 c 0
 1213 656 1214 640 1214 600 c 0
 1214 560 1213 544 1209 513 c 0
 1180 315 1056 142 878 52 c 0
 807 15 738 -4 655 -13 c 0
 630 -15 570 -15 545 -13 c 0
 512 -9 484 -5 454 3 c 0
 333 32 223 98 139 193 c 0
 60 282 8 394 -9 513 c 0
 -13 544 -14 560 -14 600 c 0
 -14 640 -13 656 -9 688 c 0
 16 860 114 1015 259 1112 c 0
 351 1173 456 1208 568 1214 c 0
654 1183 m 0
 639 1184 583 1185 572 1184 c 0
 522 1181 499 1177 462 1168 c 0
 272 1122 118 984 50 800 c 0
 33 753 23 706 17 652 c 0
 15 628 15 572 17 548 c 0
 24 482 38 425 63 369 c 0
 122 231 231 122 369 63 c 0
 425 38 482 24 547 17 c 0
 572 15 628 15 653 17 c 0
 729 25 796 44 862 77 c 0
 928 110 988 156 1037 211 c 0
 1113 297 1163 403 1179 517 c 0
 1183 547 1184 564 1184 600 c 0
 1184 636 1183 653 1179 684 c 0
 1162 802 1110 910 1028 999 c 0
 982 1048 924 1092 862 1123 c 0
 796 1156 729 1175 654 1183 c 0
291 917 m 0
 297 920 302 921 308 918 c 0
 310 917 353 875 456 773 c 2
 600 629 l 1
 744 773 l 2
 871 899 889 917 893 919 c 0
 909 925 925 908 918 892 c 0
 917 890 875 847 773 744 c 2
 629 600 l 1
 773 456 l 2
 875 353 917 310 918 308 c 0
 925 292 909 275 893 281 c 0
 889 283 871 301 744 427 c 2
 600 571 l 1
 456 427 l 2
 353 325 310 283 308 282 c 0
 302 279 297 280 291 283 c 0
 286 285 285 286 283 291 c 0
 279 297 279 302 282 308 c 0
 284 312 315 344 428 456 c 2
 571 600 l 1
 428 744 l 2
 315 856 284 888 282 892 c 0
 279 898 279 903 283 909 c 0
 285 914 286 915 291 917 c 0
EndSplineSet
Validated: 33
EndChar

StartChar: uni2BBF
Encoding: 11199 11199 45
Width: 1200
GlyphClass: 2
Flags: W
LayerCount: 2
Fore
SplineSet
569 1199 m 0
 584 1200 639 1199 655 1198 c 0
 766 1187 869 1148 957 1082 c 0
 1044 1018 1113 929 1155 830 c 0
 1177 776 1191 716 1198 654 c 0
 1200 629 1200 571 1198 546 c 0
 1190 468 1171 401 1137 334 c 0
 1073 204 963 101 830 45 c 0
 776 23 716 9 654 2 c 0
 629 0 571 0 546 2 c 0
 468 10 401 29 334 63 c 0
 204 127 101 237 45 371 c 0
 28 413 13 467 6 515 c 0
 2 545 1 562 1 600 c 0
 1 627 1 641 2 654 c 0
 10 732 29 799 63 867 c 0
 127 996 237 1099 371 1155 c 0
 431 1180 500 1195 569 1199 c 0
312 933 m 2
 293 939 276 931 268 914 c 0
 266 909 266 907 266 900 c 0
 266 884 253 898 410 740 c 2
 550 600 l 1
 410 460 l 2
 253 302 266 316 266 300 c 0
 266 293 266 291 268 286 c 0
 276 269 293 261 311 267 c 2
 319 269 l 1
 459 410 l 1
 600 550 l 1
 740 410 l 2
 867 283 881 270 886 268 c 0
 904 261 923 268 931 285 c 0
 934 291 934 292 934 300 c 0
 934 316 947 302 790 460 c 2
 650 600 l 1
 790 740 l 2
 947 898 934 884 934 900 c 0
 934 908 934 909 931 915 c 0
 923 932 904 939 886 932 c 0
 881 930 867 917 740 790 c 2
 600 650 l 1
 459 790 l 1
 319 931 l 1
 312 933 l 2
EndSplineSet
Validated: 33
EndChar

StartChar: ordfeminine
Encoding: 9633 9633 46
Width: 1200
GlyphClass: 2
Flags: W
LayerCount: 2
Fore
SplineSet
280 600 m 1
 280 920 l 1
 600 920 l 1
 920 920 l 1
 920 600 l 1
 920 280 l 1
 600 280 l 1
 280 280 l 1
 280 600 l 1
880 600 m 1
 880 880 l 1
 600 880 l 1
 320 880 l 1
 320 600 l 1
 320 320 l 1
 600 320 l 1
 880 320 l 1
 880 600 l 1
EndSplineSet
Validated: 1
EndChar

StartChar: guillemotleft
Encoding: 9651 9651 47
Width: 1200
GlyphClass: 2
Flags: W
LayerCount: 2
Fore
SplineSet
591 1218 m 0
 598 1221 605 1221 611 1216 c 0
 615 1214 642 1167 876 762 c 0
 1020 513 1138 307 1139 305 c 0
 1140 301 1140 299 1139 295 c 0
 1137 289 1133 285 1128 282 c 0
 1124 280 1106 280 600 280 c 0
 94 280 76 280 73 282 c 0
 64 286 59 296 61 304 c 0
 62 308 574 1197 584 1211 c 0
 585 1214 588 1216 591 1218 c 0
843 740 m 2
 710 970 600 1159 600 1159 c 1
 600 1159 490 970 357 740 c 2
 115 321 l 1
 358 320 l 1
 842 320 l 1
 1085 321 l 1
 843 740 l 2
EndSplineSet
Validated: 1
EndChar

StartChar: periodcentered
Encoding: 183 183 48
Width: 1200
GlyphClass: 2
Flags: W
LayerCount: 2
Fore
SplineSet
590 942 m 1
 590 1210 l 1
 600 1210 l 1
 610 1210 l 1
 610 942 l 1
 610 674 l 1
 618 673 l 2
 645 667 667 645 673 618 c 2
 674 610 l 1
 942 610 l 1
 1210 610 l 1
 1210 600 l 1
 1210 590 l 1
 942 590 l 1
 674 590 l 1
 673 582 l 2
 667 555 645 533 618 527 c 2
 610 526 l 1
 610 258 l 1
 610 -10 l 1
 600 -10 l 1
 590 -10 l 1
 590 258 l 1
 590 526 l 1
 582 527 l 2
 555 533 533 555 527 582 c 2
 526 590 l 1
 258 590 l 1
 -10 590 l 1
 -10 600 l 1
 -10 610 l 1
 258 610 l 1
 526 610 l 1
 527 618 l 2
 533 645 555 667 582 673 c 2
 590 674 l 1
 590 942 l 1
EndSplineSet
Validated: 1
EndChar

StartChar: Ntilde
Encoding: 215 215 49
Width: 1200
GlyphClass: 2
Flags: W
LayerCount: 2
Fore
SplineSet
291 917 m 0
 297 920 302 921 308 918 c 0
 310 917 353 875 456 773 c 2
 600 629 l 1
 744 773 l 2
 871 899 889 917 893 919 c 0
 909 925 925 908 918 892 c 0
 917 890 875 847 773 744 c 2
 629 600 l 1
 773 456 l 2
 875 353 917 310 918 308 c 0
 925 292 909 275 893 281 c 0
 889 283 871 301 744 427 c 2
 600 571 l 1
 456 427 l 2
 353 325 310 283 308 282 c 0
 302 279 297 280 291 283 c 0
 286 285 285 286 283 291 c 0
 279 297 279 302 282 308 c 0
 284 312 315 344 428 456 c 2
 571 600 l 1
 428 744 l 2
 315 856 284 888 282 892 c 0
 279 898 279 903 283 909 c 0
 285 914 286 915 291 917 c 0
EndSplineSet
Validated: 33
EndChar

StartChar: Amacron
Encoding: 10102 10102 50
Width: 1200
GlyphClass: 2
Flags: W
LayerCount: 2
Fore
SplineSet
569 1199 m 0
 573.392578125 1199.29003906 581.21875 1199.41015625 590.490234375 1199.41015625 c 0
 612.873046875 1199.41015625 643.685546875 1198.70996094 655 1198 c 0
 766 1187 869 1148 957 1082 c 0
 1044 1018 1113 929 1155 830 c 0
 1177 776 1191 716 1198 654 c 0
 1199 641.5 1199.5 620.75 1199.5 600 c 0
 1199.5 579.25 1199 558.5 1198 546 c 0
 1190 468 1171 401 1137 334 c 0
 1073 204 963 101 830 45 c 0
 776 23 716 9 654 2 c 0
 641.5 1 620.75 0.5 600 0.5 c 0
 579.25 0.5 558.5 1 546 2 c 0
 468 10 401 29 334 63 c 0
 204 127 101 237 45 371 c 0
 23 424 9 484 2 546 c 0
 1 558.5 0.5 579.25 0.5 600 c 0
 0.5 620.75 1 641.5 2 654 c 0
 10 732 29 799 63 867 c 0
 127 996 237 1099 371 1155 c 0
 431 1180 500 1195 569 1199 c 0
651.000976562 635 m 1
 651.000976562 922 l 1
 641.000976562 922 l 1
 632.000976562 922 l 1
 623.000976562 915 l 2
 582.000976562 884 531.000976562 867 460.000976562 862 c 0
 451.000976562 861 439.000976562 861 433.000976562 861 c 2
 421.000976562 861 l 1
 421.000976562 831 l 1
 421.000976562 801 l 1
 433.000976562 801 l 2
 478.000976562 801 532.000976562 810 564.000976562 822 c 0
 567.000976562 824 571.000976562 825 571.000976562 825 c 1
 571.000976562 587 l 1
 571.000976562 348 l 1
 500.000976562 348 l 1
 428.000976562 348 l 1
 428.000976562 318 l 1
 428.000976562 288 l 1
 611.000976562 288 l 1
 794.000976562 288 l 1
 794.000976562 318 l 1
 794.000976562 348 l 1
 723.000976562 348 l 1
 651.000976562 348 l 1
 651.000976562 635 l 1
EndSplineSet
Validated: 1
EndChar

StartChar: amacron
Encoding: 10103 10103 51
Width: 1200
GlyphClass: 2
Flags: W
LayerCount: 2
Fore
SplineSet
569 1199 m 0
 584 1200 639 1199 655 1198 c 0
 766 1187 869 1148 957 1082 c 0
 1044 1018 1113 929 1155 830 c 0
 1177 776 1191 716 1198 654 c 0
 1200 629 1200 571 1198 546 c 0
 1190 468 1171 401 1137 334 c 0
 1073 204 963 101 830 45 c 0
 776 23 716 9 654 2 c 0
 629 0 571 0 546 2 c 0
 468 10 401 29 334 63 c 0
 204 127 101 237 45 371 c 0
 23 424 9 484 2 546 c 0
 0 571 0 629 2 654 c 0
 10 732 29 799 63 867 c 0
 127 996 237 1099 371 1155 c 0
 431 1180 500 1195 569 1199 c 0
625 920 m 0
 614 921 570 922 560 921 c 0
 548 920 525 917 515 914 c 0
 446 897 397 852 366 779 c 0
 361 766 361 764 361 757 c 0
 360 747 362 744 377 729 c 0
 389 718 392 716 401 716 c 0
 406 716 415 720 418 725 c 0
 420 727 423 734 425 740 c 0
 445 803 479 840 528 851 c 0
 561 859 607 856 644 844 c 0
 709 823 745 776 745 716 c 0
 745 685 736 657 717 629 c 0
 694 594 667 569 586 508 c 0
 516 456 381 352 376 347 c 0
 373 343 371 340 370 337 c 0
 369 335 369 324 369 311 c 2
 369 288 l 1
 599 288 l 1
 829 288 l 1
 829 325 l 1
 829 361 l 1
 660 361 l 2
 520 360 492 360 493 361 c 0
 496 364 619 454 651 477 c 0
 711 520 729 534 756 561 c 0
 766 570 777 583 782 589 c 0
 805 618 819 647 826 680 c 0
 828 691 828 694 828 716 c 0
 828 740 828 748 822 769 c 0
 810 813 782 851 741 878 c 0
 708 900 672 913 625 920 c 0
EndSplineSet
Validated: 33
EndChar

StartChar: Abreve
Encoding: 10104 10104 52
Width: 1200
GlyphClass: 2
Flags: W
LayerCount: 2
Fore
SplineSet
569 1199 m 0
 573.392578125 1199.29003906 581.21875 1199.41015625 590.490234375 1199.41015625 c 0
 612.873046875 1199.41015625 643.685546875 1198.70996094 655 1198 c 0
 766 1187 869 1148 957 1082 c 0
 1044 1018 1113 929 1155 830 c 0
 1177 776 1191 716 1198 654 c 0
 1199 641.5 1199.5 620.75 1199.5 600 c 0
 1199.5 579.25 1199 558.5 1198 546 c 0
 1190 468 1171 401 1137 334 c 0
 1073 204 963 101 830 45 c 0
 776 23 716 9 654 2 c 0
 641.5 1 620.75 0.5 600 0.5 c 0
 579.25 0.5 558.5 1 546 2 c 0
 468 10 401 29 334 63 c 0
 204 127 101 237 45 371 c 0
 23 424 9 484 2 546 c 0
 1 558.5 0.5 579.25 0.5 600 c 0
 0.5 620.75 1 641.5 2 654 c 0
 10 732 29 799 63 867 c 0
 127 996 237 1099 371 1155 c 0
 431 1180 500 1195 569 1199 c 0
644.000976562 919 m 0
 631.732421875 920.9375 611.956054688 922.041015625 594.637695312 922.041015625 c 0
 585.13671875 922.041015625 576.376953125 921.708007812 570 921 c 0
 542 917 514 910 490 900 c 0
 466 890 436 873 416 856 c 0
 403 845 381 823 379 818 c 0
 376 814 376 805 377 800 c 0
 379 792 397 771 405 769 c 0
 410 768 413 768 419 769 c 0
 423 770 428 775 441 791 c 0
 454 805 472 821 490 831 c 0
 523.53125 851.118164062 563.168945312 861.797851562 601.053710938 861.797851562 c 0
 614.012695312 861.797851562 626.765625 860.548828125 639 858 c 0
 679 849 710 826 720 797 c 0
 722 791 722 789 722 777 c 0
 722 762 721 754 716 739 c 0
 702 700 667 670 624 659 c 0
 612 656 603 655 556 652 c 0
 523 650 521 650 516 647 c 0
 510 644 506 639 504 633 c 0
 503 630 503 623 503 616 c 0
 503 604 504 603 507 598 c 0
 508 595 511 592 514 591 c 2
 519 588 l 1
 570 587 l 2
 602 587 623 586 627 585 c 0
 693 573 738 531 746 475 c 0
 747 468.5 747.5 463.25 747.5 458 c 0
 747.5 452.75 747 447.5 746 441 c 0
 744 424 737 405 728 392 c 0
 701 353 653 329 599 329 c 0
 548 329 494 345 451 373 c 0
 438 382 426 392 410 406 c 0
 398.819335938 416.434570312 393.194335938 420.203125 386.9140625 420.203125 c 0
 384.768554688 420.203125 382.546875 419.762695312 380.000976562 418.999023438 c 0
 375.000976562 417.999023438 368.000976562 410.999023438 366.000976562 406.999023438 c 0
 363.000976562 401.999023438 360.000976562 382.999023438 360.000976562 377.999023438 c 0
 361.000976562 369.999023438 365.000976562 365.999023438 379.000976562 352.999023438 c 0
 399.000976562 333.999023438 420.000976562 318.999023438 443.000976562 305.999023438 c 0
 490.869140625 279.698242188 545.932617188 266.401367188 599.311523438 266.401367188 c 0
 647.407226562 266.401367188 694.134765625 277.196289062 733.000976562 298.999023438 c 0
 755.000976562 310.999023438 770.000976562 321.999023438 788.000976562 339.999023438 c 0
 812.000976562 365.999023438 828.000976562 394.999023438 835.000976562 427.999023438 c 0
 836.607421875 436.02734375 837.639648438 447.778320312 837.639648438 459.267578125 c 0
 837.639648438 469.247070312 836.860351562 479.028320312 835.000976562 486 c 0
 831.000976562 505 824.000976562 521 812.000976562 539 c 0
 804.000976562 551 780.000976562 576 767.000976562 585 c 0
 749.000976562 598 726.000976562 610 708.000976562 616 c 0
 705.000976562 617 702.000976562 619 702.000976562 619 c 1
 702.000976562 619 704.000976562 621 707.000976562 622 c 0
 721.000976562 630 738.000976562 642 751.000976562 655 c 0
 779.000976562 682 796.000976562 711 803.000976562 748 c 0
 805.000976562 757 805.000976562 761 805.000976562 777 c 0
 805.000976562 794 805.000976562 796 803.000976562 805 c 0
 801.000976562 811 798.000976562 819 796.000976562 824 c 0
 773.000976562 872 716.000976562 908 644.000976562 919 c 0
EndSplineSet
Validated: 1
EndChar

StartChar: abreve
Encoding: 10105 10105 53
Width: 1200
GlyphClass: 2
Flags: W
LayerCount: 2
Fore
SplineSet
569 1199 m 0
 584 1200 639 1199 655 1198 c 0
 766 1187 869 1148 957 1082 c 0
 1044 1018 1113 929 1155 830 c 0
 1177 776 1191 716 1198 654 c 0
 1200 629 1200 571 1198 546 c 0
 1190 468 1171 401 1137 334 c 0
 1073 204 963 101 830 45 c 0
 776 23 716 9 654 2 c 0
 629 0 571 0 546 2 c 0
 468 10 401 29 334 63 c 0
 204 127 101 237 45 371 c 0
 23 424 9 484 2 546 c 0
 0 571 0 629 2 654 c 0
 10 732 29 799 63 867 c 0
 127 996 237 1099 371 1155 c 0
 431 1180 500 1195 569 1199 c 0
735 703 m 1
 735 900 l 1
 686 900 l 1
 637 900 l 1
 631 892 l 2
 628 888 562 799 485 695 c 2
 344 506 l 1
 344 474 l 1
 344 443 l 1
 500 443 l 1
 655 443 l 1
 655 366 l 1
 655 288 l 1
 695 288 l 1
 735 288 l 1
 735 366 l 1
 735 443 l 1
 795 443 l 1
 854 443 l 1
 854 475 l 1
 854 506 l 1
 795 506 l 1
 735 506 l 1
 735 703 l 1
545 662 m 1
 661 817 l 1
 661 662 l 1
 661 506 l 1
 545 506 l 1
 429 507 l 1
 545 662 l 1
EndSplineSet
Validated: 33
EndChar

StartChar: Aogonek
Encoding: 10106 10106 54
Width: 1200
GlyphClass: 2
Flags: W
LayerCount: 2
Fore
SplineSet
569 1199 m 0
 573.392578125 1199.29003906 581.21875 1199.41015625 590.490234375 1199.41015625 c 0
 612.873046875 1199.41015625 643.685546875 1198.70996094 655 1198 c 0
 766 1187 869 1148 957 1082 c 0
 1044 1018 1113 929 1155 830 c 0
 1177 776 1191 716 1198 654 c 0
 1199 641.5 1199.5 620.75 1199.5 600 c 0
 1199.5 579.25 1199 558.5 1198 546 c 0
 1190 468 1171 401 1137 334 c 0
 1073 204 963 101 830 45 c 0
 776 23 716 9 654 2 c 0
 641.5 1 620.75 0.5 600 0.5 c 0
 579.25 0.5 558.5 1 546 2 c 0
 468 10 401 29 334 63 c 0
 204 127 101 237 45 371 c 0
 23 424 9 484 2 546 c 0
 1 558.5 0.5 579.25 0.5 600 c 0
 0.5 620.75 1 641.5 2 654 c 0
 10 732 29 799 63 867 c 0
 127 996 237 1099 371 1155 c 0
 431 1180 500 1195 569 1199 c 0
790.000976562 867 m 1
 790.000976562 899.999023438 l 1
 600.000976562 899.999023438 l 1
 409.000976562 899.999023438 l 1
 409.000976562 724.999023438 l 1
 409.000976562 549.999023438 l 1
 443.000976562 549.999023438 l 1
 477.000976562 549.999023438 l 1
 482.000976562 557.999023438 l 2
 505.000976562 595.999023438 542.000976562 618.999023438 591.000976562 624.999023438 c 0
 597.966796875 625.631835938 604.331054688 625.96484375 610.31640625 625.96484375 c 0
 623.233398438 625.96484375 634.384765625 624.416015625 646.001953125 620.999023438 c 0
 697.001953125 606.999023438 732.001953125 558.999023438 738.001953125 495.999023438 c 0
 738.543945312 490.376953125 738.809570312 484.833007812 738.809570312 479.376953125 c 0
 738.809570312 404.287109375 688.311523438 345.915039062 610.001953125 330.999023438 c 0
 603.001953125 329.999023438 591.251953125 329.499023438 579.501953125 329.499023438 c 0
 567.751953125 329.499023438 556.001953125 329.999023438 549.001953125 330.999023438 c 0
 522.001953125 335.999023438 500.001953125 343.999023438 478.001953125 355.999023438 c 0
 454.001953125 369.999023438 434.001953125 387.999023438 417.001953125 409.999023438 c 0
 411.244140625 417.485351562 403.827148438 421.323242188 396.471679688 421.323242188 c 0
 391.052734375 421.323242188 385.66796875 419.241210938 381.001953125 414.999023438 c 0
 375.001953125 408.999023438 364.001953125 392.999023438 363.001953125 388.999023438 c 0
 362.293945312 386.874023438 361.9609375 384.497070312 361.9609375 382.091796875 c 0
 361.9609375 377.70703125 363.064453125 373.228515625 365.000976562 369.999023438 c 0
 369.000976562 363.999023438 392.000976562 339.999023438 404.000976562 329.999023438 c 0
 416.000976562 319.999023438 438.000976562 304.999023438 452.000976562 297.999023438 c 0
 480.000976562 282.999023438 511.000976562 272.999023438 544.000976562 267.999023438 c 0
 551.000976562 266.999023438 564.500976562 266.499023438 578.250976562 266.499023438 c 0
 592.000976562 266.499023438 606.000976562 266.999023438 614.000976562 267.999023438 c 0
 654.000976562 272.999023438 695.000976562 286.999023438 726.000976562 305.999023438 c 0
 773.000976562 334.999023438 808.000976562 378.999023438 822.000976562 425.999023438 c 0
 826.6953125 442.970703125 829.04296875 460.334960938 829.04296875 477.806640625 c 0
 829.04296875 508.71875 821.6953125 539.970703125 807.000976562 569.999023438 c 0
 772.087890625 642.734375 696.733398438 689.135742188 614.685546875 689.135742188 c 0
 612.130859375 689.135742188 609.569335938 689.090820312 607.001953125 689 c 0
 564.001953125 687 528.001953125 675 495.001953125 650 c 0
 490.305664062 646.243164062 484.69140625 640.87890625 483.606445312 640.87890625 c 0
 482.000976562 640.87890625 482.000976562 649.643554688 482.000976562 737 c 2
 482.000976562 834 l 1
 636.000976562 834 l 1
 790.000976562 834 l 1
 790.000976562 867 l 1
EndSplineSet
Validated: 1
EndChar

StartChar: aogonek
Encoding: 10107 10107 55
Width: 1200
GlyphClass: 2
Flags: W
LayerCount: 2
Fore
SplineSet
569 1199 m 0
 584 1200 639 1199 655 1198 c 0
 766 1187 869 1148 957 1082 c 0
 1044 1018 1113 929 1155 830 c 0
 1177 776 1191 716 1198 654 c 0
 1200 629 1200 571 1198 546 c 0
 1190 468 1171 401 1137 334 c 0
 1073 204 963 101 830 45 c 0
 776 23 716 9 654 2 c 0
 629 0 571 0 546 2 c 0
 468 10 401 29 334 63 c 0
 204 127 101 237 45 371 c 0
 23 424 9 484 2 546 c 0
 0 571 0 629 2 654 c 0
 10 732 29 799 63 867 c 0
 127 996 237 1099 371 1155 c 0
 431 1180 500 1195 569 1199 c 0
693 921 m 0
 681 922 652 922 643 921 c 0
 633 920 621 919 609 916 c 0
 495 893 402 797 375 673 c 0
 368 644 366 623 366 591 c 0
 366 485 388 405 431 348 c 0
 466 302 520 273 580 267 c 0
 611 264 653 269 683 279 c 0
 703 285 731 302 750 317 c 0
 797 357 820 394 830 447 c 0
 832 459 833 492 831 508 c 0
 826 561 806 602 764 643 c 0
 721 683 680 700 621 700 c 0
 586 700 558 695 528 682 c 0
 502 671 483 658 461 637 c 2
 451 627 l 1
 451 635 l 2
 454 663 463 700 476 727 c 0
 509 804 572 853 646 861 c 0
 657 862 685 862 699 860 c 0
 713 858 729 854 747 848 c 0
 761 844 764 843 769 843 c 0
 776 844 783 848 786 854 c 0
 789 859 790 859 790 873 c 0
 790 887 789 888 787 892 c 0
 783 899 779 901 763 906 c 0
 738 915 718 919 693 921 c 0
585 636 m 0
 586 637 598 637 610 637 c 0
 635 636 642 635 659 629 c 0
 688 618 718 589 734 558 c 0
 745 535 748 518 748 483 c 0
 748 449 745 433 734 411 c 0
 721 383 690 354 664 341 c 0
 647 334 630 330 607 329 c 0
 577 328 552 335 529 351 c 0
 508 365 493 382 480 410 c 0
 472 426 468 439 462 459 c 0
 459 471 459 472 460 477 c 0
 461 482 461 484 459 492 c 0
 457 504 457 523 459 533 c 0
 467 570 493 601 532 620 c 0
 549 628 565 633 585 636 c 0
EndSplineSet
Validated: 33
EndChar

StartChar: Cacute
Encoding: 10108 10108 56
Width: 1200
GlyphClass: 2
Flags: W
LayerCount: 2
Fore
SplineSet
569 1199 m 0
 573.392578125 1199.29003906 581.21875 1199.41015625 590.490234375 1199.41015625 c 0
 612.873046875 1199.41015625 643.685546875 1198.70996094 655 1198 c 0
 766 1187 869 1148 957 1082 c 0
 1044 1018 1113 929 1155 830 c 0
 1177 776 1191 716 1198 654 c 0
 1199 641.5 1199.5 620.75 1199.5 600 c 0
 1199.5 579.25 1199 558.5 1198 546 c 0
 1190 468 1171 401 1137 334 c 0
 1073 204 963 101 830 45 c 0
 776 23 716 9 654 2 c 0
 641.5 1 620.75 0.5 600 0.5 c 0
 579.25 0.5 558.5 1 546 2 c 0
 468 10 401 29 334 63 c 0
 204 127 101 237 45 371 c 0
 23 424 9 484 2 546 c 0
 1 558.5 0.5 579.25 0.5 600 c 0
 0.5 620.75 1 641.5 2 654 c 0
 10 732 29 799 63 867 c 0
 127 996 237 1099 371 1155 c 0
 431 1180 500 1195 569 1199 c 0
838.000976562 867 m 1
 838.000976562 900 l 1
 599.000976562 900 l 1
 360.000976562 900 l 1
 360.000976562 863 l 1
 360.000976562 827 l 1
 563.000976562 827 l 2
 626.000976562 827.5 676.500976562 827.75 711.250976562 827.75 c 0
 746.000976562 827.75 765.000976562 827.5 765.000976562 827 c 1
 764.000976562 827 758.000976562 822 751.000976562 816 c 0
 594.000976562 691 500.000976562 502 493.000976562 298 c 1
 493.000976562 277 l 1
 535.000976562 277 l 1
 578.000976562 277 l 1
 578.000976562 287 l 2
 578.000976562 293 578.000976562 305 579.000976562 315 c 0
 589.000976562 483 653.000976562 639 765.000976562 763 c 0
 779.000976562 779 812.000976562 812 827.000976562 824 c 2
 838.000976562 834 l 1
 838.000976562 867 l 1
EndSplineSet
Validated: 1
EndChar

StartChar: cacute
Encoding: 10109 10109 57
Width: 1200
GlyphClass: 2
Flags: W
LayerCount: 2
Fore
SplineSet
569 1199 m 0
 584 1200 639 1199 655 1198 c 0
 766 1187 869 1148 957 1082 c 0
 1044 1018 1113 929 1155 830 c 0
 1177 776 1191 716 1198 654 c 0
 1200 629 1200 571 1198 546 c 0
 1190 468 1171 401 1137 334 c 0
 1073 204 963 101 830 45 c 0
 776 23 716 9 654 2 c 0
 629 0 571 0 546 2 c 0
 468 10 401 29 334 63 c 0
 204 127 101 237 45 371 c 0
 23 424 9 484 2 546 c 0
 0 571 0 629 2 654 c 0
 10 732 29 799 63 867 c 0
 127 996 237 1099 371 1155 c 0
 431 1180 500 1195 569 1199 c 0
639 920 m 0
 627 921 586 922 578 921 c 0
 576 921 570 921 564 920 c 0
 504 914 448 887 413 848 c 0
 376 806 366 752 387 710 c 0
 399 686 422 663 449 646 c 0
 466 636 494 624 510 620 c 2
 515 619 l 1
 499 613 l 2
 459 600 428 581 402 555 c 0
 381 533 368 509 362 482 c 0
 360 469 360 442 363 428 c 0
 375 371 415 323 476 294 c 0
 551 257 647 257 723 294 c 0
 783 323 823 371 835 428 c 0
 838 442 838 469 836 482 c 0
 830 509 817 533 796 555 c 0
 770 581 739 600 699 613 c 2
 683 619 l 1
 688 620 l 2
 697 622 715 629 728 635 c 0
 774 657 805 688 817 725 c 0
 828 757 821 797 799 830 c 0
 767 877 708 910 639 920 c 0
573 861 m 0
 586 862 625 861 637 860 c 0
 696 851 734 823 748 779 c 0
 750 772 750 769 750 757 c 0
 750 741 749 733 743 719 c 0
 726 684 689 661 635 652 c 0
 620 650 578 650 563 652 c 0
 540 656 525 660 509 668 c 0
 478 683 458 705 450 735 c 0
 448 741 448 745 448 757 c 0
 448 769 448 772 450 779 c 0
 464 826 507 854 573 861 c 0
582 586 m 0
 589 587 623 586 633 585 c 0
 695 575 739 539 752 489 c 0
 759 459 756 431 743 404 c 0
 736 389 730 381 719 370 c 0
 691 344 648 329 599 329 c 0
 541 329 493 349 466 385 c 0
 460 393 450 413 447 423 c 0
 431 481 455 537 508 566 c 0
 525 575 549 583 569 585 c 0
 574 586 580 586 582 586 c 0
EndSplineSet
Validated: 33
EndChar

StartChar: Ccircumflex
Encoding: 10110 10110 58
Width: 1200
GlyphClass: 2
Flags: W
LayerCount: 2
Fore
SplineSet
569 1199 m 0
 573.392578125 1199.29003906 581.21875 1199.41015625 590.490234375 1199.41015625 c 0
 612.873046875 1199.41015625 643.685546875 1198.70996094 655 1198 c 0
 766 1187 869 1148 957 1082 c 0
 1044 1018 1113 929 1155 830 c 0
 1177 776 1191 716 1198 654 c 0
 1199 641.5 1199.5 620.75 1199.5 600 c 0
 1199.5 579.25 1199 558.5 1198 546 c 0
 1190 468 1171 401 1137 334 c 0
 1073 204 963 101 830 45 c 0
 776 23 716 9 654 2 c 0
 641.5 1 620.75 0.5 600 0.5 c 0
 579.25 0.5 558.5 1 546 2 c 0
 468 10 401 29 334 63 c 0
 204 127 101 237 45 371 c 0
 23 424 9 484 2 546 c 0
 1 558.5 0.5 579.25 0.5 600 c 0
 0.5 620.75 1 641.5 2 654 c 0
 10 732 29 799 63 867 c 0
 127 996 237 1099 371 1155 c 0
 431 1180 500 1195 569 1199 c 0
626.000976562 921 m 0
 620.500976562 921.5 611.5 921.75 602.25 921.75 c 0
 593 921.75 583.5 921.5 577 921 c 0
 535 917 502 906 470 885 c 0
 456 876 450 871 435 858 c 0
 400 826 379 791 371 752 c 0
 369 746 368 735 367 728 c 0
 366.236328125 722.65234375 365.91015625 714.387695312 365.91015625 705.48828125 c 0
 365.91015625 691.08984375 366.764648438 675.034179688 368.000976562 667 c 0
 374.000976562 630 387.000976562 601 411.000976562 570 c 0
 419.000976562 561 441.000976562 538 451.000976562 530 c 0
 488.000976562 501 526.000976562 488 578.000976562 488 c 0
 617.000976562 488 649.000976562 495 682.000976562 512 c 0
 704.000976562 523 725.000976562 538 740.000976562 555 c 2
 748.000976562 563 l 1
 747.000976562 555 l 2
 742.000976562 506 726.000976562 456 702.000976562 420 c 0
 671.000976562 373 630.000976562 343 581.000976562 332 c 0
 572.000976562 330 568.000976562 330 549.000976562 330 c 0
 524.000976562 330 510.000976562 332 494.000976562 337 c 0
 481.000976562 341 462.000976562 351 451.000976562 359 c 0
 436.000976562 369 433.000976562 370 427.000976562 370 c 0
 416.000976562 370 410.000976562 366 401.000976562 351 c 0
 396.000976562 341 396.000976562 340 396.000976562 333 c 0
 396.000976562 321 398.000976562 318 415.000976562 307 c 0
 437.000976562 291 461.000976562 280 484.000976562 274 c 0
 502.682617188 268.74609375 524.772460938 266.217773438 546.688476562 266.217773438 c 0
 562.313476562 266.217773438 577.849609375 267.502929688 592.000976562 270 c 0
 631.000976562 276 670.000976562 293 705.000976562 319 c 0
 719.000976562 330 748.000976562 359 759.000976562 374 c 0
 798.000976562 424 820.000976562 480 829.000976562 546 c 0
 831.000976562 561 831.000976562 567 831.000976562 601 c 0
 831.000976562 622 831.000976562 645 830.000976562 653 c 0
 824.000976562 729 806.000976562 784 775.000976562 832 c 0
 741.000976562 882 688.000976562 914 626.000976562 921 c 0
583 861 m 0
 586.483398438 861.267578125 590.826171875 861.391601562 595.513671875 861.391601562 c 0
 608.318359375 861.391601562 623.678710938 860.463867188 630.999023438 859 c 0
 661.999023438 851 686.999023438 833 705.999023438 805 c 0
 717.999023438 787 730.999023438 755 736.999023438 726 c 0
 738.901367188 720.293945312 739.59765625 717.40234375 739.59765625 715.030273438 c 0
 739.59765625 713.66015625 739.365234375 712.463867188 738.999023438 711 c 0
 737.999023438 707 737.999023438 704 738.999023438 699 c 0
 740.234375 691.590820312 740.859375 684.366210938 740.859375 677.30859375 c 0
 740.859375 655.787109375 735.048828125 635.826171875 723 617 c 0
 703 586 670 564 629 554 c 0
 617 552 615 552 592 552 c 0
 586.404296875 551.78515625 581.6875 551.662109375 577.58203125 551.662109375 c 0
 562.616210938 551.662109375 555.771484375 553.291992188 544 558 c 0
 523 565 503 579 486 599 c 0
 466 621 457 641 452 669 c 0
 450.34765625 677.2578125 449.60546875 692.485351562 449.60546875 707.17578125 c 0
 449.60546875 719.170898438 450.100585938 730.807617188 451 738 c 0
 456 768 468 790 491 814 c 0
 519 843 546 857 583 861 c 0
EndSplineSet
Validated: 1
EndChar

StartChar: ccircumflex
Encoding: 10111 10111 59
Width: 1200
GlyphClass: 2
Flags: W
LayerCount: 2
Fore
SplineSet
569 1199 m 0
 584 1200 639 1199 655 1198 c 0
 766 1187 869 1148 957 1082 c 0
 1044 1018 1113 929 1155 830 c 0
 1177 776 1191 716 1198 654 c 0
 1200 629 1200 571 1198 546 c 0
 1190 468 1171 401 1137 334 c 0
 1073 204 963 101 830 45 c 0
 776 23 716 9 654 2 c 0
 629 0 571 0 546 2 c 0
 468 10 401 29 334 63 c 0
 204 127 101 237 45 371 c 0
 23 424 9 484 2 546 c 0
 0 571 0 629 2 654 c 0
 10 732 29 799 63 867 c 0
 127 996 237 1099 371 1155 c 0
 431 1180 500 1195 569 1199 c 0
486 633 m 1
 486 906 l 1
 476 906 l 1
 467 906 l 1
 459 899 l 2
 427 868 381 851 324 848 c 2
 308 848 l 1
 308 818 l 1
 308 789 l 1
 324 789 l 2
 352 790 379 796 401 804 c 2
 406 806 l 1
 406 583 l 1
 406 360 l 1
 360 360 l 1
 314 360 l 1
 314 331 l 1
 314 301 l 1
 444 301 l 1
 574 301 l 1
 574 331 l 1
 574 360 l 1
 530 360 l 1
 486 360 l 1
 486 633 l 1
802 903 m 0
 791 905 769 907 759 905 c 0
 719 899 683 873 661 833 c 0
 644 804 630 759 624 713 c 0
 614 648 615 529 624 466 c 0
 630 427 641 389 655 361 c 0
 677 318 712 289 754 281 c 0
 763 279 787 279 797 281 c 0
 838 289 873 318 895 361 c 0
 909 389 920 427 926 466 c 0
 935 529 936 648 926 713 c 0
 920 759 906 804 889 833 c 0
 869 869 839 893 802 903 c 0
763 843 m 0
 789 849 815 833 830 803 c 0
 844 774 850 737 853 673 c 0
 854 641 854 525 852 502 c 0
 846 423 834 380 810 357 c 0
 804 350 798 347 791 344 c 0
 783 341 767 341 759 344 c 0
 752 347 746 350 740 357 c 0
 716 380 704 423 698 502 c 0
 696 525 696 641 697 673 c 0
 700 737 706 774 720 803 c 0
 730 824 746 838 763 843 c 0
EndSplineSet
Validated: 33
EndChar

StartChar: Cdotaccent
Encoding: 9451 9451 60
Width: 1200
GlyphClass: 2
Flags: W
LayerCount: 2
Fore
SplineSet
569 1199 m 0
 573.392578125 1199.29003906 581.21875 1199.41015625 590.490234375 1199.41015625 c 0
 612.873046875 1199.41015625 643.685546875 1198.70996094 655 1198 c 0
 766 1187 869 1148 957 1082 c 0
 1044 1018 1113 929 1155 830 c 0
 1177 776 1191 716 1198 654 c 0
 1199 641.5 1199.5 620.75 1199.5 600 c 0
 1199.5 579.25 1199 558.5 1198 546 c 0
 1190 468 1171 401 1137 334 c 0
 1073 204 963 101 830 45 c 0
 776 23 716 9 654 2 c 0
 641.5 1 620.75 0.5 600 0.5 c 0
 579.25 0.5 558.5 1 546 2 c 0
 468 10 401 29 334 63 c 0
 204 127 101 237 45 371 c 0
 23 424 9 484 2 546 c 0
 1 558.5 0.5 579.25 0.5 600 c 0
 0.5 620.75 1 641.5 2 654 c 0
 10 732 29 799 63 867 c 0
 127 996 237 1099 371 1155 c 0
 431 1180 500 1195 569 1199 c 0
486.000976562 633 m 1
 486.000976562 906 l 1
 476.000976562 906 l 1
 467.000976562 906 l 1
 459.000976562 899 l 2
 427.000976562 868 381.000976562 851 324.000976562 848 c 2
 308.000976562 848 l 1
 308.000976562 818 l 1
 308.000976562 789 l 1
 324.000976562 789 l 2
 352.000976562 790 379.000976562 796 401.000976562 804 c 2
 406.000976562 806 l 1
 406.000976562 583 l 1
 406.000976562 360 l 1
 360.000976562 360 l 1
 314.000976562 360 l 1
 314.000976562 331 l 1
 314.000976562 301 l 1
 444.000976562 301 l 1
 574.000976562 301 l 1
 574.000976562 331 l 1
 574.000976562 360 l 1
 530.000976562 360 l 1
 486.000976562 360 l 1
 486.000976562 633 l 1
822.000976562 633 m 1
 822.000976562 906 l 1
 812.000976562 906 l 1
 803.000976562 906 l 1
 795.000976562 899 l 2
 763.000976562 868 717.000976562 851 660.000976562 848 c 2
 644.000976562 848 l 1
 644.000976562 818 l 1
 644.000976562 789 l 1
 660.000976562 789 l 2
 688.000976562 790 715.000976562 796 737.000976562 804 c 2
 742.000976562 806 l 1
 742.000976562 583 l 1
 742.000976562 360 l 1
 696.000976562 360 l 1
 650.000976562 360 l 1
 650.000976562 331 l 1
 650.000976562 301 l 1
 780.000976562 301 l 1
 910.000976562 301 l 1
 910.000976562 331 l 1
 910.000976562 360 l 1
 866.000976562 360 l 1
 822.000976562 360 l 1
 822.000976562 633 l 1
EndSplineSet
Validated: 1
EndChar

StartChar: cdotaccent
Encoding: 9452 9452 61
Width: 1200
GlyphClass: 2
Flags: W
LayerCount: 2
Fore
SplineSet
569 1199 m 0
 584 1200 639 1199 655 1198 c 0
 766 1187 869 1148 957 1082 c 0
 1044 1018 1113 929 1155 830 c 0
 1177 776 1191 716 1198 654 c 0
 1200 629 1200 571 1198 546 c 0
 1190 468 1171 401 1137 334 c 0
 1073 204 963 101 830 45 c 0
 776 23 716 9 654 2 c 0
 629 0 571 0 546 2 c 0
 468 10 401 29 334 63 c 0
 204 127 101 237 45 371 c 0
 23 424 9 484 2 546 c 0
 0 571 0 629 2 654 c 0
 10 732 29 799 63 867 c 0
 127 996 237 1099 371 1155 c 0
 431 1180 500 1195 569 1199 c 0
486 633 m 1
 486 906 l 1
 476 906 l 1
 467 906 l 1
 459 899 l 2
 427 868 381 851 324 848 c 2
 308 848 l 1
 308 818 l 1
 308 789 l 1
 324 789 l 2
 352 790 379 796 401 804 c 2
 406 806 l 1
 406 583 l 1
 406 360 l 1
 360 360 l 1
 314 360 l 1
 314 331 l 1
 314 301 l 1
 444 301 l 1
 574 301 l 1
 574 331 l 1
 574 360 l 1
 530 360 l 1
 486 360 l 1
 486 633 l 1
793 904 m 0
 783 905 755 906 746 905 c 0
 726 902 706 895 691 884 c 0
 675 873 657 852 646 832 c 0
 638 816 628 791 622 767 c 0
 619 754 618 750 620 745 c 0
 621 740 635 720 639 715 c 0
 647 708 657 707 666 712 c 0
 673 716 676 722 679 735 c 0
 680 741 683 753 685 760 c 0
 700 821 720 843 759 841 c 0
 771 840 778 838 789 833 c 0
 816 820 835 784 840 735 c 0
 842 720 842 694 840 681 c 0
 833 638 814 597 777 545 c 0
 763 525 753 513 686 427 c 0
 655 388 629 355 628 353 c 0
 626 350 625 348 625 325 c 2
 625 301 l 1
 775 301 l 1
 925 301 l 1
 925 337 l 1
 925 373 l 1
 824 373 l 1
 722 372 l 1
 745 399 l 2
 813 478 828 496 840 512 c 0
 893 578 918 630 924 687 c 0
 925 700 925 729 923 743 c 0
 918 779 906 813 889 840 c 0
 879 854 860 873 847 882 c 0
 830 893 812 900 793 904 c 0
EndSplineSet
Validated: 33
EndChar

StartChar: Ccaron
Encoding: 9453 9453 62
Width: 1200
GlyphClass: 2
Flags: W
LayerCount: 2
Fore
SplineSet
569 1199 m 0
 573.392578125 1199.29003906 581.21875 1199.41015625 590.490234375 1199.41015625 c 0
 612.873046875 1199.41015625 643.685546875 1198.70996094 655 1198 c 0
 766 1187 869 1148 957 1082 c 0
 1044 1018 1113 929 1155 830 c 0
 1177 776 1191 716 1198 654 c 0
 1199 641.5 1199.5 620.75 1199.5 600 c 0
 1199.5 579.25 1199 558.5 1198 546 c 0
 1190 468 1171 401 1137 334 c 0
 1073 204 963 101 830 45 c 0
 776 23 716 9 654 2 c 0
 641.5 1 620.75 0.5 600 0.5 c 0
 579.25 0.5 558.5 1 546 2 c 0
 468 10 401 29 334 63 c 0
 204 127 101 237 45 371 c 0
 23 424 9 484 2 546 c 0
 1 558.5 0.5 579.25 0.5 600 c 0
 0.5 620.75 1 641.5 2 654 c 0
 10 732 29 799 63 867 c 0
 127 996 237 1099 371 1155 c 0
 431 1180 500 1195 569 1199 c 0
486.000976562 633 m 1
 486.000976562 906 l 1
 476.000976562 906 l 1
 467.000976562 906 l 1
 459.000976562 899 l 2
 427.000976562 868 381.000976562 851 324.000976562 848 c 2
 308.000976562 848 l 1
 308.000976562 818 l 1
 308.000976562 789 l 1
 324.000976562 789 l 2
 352.000976562 790 379.000976562 796 401.000976562 804 c 2
 406.000976562 806 l 1
 406.000976562 583 l 1
 406.000976562 360 l 1
 360.000976562 360 l 1
 314.000976562 360 l 1
 314.000976562 331 l 1
 314.000976562 301 l 1
 444.000976562 301 l 1
 574.000976562 301 l 1
 574.000976562 331 l 1
 574.000976562 360 l 1
 530.000976562 360 l 1
 486.000976562 360 l 1
 486.000976562 633 l 1
797.000976562 903 m 0
 789.84375 904.65234375 779.354492188 905.395507812 769.201171875 905.395507812 c 0
 760.91015625 905.395507812 752.84375 904.900390625 747.000976562 904.000976562 c 0
 700.000976562 897.000976562 660.000976562 868.000976562 638.000976562 825.000976562 c 0
 632.000976562 812.000976562 630.000976562 805.000976562 630.000976562 798.000976562 c 0
 631.000976562 791.000976562 641.000976562 772.000976562 647.000976562 766.000976562 c 0
 651.713867188 761.9609375 656.994140625 760.075195312 662.154296875 760.075195312 c 0
 672.321289062 760.075195312 682.021484375 767.3984375 686.001953125 780.001953125 c 0
 694.001953125 805.001953125 713.001953125 828.001953125 734.001953125 838.001953125 c 0
 745.169921875 843.958007812 758.001953125 847.142578125 768.782226562 847.142578125 c 0
 772.48046875 847.142578125 775.9375 846.767578125 779.002929688 846.001953125 c 0
 798.002929688 841.001953125 813.002929688 825.001953125 821.002929688 804.001953125 c 0
 826.002929688 791.001953125 827.002929688 779.001953125 827.002929688 758.001953125 c 0
 825.002929688 713.001953125 816.002929688 680.001953125 799.002929688 663.001953125 c 0
 789.002929688 653.001953125 784.002929688 652.001953125 755.002929688 649.001953125 c 0
 728.002929688 647.001953125 723.002929688 645.001953125 718.002929688 638.001953125 c 0
 714.002929688 632.001953125 713.002929688 627.001953125 713.002929688 613.001953125 c 0
 713.002929688 602.001953125 714.002929688 601.001953125 717.002929688 596.001953125 c 0
 718.002929688 593.001953125 721.002929688 590.001953125 724.002929688 589.001953125 c 2
 729.002929688 586.001953125 l 1
 753.002929688 585.001953125 l 2
 779.002929688 584.001953125 780.002929688 584.001953125 790.002929688 579.001953125 c 0
 812.002929688 568.001953125 832.002929688 535.001953125 838.002929688 501.001953125 c 0
 840.002929688 488.001953125 841.002929688 475.126953125 841.002929688 462.642578125 c 0
 841.002929688 425.189453125 832.002929688 391.251953125 814.002929688 368.001953125 c 0
 804.002929688 355.001953125 793.002929688 347.001953125 780.002929688 343.001953125 c 0
 774.002929688 341.001953125 771.002929688 341.001953125 762.002929688 341.001953125 c 0
 722.002929688 344.001953125 687.002929688 367.001953125 669.002929688 404.001953125 c 0
 661.767578125 418.470703125 654.533203125 425.185546875 645.219726562 425.185546875 c 0
 642.947265625 425.185546875 640.55078125 424.786132812 638.000976562 424.000976562 c 0
 633.000976562 423.000976562 626.000976562 416.000976562 623.000976562 412.000976562 c 0
 621.000976562 408.000976562 619.000976562 390.000976562 619.000976562 384.000976562 c 0
 620.000976562 378.000976562 626.000976562 364.000976562 636.000976562 350.000976562 c 0
 645.000976562 336.000976562 664.000976562 316.000976562 678.000976562 307.000976562 c 0
 696.000976562 295.000976562 718.000976562 286.000976562 741.000976562 281.000976562 c 0
 746.84375 280.1015625 755.919921875 279.606445312 765.4140625 279.606445312 c 0
 777.041015625 279.606445312 789.293945312 280.348632812 797.000976562 282.000976562 c 0
 816.000976562 286.000976562 835.000976562 294.000976562 853.000976562 306.000976562 c 0
 866.000976562 315.000976562 887.000976562 336.000976562 897.000976562 350.000976562 c 0
 920.002929688 384.50390625 931.0625 422.6796875 931.0625 463.650390625 c 0
 931.0625 465.428710938 931.04296875 467.211914062 931.000976562 469.000976562 c 0
 929.000976562 512.000976562 912.000976562 552.000976562 884.000976562 582.000976562 c 0
 873.000976562 593.000976562 858.000976562 605.000976562 848.000976562 610.000976562 c 2
 842.000976562 613.000976562 l 1
 856.000976562 627.000976562 l 2
 872.000976562 642.000976562 879.000976562 653.000976562 889.000976562 673.000976562 c 0
 902.504882812 701.849609375 909.603515625 734.84375 909.603515625 764.8125 c 0
 909.603515625 783.666992188 906.793945312 801.325195312 901.000976562 816 c 0
 894.000976562 835 885.000976562 848 871.000976562 863 c 0
 850.000976562 884 827.000976562 897 797.000976562 903 c 0
EndSplineSet
Validated: 1
EndChar

StartChar: ccaron
Encoding: 9454 9454 63
Width: 1200
GlyphClass: 2
Flags: W
LayerCount: 2
Fore
SplineSet
569 1199 m 0
 584 1200 639 1199 655 1198 c 0
 766 1187 869 1148 957 1082 c 0
 1044 1018 1113 929 1155 830 c 0
 1177 776 1191 716 1198 654 c 0
 1200 629 1200 571 1198 546 c 0
 1190 468 1171 401 1137 334 c 0
 1073 204 963 101 830 45 c 0
 776 23 716 9 654 2 c 0
 629 0 571 0 546 2 c 0
 468 10 401 29 334 63 c 0
 204 127 101 237 45 371 c 0
 23 424 9 484 2 546 c 0
 0 571 0 629 2 654 c 0
 10 732 29 799 63 867 c 0
 127 996 237 1099 371 1155 c 0
 431 1180 500 1195 569 1199 c 0
486 633 m 1
 486 906 l 1
 476 906 l 1
 467 906 l 1
 459 899 l 2
 427 868 381 851 324 848 c 2
 308 848 l 1
 308 818 l 1
 308 789 l 1
 324 789 l 2
 352 790 379 796 401 804 c 2
 406 806 l 1
 406 583 l 1
 406 360 l 1
 360 360 l 1
 314 360 l 1
 314 331 l 1
 314 301 l 1
 444 301 l 1
 574 301 l 1
 574 331 l 1
 574 360 l 1
 530 360 l 1
 486 360 l 1
 486 633 l 1
877 696 m 1
 877 884 l 1
 833 884 l 1
 788 884 l 1
 699 696 l 1
 609 508 l 1
 609 477 l 1
 609 446 l 1
 703 446 l 1
 797 446 l 1
 797 374 l 1
 797 301 l 1
 837 301 l 1
 877 301 l 1
 877 374 l 1
 877 446 l 1
 909 446 l 1
 941 446 l 1
 941 477 l 1
 941 508 l 1
 909 508 l 1
 877 508 l 1
 877 696 l 1
743 633 m 1
 803 757 l 1
 803 633 l 1
 803 508 l 1
 743 508 l 1
 684 509 l 1
 743 633 l 1
EndSplineSet
Validated: 33
EndChar

StartChar: Dcaron
Encoding: 9455 9455 64
Width: 1200
GlyphClass: 2
Flags: W
LayerCount: 2
Fore
SplineSet
569 1199 m 0
 573.392578125 1199.29003906 581.21875 1199.41015625 590.490234375 1199.41015625 c 0
 612.873046875 1199.41015625 643.685546875 1198.70996094 655 1198 c 0
 766 1187 869 1148 957 1082 c 0
 1044 1018 1113 929 1155 830 c 0
 1177 776 1191 716 1198 654 c 0
 1199 641.5 1199.5 620.75 1199.5 600 c 0
 1199.5 579.25 1199 558.5 1198 546 c 0
 1190 468 1171 401 1137 334 c 0
 1073 204 963 101 830 45 c 0
 776 23 716 9 654 2 c 0
 641.5 1 620.75 0.5 600 0.5 c 0
 579.25 0.5 558.5 1 546 2 c 0
 468 10 401 29 334 63 c 0
 204 127 101 237 45 371 c 0
 23 424 9 484 2 546 c 0
 1 558.5 0.5 579.25 0.5 600 c 0
 0.5 620.75 1 641.5 2 654 c 0
 10 732 29 799 63 867 c 0
 127 996 237 1099 371 1155 c 0
 431 1180 500 1195 569 1199 c 0
486.000976562 633 m 1
 486.000976562 906 l 1
 476.000976562 906 l 1
 467.000976562 906 l 1
 459.000976562 899 l 2
 427.000976562 868 381.000976562 851 324.000976562 848 c 2
 308.000976562 848 l 1
 308.000976562 818 l 1
 308.000976562 789 l 1
 324.000976562 789 l 2
 352.000976562 790 379.000976562 796 401.000976562 804 c 2
 406.000976562 806 l 1
 406.000976562 583 l 1
 406.000976562 360 l 1
 360.000976562 360 l 1
 314.000976562 360 l 1
 314.000976562 331 l 1
 314.000976562 301 l 1
 444.000976562 301 l 1
 574.000976562 301 l 1
 574.000976562 331 l 1
 574.000976562 360 l 1
 530.000976562 360 l 1
 486.000976562 360 l 1
 486.000976562 633 l 1
900.000976562 852 m 1
 900.002929688 884 l 1
 772.002929688 884 l 1
 644.002929688 884 l 1
 644.002929688 716 l 1
 644.002929688 548 l 1
 678.002929688 548 l 1
 712.002929688 548 l 1
 712.002929688 551 l 2
 714.002929688 555 722.002929688 575 725.002929688 581 c 0
 737.002929688 607 757.002929688 621 779.002929688 621 c 0
 791.002929688 621 801.002929688 613 811.002929688 596 c 0
 826.002929688 570 835.002929688 530 835.002929688 483 c 0
 835.002929688 416 813.002929688 365 778.002929688 347 c 0
 768.002929688 342 761.002929688 341 750.002929688 341 c 0
 739.002929688 342 731.002929688 344 720.002929688 349 c 0
 710.002929688 354 705.002929688 358 696.002929688 366 c 0
 684.002929688 377 675.002929688 391 669.002929688 408 c 0
 667.002929688 413 664.002929688 419 663.002929688 420 c 0
 659.002929688 425 651.002929688 429 646.002929688 429 c 0
 634.002929688 429 627.002929688 424 619.002929688 408 c 0
 614.002929688 397 614.002929688 396 614.002929688 390 c 0
 614.002929688 383 614.002929688 381 618.002929688 372 c 0
 627.002929688 352 637.002929688 337 652.002929688 323 c 0
 678.002929688 296 712.002929688 281 749.002929688 279 c 0
 750.602539062 278.950195312 752.1953125 278.924804688 753.780273438 278.924804688 c 0
 783.905273438 278.924804688 811.501953125 287.950195312 840.001953125 306 c 0
 853.001953125 315 875.001953125 337 885.001953125 351 c 0
 900.001953125 372 911.001953125 397 917.001953125 422 c 0
 922.001953125 441 924.001953125 453 925.001953125 474 c 0
 925.088867188 476.885742188 925.1328125 479.763671875 925.1328125 482.633789062 c 0
 925.1328125 545.379882812 904.33984375 603.749023438 868.001953125 642 c 0
 845.001953125 665 824.001953125 677 797.001953125 682 c 0
 792.048828125 682.826171875 786.796875 683.225585938 781.422851562 683.225585938 c 0
 760.759765625 683.225585938 738.287109375 677.317382812 724.001953125 667 c 0
 720.939453125 665.979492188 718.994140625 663.95703125 717.916992188 663.95703125 c 0
 717.000976562 663.95703125 717.000976562 680.780273438 717.000976562 741 c 2
 717.000976562 819 l 1
 809.000976562 819 l 1
 900.000976562 819 l 1
 900.000976562 852 l 1
EndSplineSet
Validated: 1
EndChar

StartChar: dcaron
Encoding: 9456 9456 65
Width: 1200
GlyphClass: 2
Flags: W
LayerCount: 2
Fore
SplineSet
569 1199 m 0
 584 1200 639 1199 655 1198 c 0
 766 1187 869 1148 957 1082 c 0
 1044 1018 1113 929 1155 830 c 0
 1177 776 1191 716 1198 654 c 0
 1200 629 1200 571 1198 546 c 0
 1190 468 1171 401 1137 334 c 0
 1073 204 963 101 830 45 c 0
 776 23 716 9 654 2 c 0
 629 0 571 0 546 2 c 0
 468 10 401 29 334 63 c 0
 204 127 101 237 45 371 c 0
 23 424 9 484 2 546 c 0
 0 571 0 629 2 654 c 0
 10 732 29 799 63 867 c 0
 127 996 237 1099 371 1155 c 0
 431 1180 500 1195 569 1199 c 0
486 633 m 1
 486 906 l 1
 476 906 l 1
 467 906 l 1
 459 899 l 2
 427 868 381 851 324 848 c 2
 308 848 l 1
 308 818 l 1
 308 789 l 1
 324 789 l 2
 352 790 379 796 401 804 c 2
 406 806 l 1
 406 583 l 1
 406 360 l 1
 360 360 l 1
 314 360 l 1
 314 331 l 1
 314 301 l 1
 444 301 l 1
 574 301 l 1
 574 331 l 1
 574 360 l 1
 530 360 l 1
 486 360 l 1
 486 633 l 1
833 905 m 0
 814 907 794 905 775 899 c 0
 761 894 752 890 739 881 c 0
 707 860 682 829 660 786 c 0
 639 744 626 695 621 641 c 0
 619 622 619 545 621 522 c 0
 625 461 635 416 653 375 c 0
 667 342 685 319 710 301 c 0
 720 294 737 285 749 282 c 0
 774 276 805 279 830 291 c 0
 859 305 889 338 909 379 c 0
 920 400 925 420 929 447 c 0
 931 462 931 515 929 532 c 0
 924 568 912 600 891 631 c 0
 862 675 831 694 788 694 c 0
 770 694 756 691 740 684 c 0
 732 681 718 671 711 665 c 2
 705 659 l 1
 706 666 l 2
 711 706 722 745 737 777 c 0
 761 825 789 849 821 847 c 0
 832 846 838 844 848 836 c 0
 852 833 857 831 859 830 c 0
 869 827 880 832 885 840 c 0
 888 845 889 846 889 859 c 0
 889 872 888 873 886 877 c 0
 879 889 853 902 833 905 c 0
764 631 m 0
 767 631 773 632 780 632 c 0
 790 632 792 631 797 629 c 0
 809 623 820 609 830 587 c 0
 843 560 847 541 848 499 c 0
 849 459 846 431 839 410 c 0
 837 405 833 394 829 387 c 0
 817 363 805 349 792 344 c 0
 788 342 784 342 777 342 c 0
 767 342 766 342 761 344 c 0
 742 354 727 381 716 424 c 0
 710 446 706 477 707 482 c 0
 708 483 708 490 707 498 c 0
 705 524 707 554 715 575 c 0
 725 605 741 624 764 631 c 0
EndSplineSet
Validated: 33
EndChar

StartChar: Dcroat
Encoding: 9457 9457 66
Width: 1200
GlyphClass: 2
Flags: W
LayerCount: 2
Fore
SplineSet
569 1199 m 0
 573.392578125 1199.29003906 581.21875 1199.41015625 590.490234375 1199.41015625 c 0
 612.873046875 1199.41015625 643.685546875 1198.70996094 655 1198 c 0
 766 1187 869 1148 957 1082 c 0
 1044 1018 1113 929 1155 830 c 0
 1177 776 1191 716 1198 654 c 0
 1199 641.5 1199.5 620.75 1199.5 600 c 0
 1199.5 579.25 1199 558.5 1198 546 c 0
 1190 468 1171 401 1137 334 c 0
 1073 204 963 101 830 45 c 0
 776 23 716 9 654 2 c 0
 641.5 1 620.75 0.5 600 0.5 c 0
 579.25 0.5 558.5 1 546 2 c 0
 468 10 401 29 334 63 c 0
 204 127 101 237 45 371 c 0
 23 424 9 484 2 546 c 0
 1 558.5 0.5 579.25 0.5 600 c 0
 0.5 620.75 1 641.5 2 654 c 0
 10 732 29 799 63 867 c 0
 127 996 237 1099 371 1155 c 0
 431 1180 500 1195 569 1199 c 0
486.000976562 633 m 1
 486.000976562 906 l 1
 476.000976562 906 l 1
 467.000976562 906 l 1
 459.000976562 899 l 2
 427.000976562 868 381.000976562 851 324.000976562 848 c 2
 308.000976562 848 l 1
 308.000976562 818 l 1
 308.000976562 789 l 1
 324.000976562 789 l 2
 352.000976562 790 379.000976562 796 401.000976562 804 c 2
 406.000976562 806 l 1
 406.000976562 583 l 1
 406.000976562 360 l 1
 360.000976562 360 l 1
 314.000976562 360 l 1
 314.000976562 331 l 1
 314.000976562 301 l 1
 444.000976562 301 l 1
 574.000976562 301 l 1
 574.000976562 331 l 1
 574.000976562 360 l 1
 530.000976562 360 l 1
 486.000976562 360 l 1
 486.000976562 633 l 1
931.000976562 852 m 1
 931.000976562 884 l 1
 775.000976562 884 l 1
 619.000976562 884 l 1
 619.000976562 848 l 1
 619.000976562 812 l 1
 741.000976562 812 l 2
 808.000976562 813 863.000976562 813 863.000976562 813 c 2
 863.000976562 812 859.000976562 807 855.000976562 801 c 0
 829.000976562 765 805.000976562 724 784.000976562 682 c 0
 726.000976562 567 695.000976562 443 691.000976562 313 c 1
 691.000976562 290 l 1
 733.000976562 290 l 1
 776.000976562 290 l 1
 776.000976562 314 l 1
 781.000976562 489 830.000976562 655 921.000976562 802 c 2
 931.000976562 819 l 1
 931.000976562 852 l 1
EndSplineSet
Validated: 1
EndChar

StartChar: dcroat
Encoding: 9458 9458 67
Width: 1200
GlyphClass: 2
Flags: W
LayerCount: 2
Fore
SplineSet
569 1199 m 0
 584 1200 639 1199 655 1198 c 0
 766 1187 869 1148 957 1082 c 0
 1044 1018 1113 929 1155 830 c 0
 1177 776 1191 716 1198 654 c 0
 1200 629 1200 571 1198 546 c 0
 1190 468 1171 401 1137 334 c 0
 1073 204 963 101 830 45 c 0
 776 23 716 9 654 2 c 0
 629 0 571 0 546 2 c 0
 468 10 401 29 334 63 c 0
 204 127 101 237 45 371 c 0
 23 424 9 484 2 546 c 0
 0 571 0 629 2 654 c 0
 10 732 29 799 63 867 c 0
 127 996 237 1099 371 1155 c 0
 431 1180 500 1195 569 1199 c 0
486 633 m 1
 486 906 l 1
 476 906 l 1
 467 906 l 1
 459 899 l 2
 427 868 381 851 324 848 c 2
 308 848 l 1
 308 818 l 1
 308 789 l 1
 324 789 l 2
 352 790 379 796 401 804 c 2
 406 806 l 1
 406 583 l 1
 406 360 l 1
 360 360 l 1
 314 360 l 1
 314 331 l 1
 314 301 l 1
 444 301 l 1
 574 301 l 1
 574 331 l 1
 574 360 l 1
 530 360 l 1
 486 360 l 1
 486 633 l 1
801 904 m 0
 791 905 767 906 758 905 c 0
 707 898 662 862 642 811 c 0
 629 779 627 743 634 712 c 0
 644 673 674 638 711 620 c 0
 716 618 720 616 720 616 c 1
 720 616 716 614 711 612 c 0
 707 609 697 604 691 600 c 0
 676 590 660 574 650 560 c 0
 642 549 632 530 628 518 c 0
 613 474 617 418 639 373 c 0
 649 353 660 337 674 323 c 0
 733 264 817 264 876 323 c 0
 890 337 901 353 911 373 c 0
 925 403 932 437 931 470 c 0
 929 513 912 551 882 581 c 0
 870 593 853 605 839 612 c 0
 834 614 830 616 830 616 c 1
 830 616 834 618 839 620 c 0
 876 638 906 673 916 712 c 0
 923 743 921 779 908 811 c 0
 889 859 848 894 801 904 c 0
761 845 m 0
 776 849 791 847 806 840 c 0
 836 824 851 790 849 739 c 0
 847 702 836 676 817 661 c 0
 791 642 759 642 733 661 c 0
 714 676 703 702 701 739 c 0
 700 781 709 811 729 829 c 0
 737 836 751 844 761 845 c 0
763 583 m 0
 776 586 788 585 802 578 c 0
 826 566 842 539 848 501 c 0
 850 487 850 441 848 428 c 0
 844 398 835 376 820 361 c 0
 806 347 793 342 775 342 c 0
 757 342 744 347 730 361 c 0
 715 376 706 398 702 428 c 0
 700 441 700 487 702 501 c 0
 707 531 717 553 734 568 c 0
 741 575 753 581 763 583 c 0
EndSplineSet
Validated: 33
EndChar

StartChar: Emacron
Encoding: 9459 9459 68
Width: 1200
GlyphClass: 2
Flags: W
LayerCount: 2
Fore
SplineSet
569 1199 m 0
 573.392578125 1199.29003906 581.21875 1199.41015625 590.490234375 1199.41015625 c 0
 612.873046875 1199.41015625 643.685546875 1198.70996094 655 1198 c 0
 766 1187 869 1148 957 1082 c 0
 1044 1018 1113 929 1155 830 c 0
 1177 776 1191 716 1198 654 c 0
 1199 641.5 1199.5 620.75 1199.5 600 c 0
 1199.5 579.25 1199 558.5 1198 546 c 0
 1190 468 1171 401 1137 334 c 0
 1073 204 963 101 830 45 c 0
 776 23 716 9 654 2 c 0
 641.5 1 620.75 0.5 600 0.5 c 0
 579.25 0.5 558.5 1 546 2 c 0
 468 10 401 29 334 63 c 0
 204 127 101 237 45 371 c 0
 23 424 9 484 2 546 c 0
 1 558.5 0.5 579.25 0.5 600 c 0
 0.5 620.75 1 641.5 2 654 c 0
 10 732 29 799 63 867 c 0
 127 996 237 1099 371 1155 c 0
 431 1180 500 1195 569 1199 c 0
486.000976562 633 m 1
 486.000976562 906 l 1
 476.000976562 906 l 1
 467.000976562 906 l 1
 459.000976562 899 l 2
 427.000976562 868 381.000976562 851 324.000976562 848 c 2
 308.000976562 848 l 1
 308.000976562 818 l 1
 308.000976562 789 l 1
 324.000976562 789 l 2
 352.000976562 790 379.000976562 796 401.000976562 804 c 2
 406.000976562 806 l 1
 406.000976562 583 l 1
 406.000976562 360 l 1
 360.000976562 360 l 1
 314.000976562 360 l 1
 314.000976562 331 l 1
 314.000976562 301 l 1
 444.000976562 301 l 1
 574.000976562 301 l 1
 574.000976562 331 l 1
 574.000976562 360 l 1
 530.000976562 360 l 1
 486.000976562 360 l 1
 486.000976562 633 l 1
804.000976562 903 m 0
 796.8984375 904.9375 785.208984375 906.040039062 774.317382812 906.040039062 c 0
 768.342773438 906.040039062 762.607421875 905.70703125 758.001953125 904.999023438 c 0
 724.001953125 898.999023438 697.001953125 882.999023438 672.001953125 852.999023438 c 0
 649.001953125 825.999023438 632.001953125 791.999023438 625.001953125 760.999023438 c 0
 621.001953125 743.999023438 620.001953125 731.999023438 619.001953125 707.999023438 c 0
 618.9609375 705.282226562 618.939453125 702.60546875 618.939453125 699.967773438 c 0
 618.939453125 638.53515625 630.236328125 598.106445312 659.000976562 554 c 0
 680.000976562 522 700.000976562 505 726.000976562 496 c 0
 736.500976562 492.5 749.000976562 490.75 761.625976562 490.75 c 0
 774.250976562 490.75 787.000976562 492.5 798.000976562 496 c 0
 812.000976562 501 828.000976562 510 839.000976562 520 c 2
 845.000976562 526 l 1
 845.000976562 522 l 2
 844.000976562 520 843.000976562 513 842.000976562 507 c 0
 837.000976562 467 827.000976562 431 811.000976562 400 c 0
 796.000976562 370 780.000976562 352 761.000976562 344 c 0
 755.000976562 342 753.000976562 342 743.000976562 342 c 0
 732.000976562 342 729.000976562 342 723.000976562 344 c 0
 714.000976562 347 705.000976562 353 699.000976562 362 c 0
 687.000976562 378 684.000976562 380 674.000976562 380 c 0
 663.000976562 380 657.000976562 376 648.000976562 361 c 0
 644.223632812 353.446289062 642.229492188 348.12109375 642.229492188 343.129882812 c 0
 642.229492188 337.55078125 644.721679688 332.389648438 650.000976562 325 c 0
 661.000976562 311 676.000976562 298 690.000976562 291 c 0
 704.774414062 283.318359375 723.387695312 279.477539062 742.541992188 279.477539062 c 0
 755.801757812 279.477539062 769.319335938 281.318359375 782.000976562 285 c 0
 791.000976562 288 808.000976562 297 819.000976562 304 c 0
 830.000976562 312 850.000976562 333 860.000976562 345 c 0
 885.000976562 380 905.000976562 423 917.000976562 472 c 0
 927.000976562 513 931.000976562 548 931.000976562 600 c 0
 931.000976562 687 922.000976562 749 902.000976562 801 c 0
 890.000976562 831 877.000976562 852 859.000976562 870 c 0
 842.000976562 887 825.000976562 898 804.000976562 903 c 0
767.001953125 845.998046875 m 0
 770.463867188 846.822265625 773.762695312 847.239257812 776.920898438 847.239257812 c 0
 792.919921875 847.239257812 805.309570312 836.546875 817.001953125 813.998046875 c 0
 827.001953125 794.998046875 835.001953125 765.998046875 841.001953125 732.998046875 c 0
 843.001953125 717.998046875 843.001953125 713.998046875 843.001953125 680.998046875 c 0
 843.001953125 646.998046875 843.001953125 643.998046875 841.001953125 632.998046875 c 0
 834.001953125 594.998046875 818.001953125 568.998046875 797.001953125 558.998046875 c 0
 787.001953125 553.998046875 780.001953125 552.998046875 768.001953125 552.998046875 c 0
 756.001953125 553.998046875 749.001953125 556.998046875 742.001953125 564.998046875 c 0
 726.001953125 579.998046875 711.001953125 612.998046875 706.001953125 639.998046875 c 0
 703.501953125 655.998046875 702.251953125 676.998046875 702.251953125 697.873046875 c 0
 702.251953125 718.748046875 703.501953125 739.498046875 706.001953125 754.998046875 c 0
 710.001953125 775.998046875 719.001953125 797.998046875 732.001953125 817.998046875 c 0
 743.001953125 833.998046875 753.001953125 841.998046875 767.001953125 845.998046875 c 0
EndSplineSet
Validated: 1
EndChar

StartChar: emacron
Encoding: 9460 9460 69
Width: 1200
GlyphClass: 2
Flags: W
LayerCount: 2
Fore
SplineSet
569 1199 m 0
 584 1200 639 1199 655 1198 c 0
 766 1187 869 1148 957 1082 c 0
 1044 1018 1113 929 1155 830 c 0
 1177 776 1191 716 1198 654 c 0
 1200 629 1200 571 1198 546 c 0
 1190 468 1171 401 1137 334 c 0
 1073 204 963 101 830 45 c 0
 776 23 716 9 654 2 c 0
 629 0 571 0 546 2 c 0
 468 10 401 29 334 63 c 0
 204 127 101 237 45 371 c 0
 23 424 9 484 2 546 c 0
 0 571 0 629 2 654 c 0
 10 732 29 799 63 867 c 0
 127 996 237 1099 371 1155 c 0
 431 1180 500 1195 569 1199 c 0
457 904 m 0
 447 905 419 906 410 905 c 0
 390 902 370 895 355 884 c 0
 339 873 321 852 310 832 c 0
 302 816 292 791 286 767 c 0
 283 754 282 750 284 745 c 0
 285 740 299 720 303 715 c 0
 311 708 321 707 330 712 c 0
 337 716 340 722 343 735 c 0
 344 741 347 753 349 760 c 0
 364 821 384 843 423 841 c 0
 435 840 442 838 453 833 c 0
 480 820 499 784 504 735 c 0
 506 720 506 694 504 681 c 0
 497 638 478 597 441 545 c 0
 427 525 417 513 350 427 c 0
 319 388 293 355 292 353 c 0
 290 350 289 348 289 325 c 2
 289 301 l 1
 439 301 l 1
 589 301 l 1
 589 337 l 1
 589 373 l 1
 488 373 l 1
 386 372 l 1
 409 399 l 2
 477 478 492 496 504 512 c 0
 557 578 582 630 588 687 c 0
 589 700 589 729 587 743 c 0
 582 779 570 813 553 840 c 0
 543 854 524 873 511 882 c 0
 494 893 476 900 457 904 c 0
802 903 m 0
 791 905 769 907 759 905 c 0
 719 899 683 873 661 833 c 0
 644 804 630 759 624 713 c 0
 614 648 615 529 624 466 c 0
 630 427 641 389 655 361 c 0
 677 318 712 289 754 281 c 0
 763 279 787 279 797 281 c 0
 838 289 873 318 895 361 c 0
 909 389 920 427 926 466 c 0
 935 529 936 648 926 713 c 0
 920 759 906 804 889 833 c 0
 869 869 839 893 802 903 c 0
763 843 m 0
 789 849 815 833 830 803 c 0
 844 774 850 737 853 673 c 0
 854 641 854 525 852 502 c 0
 846 423 834 380 810 357 c 0
 804 350 798 347 791 344 c 0
 783 341 767 341 759 344 c 0
 752 347 746 350 740 357 c 0
 716 380 704 423 698 502 c 0
 696 525 696 641 697 673 c 0
 700 737 706 774 720 803 c 0
 730 824 746 838 763 843 c 0
EndSplineSet
Validated: 33
EndChar

StartChar: Ebreve
Encoding: 276 276 70
Width: 1200
GlyphClass: 2
Flags: W
LayerCount: 2
Fore
SplineSet
569 1199 m 0
 573.392578125 1199.29003906 581.21875 1199.41015625 590.490234375 1199.41015625 c 0
 612.873046875 1199.41015625 643.685546875 1198.70996094 655 1198 c 0
 766 1187 869 1148 957 1082 c 0
 1044 1018 1113 929 1155 830 c 0
 1177 776 1191 716 1198 654 c 0
 1199 641.5 1199.5 620.75 1199.5 600 c 0
 1199.5 579.25 1199 558.5 1198 546 c 0
 1190 468 1171 401 1137 334 c 0
 1073 204 963 101 830 45 c 0
 776 23 716 9 654 2 c 0
 641.5 1 620.75 0.5 600 0.5 c 0
 579.25 0.5 558.5 1 546 2 c 0
 468 10 401 29 334 63 c 0
 204 127 101 237 45 371 c 0
 23 424 9 484 2 546 c 0
 1 558.5 0.5 579.25 0.5 600 c 0
 0.5 620.75 1 641.5 2 654 c 0
 10 732 29 799 63 867 c 0
 127 996 237 1099 371 1155 c 0
 431 1180 500 1195 569 1199 c 0
457.000976562 904 m 0
 449.9296875 904.70703125 433.857421875 905.4140625 421.8671875 905.4140625 c 0
 416.901367188 905.4140625 412.635742188 905.29296875 410 905 c 0
 390 902 370 895 355 884 c 0
 339 873 321 852 310 832 c 0
 302 816 292 791 286 767 c 0
 284.0625 758.60546875 282.958984375 753.963867188 282.958984375 750.3828125 c 0
 282.958984375 748.41796875 283.291992188 746.771484375 284 745.000976562 c 0
 285 740.000976562 299 720.000976562 303 715.000976562 c 0
 311 708.000976562 321 707.000976562 330 712.000976562 c 0
 337 716.000976562 340 722.000976562 343 735.000976562 c 0
 344 741.000976562 347 753.000976562 349 760.000976562 c 0
 363.3828125 818.4921875 382.36328125 841.125 418.282226562 841.125 c 0
 419.823242188 841.125 421.396484375 841.083007812 423.000976562 841.000976562 c 0
 435.000976562 840.000976562 442.000976562 838.000976562 453.000976562 833.000976562 c 0
 480.000976562 820.000976562 499.000976562 784.000976562 504.000976562 735.000976562 c 0
 505.000976562 727.500976562 505.500976562 717.250976562 505.500976562 707.250976562 c 0
 505.500976562 697.250976562 505.000976562 687.500976562 504.000976562 681.000976562 c 0
 497.000976562 638.000976562 478.000976562 597.000976562 441.000976562 545.000976562 c 0
 427.000976562 525.000976562 417.000976562 513.000976562 350.000976562 427.000976562 c 0
 319.000976562 388.000976562 293.000976562 355.000976562 292.000976562 353.000976562 c 0
 290.000976562 350.000976562 289.000976562 348.000976562 289.000976562 325.000976562 c 2
 289.000976562 301.000976562 l 1
 439.000976562 301.000976562 l 1
 589.000976562 301.000976562 l 1
 589.000976562 337.000976562 l 1
 589.000976562 373.000976562 l 1
 488.000976562 373.000976562 l 1
 386.000976562 372.000976562 l 1
 409.000976562 399.000976562 l 2
 477.000976562 478.000976562 492.000976562 496.000976562 504.000976562 512.000976562 c 0
 557.000976562 578.000976562 582.000976562 630.000976562 588.000976562 687.000976562 c 0
 588.415039062 692.385742188 588.658203125 700.515625 588.658203125 709.1875 c 0
 588.658203125 721.451171875 588.172851562 734.798828125 587.000976562 743 c 0
 582.000976562 779 570.000976562 813 553.000976562 840 c 0
 543.000976562 854 524.000976562 873 511.000976562 882 c 0
 494.000976562 893 476.000976562 900 457.000976562 904 c 0
822 633 m 1
 822 906 l 1
 812 906 l 1
 803 906 l 1
 795 899 l 2
 763 868 717 851 660 848 c 2
 644 848 l 1
 644 818 l 1
 644 789 l 1
 660 789 l 2
 688 790 715 796 737 804 c 2
 742 806 l 1
 742 583 l 1
 742 360 l 1
 696 360 l 1
 650 360 l 1
 650 331 l 1
 650 301 l 1
 780 301 l 1
 910 301 l 1
 910 331 l 1
 910 360 l 1
 866 360 l 1
 822 360 l 1
 822 633 l 1
EndSplineSet
Validated: 1
EndChar

StartChar: ebreve
Encoding: 277 277 71
Width: 1200
GlyphClass: 2
Flags: W
LayerCount: 2
Fore
SplineSet
569 1199 m 0
 584 1200 639 1199 655 1198 c 0
 766 1187 869 1148 957 1082 c 0
 1044 1018 1113 929 1155 830 c 0
 1177 776 1191 716 1198 654 c 0
 1200 629 1200 571 1198 546 c 0
 1190 468 1171 401 1137 334 c 0
 1073 204 963 101 830 45 c 0
 776 23 716 9 654 2 c 0
 629 0 571 0 546 2 c 0
 468 10 401 29 334 63 c 0
 204 127 101 237 45 371 c 0
 23 424 9 484 2 546 c 0
 0 571 0 629 2 654 c 0
 10 732 29 799 63 867 c 0
 127 996 237 1099 371 1155 c 0
 431 1180 500 1195 569 1199 c 0
457 904 m 0
 447 905 419 906 410 905 c 0
 390 902 370 895 355 884 c 0
 339 873 321 852 310 832 c 0
 302 816 292 791 286 767 c 0
 283 754 282 750 284 745 c 0
 285 740 299 720 303 715 c 0
 311 708 321 707 330 712 c 0
 337 716 340 722 343 735 c 0
 344 741 347 753 349 760 c 0
 364 821 384 843 423 841 c 0
 435 840 442 838 453 833 c 0
 480 820 499 784 504 735 c 0
 506 720 506 694 504 681 c 0
 497 638 478 597 441 545 c 0
 427 525 417 513 350 427 c 0
 319 388 293 355 292 353 c 0
 290 350 289 348 289 325 c 2
 289 301 l 1
 439 301 l 1
 589 301 l 1
 589 337 l 1
 589 373 l 1
 488 373 l 1
 386 372 l 1
 409 399 l 2
 477 478 492 496 504 512 c 0
 557 578 582 630 588 687 c 0
 589 700 589 729 587 743 c 0
 582 779 570 813 553 840 c 0
 543 854 524 873 511 882 c 0
 494 893 476 900 457 904 c 0
793 904 m 0
 783 905 755 906 746 905 c 0
 726 902 706 895 691 884 c 0
 675 873 657 852 646 832 c 0
 638 816 628 791 622 767 c 0
 619 754 618 750 620 745 c 0
 621 740 635 720 639 715 c 0
 647 708 657 707 666 712 c 0
 673 716 676 722 679 735 c 0
 680 741 683 753 685 760 c 0
 700 821 720 843 759 841 c 0
 771 840 778 838 789 833 c 0
 816 820 835 784 840 735 c 0
 842 720 842 694 840 681 c 0
 833 638 814 597 777 545 c 0
 763 525 753 513 686 427 c 0
 655 388 629 355 628 353 c 0
 626 350 625 348 625 325 c 2
 625 301 l 1
 775 301 l 1
 925 301 l 1
 925 337 l 1
 925 373 l 1
 824 373 l 1
 722 372 l 1
 745 399 l 2
 813 478 828 496 840 512 c 0
 893 578 918 630 924 687 c 0
 925 700 925 729 923 743 c 0
 918 779 906 813 889 840 c 0
 879 854 860 873 847 882 c 0
 830 893 812 900 793 904 c 0
EndSplineSet
Validated: 33
EndChar

StartChar: Edotaccent
Encoding: 278 278 72
Width: 1200
GlyphClass: 2
Flags: W
LayerCount: 2
Fore
SplineSet
569 1199 m 0
 573.392578125 1199.29003906 581.21875 1199.41015625 590.490234375 1199.41015625 c 0
 612.873046875 1199.41015625 643.685546875 1198.70996094 655 1198 c 0
 766 1187 869 1148 957 1082 c 0
 1044 1018 1113 929 1155 830 c 0
 1177 776 1191 716 1198 654 c 0
 1199 641.5 1199.5 620.75 1199.5 600 c 0
 1199.5 579.25 1199 558.5 1198 546 c 0
 1190 468 1171 401 1137 334 c 0
 1073 204 963 101 830 45 c 0
 776 23 716 9 654 2 c 0
 641.5 1 620.75 0.5 600 0.5 c 0
 579.25 0.5 558.5 1 546 2 c 0
 468 10 401 29 334 63 c 0
 204 127 101 237 45 371 c 0
 23 424 9 484 2 546 c 0
 1 558.5 0.5 579.25 0.5 600 c 0
 0.5 620.75 1 641.5 2 654 c 0
 10 732 29 799 63 867 c 0
 127 996 237 1099 371 1155 c 0
 431 1180 500 1195 569 1199 c 0
457.000976562 904 m 0
 449.9296875 904.70703125 433.857421875 905.4140625 421.8671875 905.4140625 c 0
 416.901367188 905.4140625 412.635742188 905.29296875 410 905 c 0
 390 902 370 895 355 884 c 0
 339 873 321 852 310 832 c 0
 302 816 292 791 286 767 c 0
 284.0625 758.60546875 282.958984375 753.963867188 282.958984375 750.3828125 c 0
 282.958984375 748.41796875 283.291992188 746.771484375 284 745.000976562 c 0
 285 740.000976562 299 720.000976562 303 715.000976562 c 0
 311 708.000976562 321 707.000976562 330 712.000976562 c 0
 337 716.000976562 340 722.000976562 343 735.000976562 c 0
 344 741.000976562 347 753.000976562 349 760.000976562 c 0
 363.3828125 818.4921875 382.36328125 841.125 418.282226562 841.125 c 0
 419.823242188 841.125 421.396484375 841.083007812 423.000976562 841.000976562 c 0
 435.000976562 840.000976562 442.000976562 838.000976562 453.000976562 833.000976562 c 0
 480.000976562 820.000976562 499.000976562 784.000976562 504.000976562 735.000976562 c 0
 505.000976562 727.500976562 505.500976562 717.250976562 505.500976562 707.250976562 c 0
 505.500976562 697.250976562 505.000976562 687.500976562 504.000976562 681.000976562 c 0
 497.000976562 638.000976562 478.000976562 597.000976562 441.000976562 545.000976562 c 0
 427.000976562 525.000976562 417.000976562 513.000976562 350.000976562 427.000976562 c 0
 319.000976562 388.000976562 293.000976562 355.000976562 292.000976562 353.000976562 c 0
 290.000976562 350.000976562 289.000976562 348.000976562 289.000976562 325.000976562 c 2
 289.000976562 301.000976562 l 1
 439.000976562 301.000976562 l 1
 589.000976562 301.000976562 l 1
 589.000976562 337.000976562 l 1
 589.000976562 373.000976562 l 1
 488.000976562 373.000976562 l 1
 386.000976562 372.000976562 l 1
 409.000976562 399.000976562 l 2
 477.000976562 478.000976562 492.000976562 496.000976562 504.000976562 512.000976562 c 0
 557.000976562 578.000976562 582.000976562 630.000976562 588.000976562 687.000976562 c 0
 588.415039062 692.385742188 588.658203125 700.515625 588.658203125 709.1875 c 0
 588.658203125 721.451171875 588.172851562 734.798828125 587.000976562 743 c 0
 582.000976562 779 570.000976562 813 553.000976562 840 c 0
 543.000976562 854 524.000976562 873 511.000976562 882 c 0
 494.000976562 893 476.000976562 900 457.000976562 904 c 0
797 903 m 0
 789.842773438 904.65234375 779.354492188 905.395507812 769.201171875 905.395507812 c 0
 760.91015625 905.395507812 752.84375 904.900390625 747.000976562 904.000976562 c 0
 700.000976562 897.000976562 660.000976562 868.000976562 638.000976562 825.000976562 c 0
 632.000976562 812.000976562 630.000976562 805.000976562 630.000976562 798.000976562 c 0
 631.000976562 791.000976562 641.000976562 772.000976562 647.000976562 766.000976562 c 0
 651.713867188 761.9609375 656.994140625 760.075195312 662.154296875 760.075195312 c 0
 672.321289062 760.075195312 682.021484375 767.3984375 686.001953125 780.001953125 c 0
 694.001953125 805.001953125 713.001953125 828.001953125 734.001953125 838.001953125 c 0
 745.169921875 843.958007812 758.001953125 847.142578125 768.782226562 847.142578125 c 0
 772.48046875 847.142578125 775.9375 846.767578125 779.002929688 846.001953125 c 0
 798.002929688 841.001953125 813.002929688 825.001953125 821.002929688 804.001953125 c 0
 826.002929688 791.001953125 827.002929688 779.001953125 827.002929688 758.001953125 c 0
 825.002929688 713.001953125 816.002929688 680.001953125 799.002929688 663.001953125 c 0
 789.002929688 653.001953125 784.002929688 652.001953125 755.002929688 649.001953125 c 0
 728.002929688 647.001953125 723.002929688 645.001953125 718.002929688 638.001953125 c 0
 714.002929688 632.001953125 713.002929688 627.001953125 713.002929688 613.001953125 c 0
 713.002929688 602.001953125 714.002929688 601.001953125 717.002929688 596.001953125 c 0
 718.002929688 593.001953125 721.002929688 590.001953125 724.002929688 589.001953125 c 2
 729.002929688 586.001953125 l 1
 753.002929688 585.001953125 l 2
 779.002929688 584.001953125 780.002929688 584.001953125 790.002929688 579.001953125 c 0
 812.002929688 568.001953125 832.002929688 535.001953125 838.002929688 501.001953125 c 0
 840.002929688 488.001953125 841.002929688 475.126953125 841.002929688 462.642578125 c 0
 841.002929688 425.189453125 832.002929688 391.251953125 814.002929688 368.001953125 c 0
 804.002929688 355.001953125 793.002929688 347.001953125 780.002929688 343.001953125 c 0
 774.002929688 341.001953125 771.002929688 341.001953125 762.002929688 341.001953125 c 0
 722.002929688 344.001953125 687.002929688 367.001953125 669.002929688 404.001953125 c 0
 661.767578125 418.470703125 654.533203125 425.185546875 645.219726562 425.185546875 c 0
 642.947265625 425.185546875 640.55078125 424.786132812 638.000976562 424.000976562 c 0
 633.000976562 423.000976562 626.000976562 416.000976562 623.000976562 412.000976562 c 0
 621.000976562 408.000976562 619.000976562 390.000976562 619.000976562 384.000976562 c 0
 620.000976562 378.000976562 626.000976562 364.000976562 636.000976562 350.000976562 c 0
 645.000976562 336.000976562 664.000976562 316.000976562 678.000976562 307.000976562 c 0
 696.000976562 295.000976562 718.000976562 286.000976562 741.000976562 281.000976562 c 0
 746.84375 280.1015625 755.919921875 279.606445312 765.4140625 279.606445312 c 0
 777.041015625 279.606445312 789.293945312 280.348632812 797.000976562 282.000976562 c 0
 816.000976562 286.000976562 835.000976562 294.000976562 853.000976562 306.000976562 c 0
 866.000976562 315.000976562 887.000976562 336.000976562 897.000976562 350.000976562 c 0
 920.002929688 384.50390625 931.0625 422.6796875 931.0625 463.650390625 c 0
 931.0625 465.428710938 931.041992188 467.211914062 931 469.000976562 c 0
 929 512.000976562 912 552.000976562 884 582.000976562 c 0
 873 593.000976562 858 605.000976562 848 610.000976562 c 2
 842 613.000976562 l 1
 856 627.000976562 l 2
 872 642.000976562 879 653.000976562 889 673.000976562 c 0
 902.50390625 701.849609375 909.602539062 734.84375 909.602539062 764.8125 c 0
 909.602539062 783.666992188 906.79296875 801.325195312 901 816 c 0
 894 835 885 848 871 863 c 0
 850 884 827 897 797 903 c 0
EndSplineSet
Validated: 1
EndChar

StartChar: edotaccent
Encoding: 279 279 73
Width: 1200
GlyphClass: 2
Flags: W
LayerCount: 2
Fore
SplineSet
569 1199 m 0
 584 1200 639 1199 655 1198 c 0
 766 1187 869 1148 957 1082 c 0
 1044 1018 1113 929 1155 830 c 0
 1177 776 1191 716 1198 654 c 0
 1200 629 1200 571 1198 546 c 0
 1190 468 1171 401 1137 334 c 0
 1073 204 963 101 830 45 c 0
 776 23 716 9 654 2 c 0
 629 0 571 0 546 2 c 0
 468 10 401 29 334 63 c 0
 204 127 101 237 45 371 c 0
 23 424 9 484 2 546 c 0
 0 571 0 629 2 654 c 0
 10 732 29 799 63 867 c 0
 127 996 237 1099 371 1155 c 0
 431 1180 500 1195 569 1199 c 0
457 904 m 0
 447 905 419 906 410 905 c 0
 390 902 370 895 355 884 c 0
 339 873 321 852 310 832 c 0
 302 816 292 791 286 767 c 0
 283 754 282 750 284 745 c 0
 285 740 299 720 303 715 c 0
 311 708 321 707 330 712 c 0
 337 716 340 722 343 735 c 0
 344 741 347 753 349 760 c 0
 364 821 384 843 423 841 c 0
 435 840 442 838 453 833 c 0
 480 820 499 784 504 735 c 0
 506 720 506 694 504 681 c 0
 497 638 478 597 441 545 c 0
 427 525 417 513 350 427 c 0
 319 388 293 355 292 353 c 0
 290 350 289 348 289 325 c 2
 289 301 l 1
 439 301 l 1
 589 301 l 1
 589 337 l 1
 589 373 l 1
 488 373 l 1
 386 372 l 1
 409 399 l 2
 477 478 492 496 504 512 c 0
 557 578 582 630 588 687 c 0
 589 700 589 729 587 743 c 0
 582 779 570 813 553 840 c 0
 543 854 524 873 511 882 c 0
 494 893 476 900 457 904 c 0
877 696 m 1
 877 884 l 1
 833 884 l 1
 788 884 l 1
 699 696 l 1
 609 508 l 1
 609 477 l 1
 609 446 l 1
 703 446 l 1
 797 446 l 1
 797 374 l 1
 797 301 l 1
 837 301 l 1
 877 301 l 1
 877 374 l 1
 877 446 l 1
 909 446 l 1
 941 446 l 1
 941 477 l 1
 941 508 l 1
 909 508 l 1
 877 508 l 1
 877 696 l 1
743 633 m 1
 803 757 l 1
 803 633 l 1
 803 508 l 1
 743 508 l 1
 684 509 l 1
 743 633 l 1
EndSplineSet
Validated: 33
EndChar

StartChar: Eogonek
Encoding: 280 280 74
Width: 1200
GlyphClass: 2
Flags: W
LayerCount: 2
Fore
SplineSet
569 1199 m 0
 573.392578125 1199.29003906 581.21875 1199.41015625 590.490234375 1199.41015625 c 0
 612.873046875 1199.41015625 643.685546875 1198.70996094 655 1198 c 0
 766 1187 869 1148 957 1082 c 0
 1044 1018 1113 929 1155 830 c 0
 1177 776 1191 716 1198 654 c 0
 1199 641.5 1199.5 620.75 1199.5 600 c 0
 1199.5 579.25 1199 558.5 1198 546 c 0
 1190 468 1171 401 1137 334 c 0
 1073 204 963 101 830 45 c 0
 776 23 716 9 654 2 c 0
 641.5 1 620.75 0.5 600 0.5 c 0
 579.25 0.5 558.5 1 546 2 c 0
 468 10 401 29 334 63 c 0
 204 127 101 237 45 371 c 0
 23 424 9 484 2 546 c 0
 1 558.5 0.5 579.25 0.5 600 c 0
 0.5 620.75 1 641.5 2 654 c 0
 10 732 29 799 63 867 c 0
 127 996 237 1099 371 1155 c 0
 431 1180 500 1195 569 1199 c 0
457.000976562 904 m 0
 449.9296875 904.70703125 433.857421875 905.4140625 421.8671875 905.4140625 c 0
 416.901367188 905.4140625 412.635742188 905.29296875 410 905 c 0
 390 902 370 895 355 884 c 0
 339 873 321 852 310 832 c 0
 302 816 292 791 286 767 c 0
 284.0625 758.60546875 282.958984375 753.963867188 282.958984375 750.3828125 c 0
 282.958984375 748.41796875 283.291992188 746.771484375 284 745.000976562 c 0
 285 740.000976562 299 720.000976562 303 715.000976562 c 0
 311 708.000976562 321 707.000976562 330 712.000976562 c 0
 337 716.000976562 340 722.000976562 343 735.000976562 c 0
 344 741.000976562 347 753.000976562 349 760.000976562 c 0
 363.3828125 818.4921875 382.36328125 841.125 418.282226562 841.125 c 0
 419.823242188 841.125 421.396484375 841.083007812 423.000976562 841.000976562 c 0
 435.000976562 840.000976562 442.000976562 838.000976562 453.000976562 833.000976562 c 0
 480.000976562 820.000976562 499.000976562 784.000976562 504.000976562 735.000976562 c 0
 505.000976562 727.500976562 505.500976562 717.250976562 505.500976562 707.250976562 c 0
 505.500976562 697.250976562 505.000976562 687.500976562 504.000976562 681.000976562 c 0
 497.000976562 638.000976562 478.000976562 597.000976562 441.000976562 545.000976562 c 0
 427.000976562 525.000976562 417.000976562 513.000976562 350.000976562 427.000976562 c 0
 319.000976562 388.000976562 293.000976562 355.000976562 292.000976562 353.000976562 c 0
 290.000976562 350.000976562 289.000976562 348.000976562 289.000976562 325.000976562 c 2
 289.000976562 301.000976562 l 1
 439.000976562 301.000976562 l 1
 589.000976562 301.000976562 l 1
 589.000976562 337.000976562 l 1
 589.000976562 373.000976562 l 1
 488.000976562 373.000976562 l 1
 386.000976562 372.000976562 l 1
 409.000976562 399.000976562 l 2
 477.000976562 478.000976562 492.000976562 496.000976562 504.000976562 512.000976562 c 0
 557.000976562 578.000976562 582.000976562 630.000976562 588.000976562 687.000976562 c 0
 588.415039062 692.385742188 588.658203125 700.515625 588.658203125 709.1875 c 0
 588.658203125 721.451171875 588.172851562 734.798828125 587.000976562 743 c 0
 582.000976562 779 570.000976562 813 553.000976562 840 c 0
 543.000976562 854 524.000976562 873 511.000976562 882 c 0
 494.000976562 893 476.000976562 900 457.000976562 904 c 0
900 852 m 1
 900.000976562 884 l 1
 772.000976562 884 l 1
 644.000976562 884 l 1
 644.000976562 716 l 1
 644.000976562 548 l 1
 678.000976562 548 l 1
 712.000976562 548 l 1
 712.000976562 551 l 2
 714.000976562 555 722.000976562 575 725.000976562 581 c 0
 737.000976562 607 757.000976562 621 779.000976562 621 c 0
 791.000976562 621 801.000976562 613 811.000976562 596 c 0
 826.000976562 570 835.000976562 530 835.000976562 483 c 0
 835.000976562 416 813.000976562 365 778.000976562 347 c 0
 768.000976562 342 761.000976562 341 750.000976562 341 c 0
 739.000976562 342 731.000976562 344 720.000976562 349 c 0
 710.000976562 354 705.000976562 358 696.000976562 366 c 0
 684.000976562 377 675.000976562 391 669.000976562 408 c 0
 667.000976562 413 664.000976562 419 663.000976562 420 c 0
 659.000976562 425 651.000976562 429 646.000976562 429 c 0
 634.000976562 429 627.000976562 424 619.000976562 408 c 0
 614.000976562 397 614.000976562 396 614.000976562 390 c 0
 614.000976562 383 614.000976562 381 618.000976562 372 c 0
 627.000976562 352 637.000976562 337 652.000976562 323 c 0
 678.000976562 296 712.000976562 281 749.000976562 279 c 0
 750.600585938 278.950195312 752.193359375 278.924804688 753.778320312 278.924804688 c 0
 783.903320312 278.924804688 811.5 287.950195312 840 306 c 0
 853 315 875 337 885 351 c 0
 900 372 911 397 917 422 c 0
 922 441 924 453 925 474 c 0
 925.086914062 476.885742188 925.130859375 479.763671875 925.130859375 482.633789062 c 0
 925.130859375 545.379882812 904.337890625 603.749023438 868 642 c 0
 845 665 824 677 797 682 c 0
 792.046875 682.826171875 786.794921875 683.225585938 781.420898438 683.225585938 c 0
 760.7578125 683.225585938 738.28515625 677.317382812 724 667 c 0
 720.938476562 665.979492188 718.993164062 663.95703125 717.916015625 663.95703125 c 0
 717 663.95703125 717 680.780273438 717 741 c 2
 717 819 l 1
 809 819 l 1
 900 819 l 1
 900 852 l 1
EndSplineSet
Validated: 1
EndChar

StartChar: eogonek
Encoding: 281 281 75
Width: 1200
GlyphClass: 2
Flags: W
LayerCount: 2
Fore
SplineSet
569 1199 m 0
 584 1200 639 1199 655 1198 c 0
 766 1187 869 1148 957 1082 c 0
 1044 1018 1113 929 1155 830 c 0
 1177 776 1191 716 1198 654 c 0
 1200 629 1200 571 1198 546 c 0
 1190 468 1171 401 1137 334 c 0
 1073 204 963 101 830 45 c 0
 776 23 716 9 654 2 c 0
 629 0 571 0 546 2 c 0
 468 10 401 29 334 63 c 0
 204 127 101 237 45 371 c 0
 23 424 9 484 2 546 c 0
 0 571 0 629 2 654 c 0
 10 732 29 799 63 867 c 0
 127 996 237 1099 371 1155 c 0
 431 1180 500 1195 569 1199 c 0
457 904 m 0
 447 905 419 906 410 905 c 0
 390 902 370 895 355 884 c 0
 339 873 321 852 310 832 c 0
 302 816 292 791 286 767 c 0
 283 754 282 750 284 745 c 0
 285 740 299 720 303 715 c 0
 311 708 321 707 330 712 c 0
 337 716 340 722 343 735 c 0
 344 741 347 753 349 760 c 0
 364 821 384 843 423 841 c 0
 435 840 442 838 453 833 c 0
 480 820 499 784 504 735 c 0
 506 720 506 694 504 681 c 0
 497 638 478 597 441 545 c 0
 427 525 417 513 350 427 c 0
 319 388 293 355 292 353 c 0
 290 350 289 348 289 325 c 2
 289 301 l 1
 439 301 l 1
 589 301 l 1
 589 337 l 1
 589 373 l 1
 488 373 l 1
 386 372 l 1
 409 399 l 2
 477 478 492 496 504 512 c 0
 557 578 582 630 588 687 c 0
 589 700 589 729 587 743 c 0
 582 779 570 813 553 840 c 0
 543 854 524 873 511 882 c 0
 494 893 476 900 457 904 c 0
833 905 m 0
 814 907 794 905 775 899 c 0
 761 894 752 890 739 881 c 0
 707 860 682 829 660 786 c 0
 639 744 626 695 621 641 c 0
 619 622 619 545 621 522 c 0
 625 461 635 416 653 375 c 0
 667 342 685 319 710 301 c 0
 720 294 737 285 749 282 c 0
 774 276 805 279 830 291 c 0
 859 305 889 338 909 379 c 0
 920 400 925 420 929 447 c 0
 931 462 931 515 929 532 c 0
 924 568 912 600 891 631 c 0
 862 675 831 694 788 694 c 0
 770 694 756 691 740 684 c 0
 732 681 718 671 711 665 c 2
 705 659 l 1
 706 666 l 2
 711 706 722 745 737 777 c 0
 761 825 789 849 821 847 c 0
 832 846 838 844 848 836 c 0
 852 833 857 831 859 830 c 0
 869 827 880 832 885 840 c 0
 888 845 889 846 889 859 c 0
 889 872 888 873 886 877 c 0
 879 889 853 902 833 905 c 0
764 631 m 0
 767 631 773 632 780 632 c 0
 790 632 792 631 797 629 c 0
 809 623 820 609 830 587 c 0
 843 560 847 541 848 499 c 0
 849 459 846 431 839 410 c 0
 837 405 833 394 829 387 c 0
 817 363 805 349 792 344 c 0
 788 342 784 342 777 342 c 0
 767 342 766 342 761 344 c 0
 742 354 727 381 716 424 c 0
 710 446 706 477 707 482 c 0
 708 483 708 490 707 498 c 0
 705 524 707 554 715 575 c 0
 725 605 741 624 764 631 c 0
EndSplineSet
Validated: 33
EndChar

StartChar: Ecaron
Encoding: 282 282 76
Width: 1200
GlyphClass: 2
Flags: W
LayerCount: 2
Fore
SplineSet
569 1199 m 0
 573.392578125 1199.29003906 581.21875 1199.41015625 590.490234375 1199.41015625 c 0
 612.873046875 1199.41015625 643.685546875 1198.70996094 655 1198 c 0
 766 1187 869 1148 957 1082 c 0
 1044 1018 1113 929 1155 830 c 0
 1177 776 1191 716 1198 654 c 0
 1199 641.5 1199.5 620.75 1199.5 600 c 0
 1199.5 579.25 1199 558.5 1198 546 c 0
 1190 468 1171 401 1137 334 c 0
 1073 204 963 101 830 45 c 0
 776 23 716 9 654 2 c 0
 641.5 1 620.75 0.5 600 0.5 c 0
 579.25 0.5 558.5 1 546 2 c 0
 468 10 401 29 334 63 c 0
 204 127 101 237 45 371 c 0
 23 424 9 484 2 546 c 0
 1 558.5 0.5 579.25 0.5 600 c 0
 0.5 620.75 1 641.5 2 654 c 0
 10 732 29 799 63 867 c 0
 127 996 237 1099 371 1155 c 0
 431 1180 500 1195 569 1199 c 0
457.000976562 904 m 0
 449.9296875 904.70703125 433.857421875 905.4140625 421.8671875 905.4140625 c 0
 416.901367188 905.4140625 412.635742188 905.29296875 410 905 c 0
 390 902 370 895 355 884 c 0
 339 873 321 852 310 832 c 0
 302 816 292 791 286 767 c 0
 284.0625 758.60546875 282.958984375 753.963867188 282.958984375 750.3828125 c 0
 282.958984375 748.41796875 283.291992188 746.771484375 284 745.000976562 c 0
 285 740.000976562 299 720.000976562 303 715.000976562 c 0
 311 708.000976562 321 707.000976562 330 712.000976562 c 0
 337 716.000976562 340 722.000976562 343 735.000976562 c 0
 344 741.000976562 347 753.000976562 349 760.000976562 c 0
 363.3828125 818.4921875 382.36328125 841.125 418.282226562 841.125 c 0
 419.823242188 841.125 421.396484375 841.083007812 423.000976562 841.000976562 c 0
 435.000976562 840.000976562 442.000976562 838.000976562 453.000976562 833.000976562 c 0
 480.000976562 820.000976562 499.000976562 784.000976562 504.000976562 735.000976562 c 0
 505.000976562 727.500976562 505.500976562 717.250976562 505.500976562 707.250976562 c 0
 505.500976562 697.250976562 505.000976562 687.500976562 504.000976562 681.000976562 c 0
 497.000976562 638.000976562 478.000976562 597.000976562 441.000976562 545.000976562 c 0
 427.000976562 525.000976562 417.000976562 513.000976562 350.000976562 427.000976562 c 0
 319.000976562 388.000976562 293.000976562 355.000976562 292.000976562 353.000976562 c 0
 290.000976562 350.000976562 289.000976562 348.000976562 289.000976562 325.000976562 c 2
 289.000976562 301.000976562 l 1
 439.000976562 301.000976562 l 1
 589.000976562 301.000976562 l 1
 589.000976562 337.000976562 l 1
 589.000976562 373.000976562 l 1
 488.000976562 373.000976562 l 1
 386.000976562 372.000976562 l 1
 409.000976562 399.000976562 l 2
 477.000976562 478.000976562 492.000976562 496.000976562 504.000976562 512.000976562 c 0
 557.000976562 578.000976562 582.000976562 630.000976562 588.000976562 687.000976562 c 0
 588.415039062 692.385742188 588.658203125 700.515625 588.658203125 709.1875 c 0
 588.658203125 721.451171875 588.172851562 734.798828125 587.000976562 743 c 0
 582.000976562 779 570.000976562 813 553.000976562 840 c 0
 543.000976562 854 524.000976562 873 511.000976562 882 c 0
 494.000976562 893 476.000976562 900 457.000976562 904 c 0
931 852 m 1
 931 884 l 1
 775 884 l 1
 619 884 l 1
 619 848 l 1
 619 812 l 1
 741 812 l 2
 808 813 863 813 863 813 c 2
 863 812 859 807 855 801 c 0
 829 765 805 724 784 682 c 0
 726 567 695 443 691 313 c 1
 691 290 l 1
 733 290 l 1
 776 290 l 1
 776 314 l 1
 781 489 830 655 921 802 c 2
 931 819 l 1
 931 852 l 1
EndSplineSet
Validated: 1
EndChar

StartChar: ecaron
Encoding: 283 283 77
Width: 1200
GlyphClass: 2
Flags: W
LayerCount: 2
Fore
SplineSet
569 1199 m 0
 584 1200 639 1199 655 1198 c 0
 766 1187 869 1148 957 1082 c 0
 1044 1018 1113 929 1155 830 c 0
 1177 776 1191 716 1198 654 c 0
 1200 629 1200 571 1198 546 c 0
 1190 468 1171 401 1137 334 c 0
 1073 204 963 101 830 45 c 0
 776 23 716 9 654 2 c 0
 629 0 571 0 546 2 c 0
 468 10 401 29 334 63 c 0
 204 127 101 237 45 371 c 0
 23 424 9 484 2 546 c 0
 0 571 0 629 2 654 c 0
 10 732 29 799 63 867 c 0
 127 996 237 1099 371 1155 c 0
 431 1180 500 1195 569 1199 c 0
457 904 m 0
 447 905 419 906 410 905 c 0
 390 902 370 895 355 884 c 0
 339 873 321 852 310 832 c 0
 302 816 292 791 286 767 c 0
 283 754 282 750 284 745 c 0
 285 740 299 720 303 715 c 0
 311 708 321 707 330 712 c 0
 337 716 340 722 343 735 c 0
 344 741 347 753 349 760 c 0
 364 821 384 843 423 841 c 0
 435 840 442 838 453 833 c 0
 480 820 499 784 504 735 c 0
 506 720 506 694 504 681 c 0
 497 638 478 597 441 545 c 0
 427 525 417 513 350 427 c 0
 319 388 293 355 292 353 c 0
 290 350 289 348 289 325 c 2
 289 301 l 1
 439 301 l 1
 589 301 l 1
 589 337 l 1
 589 373 l 1
 488 373 l 1
 386 372 l 1
 409 399 l 2
 477 478 492 496 504 512 c 0
 557 578 582 630 588 687 c 0
 589 700 589 729 587 743 c 0
 582 779 570 813 553 840 c 0
 543 854 524 873 511 882 c 0
 494 893 476 900 457 904 c 0
801 904 m 0
 791 905 767 906 758 905 c 0
 707 898 662 862 642 811 c 0
 629 779 627 743 634 712 c 0
 644 673 674 638 711 620 c 0
 716 618 720 616 720 616 c 1
 720 616 716 614 711 612 c 0
 707 609 697 604 691 600 c 0
 676 590 660 574 650 560 c 0
 642 549 632 530 628 518 c 0
 613 474 617 418 639 373 c 0
 649 353 660 337 674 323 c 0
 733 264 817 264 876 323 c 0
 890 337 901 353 911 373 c 0
 925 403 932 437 931 470 c 0
 929 513 912 551 882 581 c 0
 870 593 853 605 839 612 c 0
 834 614 830 616 830 616 c 1
 830 616 834 618 839 620 c 0
 876 638 906 673 916 712 c 0
 923 743 921 779 908 811 c 0
 889 859 848 894 801 904 c 0
761 845 m 0
 776 849 791 847 806 840 c 0
 836 824 851 790 849 739 c 0
 847 702 836 676 817 661 c 0
 791 642 759 642 733 661 c 0
 714 676 703 702 701 739 c 0
 700 781 709 811 729 829 c 0
 737 836 751 844 761 845 c 0
763 583 m 0
 776 586 788 585 802 578 c 0
 826 566 842 539 848 501 c 0
 850 487 850 441 848 428 c 0
 844 398 835 376 820 361 c 0
 806 347 793 342 775 342 c 0
 757 342 744 347 730 361 c 0
 715 376 706 398 702 428 c 0
 700 441 700 487 702 501 c 0
 707 531 717 553 734 568 c 0
 741 575 753 581 763 583 c 0
EndSplineSet
Validated: 33
EndChar

StartChar: Gcircumflex
Encoding: 284 284 78
Width: 1200
GlyphClass: 2
Flags: W
LayerCount: 2
Fore
SplineSet
569 1199 m 0
 573.392578125 1199.29003906 581.21875 1199.41015625 590.490234375 1199.41015625 c 0
 612.873046875 1199.41015625 643.685546875 1198.70996094 655 1198 c 0
 766 1187 869 1148 957 1082 c 0
 1044 1018 1113 929 1155 830 c 0
 1177 776 1191 716 1198 654 c 0
 1199 641.5 1199.5 620.75 1199.5 600 c 0
 1199.5 579.25 1199 558.5 1198 546 c 0
 1190 468 1171 401 1137 334 c 0
 1073 204 963 101 830 45 c 0
 776 23 716 9 654 2 c 0
 641.5 1 620.75 0.5 600 0.5 c 0
 579.25 0.5 558.5 1 546 2 c 0
 468 10 401 29 334 63 c 0
 204 127 101 237 45 371 c 0
 23 424 9 484 2 546 c 0
 1 558.5 0.5 579.25 0.5 600 c 0
 0.5 620.75 1 641.5 2 654 c 0
 10 732 29 799 63 867 c 0
 127 996 237 1099 371 1155 c 0
 431 1180 500 1195 569 1199 c 0
457.000976562 904 m 0
 449.9296875 904.70703125 433.857421875 905.4140625 421.8671875 905.4140625 c 0
 416.901367188 905.4140625 412.635742188 905.29296875 410 905 c 0
 390 902 370 895 355 884 c 0
 339 873 321 852 310 832 c 0
 302 816 292 791 286 767 c 0
 284.0625 758.60546875 282.958984375 753.963867188 282.958984375 750.3828125 c 0
 282.958984375 748.41796875 283.291992188 746.771484375 284 745.000976562 c 0
 285 740.000976562 299 720.000976562 303 715.000976562 c 0
 311 708.000976562 321 707.000976562 330 712.000976562 c 0
 337 716.000976562 340 722.000976562 343 735.000976562 c 0
 344 741.000976562 347 753.000976562 349 760.000976562 c 0
 363.3828125 818.4921875 382.36328125 841.125 418.282226562 841.125 c 0
 419.823242188 841.125 421.396484375 841.083007812 423.000976562 841.000976562 c 0
 435.000976562 840.000976562 442.000976562 838.000976562 453.000976562 833.000976562 c 0
 480.000976562 820.000976562 499.000976562 784.000976562 504.000976562 735.000976562 c 0
 505.000976562 727.500976562 505.500976562 717.250976562 505.500976562 707.250976562 c 0
 505.500976562 697.250976562 505.000976562 687.500976562 504.000976562 681.000976562 c 0
 497.000976562 638.000976562 478.000976562 597.000976562 441.000976562 545.000976562 c 0
 427.000976562 525.000976562 417.000976562 513.000976562 350.000976562 427.000976562 c 0
 319.000976562 388.000976562 293.000976562 355.000976562 292.000976562 353.000976562 c 0
 290.000976562 350.000976562 289.000976562 348.000976562 289.000976562 325.000976562 c 2
 289.000976562 301.000976562 l 1
 439.000976562 301.000976562 l 1
 589.000976562 301.000976562 l 1
 589.000976562 337.000976562 l 1
 589.000976562 373.000976562 l 1
 488.000976562 373.000976562 l 1
 386.000976562 372.000976562 l 1
 409.000976562 399.000976562 l 2
 477.000976562 478.000976562 492.000976562 496.000976562 504.000976562 512.000976562 c 0
 557.000976562 578.000976562 582.000976562 630.000976562 588.000976562 687.000976562 c 0
 588.415039062 692.385742188 588.658203125 700.515625 588.658203125 709.1875 c 0
 588.658203125 721.451171875 588.172851562 734.798828125 587.000976562 743 c 0
 582.000976562 779 570.000976562 813 553.000976562 840 c 0
 543.000976562 854 524.000976562 873 511.000976562 882 c 0
 494.000976562 893 476.000976562 900 457.000976562 904 c 0
804 903 m 0
 796.897460938 904.9375 785.20703125 906.040039062 774.315429688 906.040039062 c 0
 768.340820312 906.040039062 762.60546875 905.70703125 758 904.999023438 c 0
 724 898.999023438 697 882.999023438 672 852.999023438 c 0
 649 825.999023438 632 791.999023438 625 760.999023438 c 0
 621 743.999023438 620 731.999023438 619 707.999023438 c 0
 618.958984375 705.282226562 618.938476562 702.60546875 618.938476562 699.967773438 c 0
 618.938476562 638.53515625 630.235351562 598.106445312 659 554 c 0
 680 522 700 505 726 496 c 0
 736.5 492.5 749 490.75 761.625 490.75 c 0
 774.25 490.75 787 492.5 798 496 c 0
 812 501 828 510 839 520 c 2
 845 526 l 1
 845 522 l 2
 844 520 843 513 842 507 c 0
 837 467 827 431 811 400 c 0
 796 370 780 352 761 344 c 0
 755 342 753 342 743 342 c 0
 732 342 729 342 723 344 c 0
 714 347 705 353 699 362 c 0
 687 378 684 380 674 380 c 0
 663 380 657 376 648 361 c 0
 644.22265625 353.446289062 642.228515625 348.12109375 642.228515625 343.129882812 c 0
 642.228515625 337.55078125 644.720703125 332.389648438 650 325 c 0
 661 311 676 298 690 291 c 0
 704.7734375 283.318359375 723.38671875 279.477539062 742.541015625 279.477539062 c 0
 755.80078125 279.477539062 769.318359375 281.318359375 782 285 c 0
 791 288 808 297 819 304 c 0
 830 312 850 333 860 345 c 0
 885 380 905 423 917 472 c 0
 927 513 931 548 931 600 c 0
 931 687 922 749 902 801 c 0
 890 831 877 852 859 870 c 0
 842 887 825 898 804 903 c 0
767 845.998046875 m 0
 770.461914062 846.822265625 773.760742188 847.239257812 776.918945312 847.239257812 c 0
 792.91796875 847.239257812 805.307617188 836.546875 817 813.998046875 c 0
 827 794.998046875 835 765.998046875 841 732.998046875 c 0
 843 717.998046875 843 713.998046875 843 680.998046875 c 0
 843 646.998046875 843 643.998046875 841 632.998046875 c 0
 834 594.998046875 818 568.998046875 797 558.998046875 c 0
 787 553.998046875 780 552.998046875 768 552.998046875 c 0
 756 553.998046875 749 556.998046875 742 564.998046875 c 0
 726 579.998046875 711 612.998046875 706 639.998046875 c 0
 703.5 655.998046875 702.25 676.998046875 702.25 697.873046875 c 0
 702.25 718.748046875 703.5 739.498046875 706 754.998046875 c 0
 710 775.998046875 719 797.998046875 732 817.998046875 c 0
 743 833.998046875 753 841.998046875 767 845.998046875 c 0
EndSplineSet
Validated: 1
EndChar

StartChar: gcircumflex
Encoding: 285 285 79
Width: 1200
GlyphClass: 2
Flags: W
LayerCount: 2
Fore
SplineSet
569 1199 m 0
 584 1200 639 1199 655 1198 c 0
 766 1187 869 1148 957 1082 c 0
 1044 1018 1113 929 1155 830 c 0
 1177 776 1191 716 1198 654 c 0
 1200 629 1200 571 1198 546 c 0
 1190 468 1171 401 1137 334 c 0
 1073 204 963 101 830 45 c 0
 776 23 716 9 654 2 c 0
 629 0 571 0 546 2 c 0
 468 10 401 29 334 63 c 0
 204 127 101 237 45 371 c 0
 23 424 9 484 2 546 c 0
 0 571 0 629 2 654 c 0
 10 732 29 799 63 867 c 0
 127 996 237 1099 371 1155 c 0
 431 1180 500 1195 569 1199 c 0
461 903 m 0
 448 906 424 906 411 904 c 0
 364 897 324 868 302 825 c 0
 296 812 294 805 294 798 c 0
 295 791 305 772 311 766 c 0
 325 754 344 761 350 780 c 0
 358 805 377 828 398 838 c 0
 413 846 431 849 443 846 c 0
 462 841 477 825 485 804 c 0
 490 791 491 779 491 758 c 0
 489 713 480 680 463 663 c 0
 453 653 448 652 419 649 c 0
 392 647 387 645 382 638 c 0
 378 632 377 627 377 613 c 0
 377 602 378 601 381 596 c 0
 382 593 385 590 388 589 c 2
 393 586 l 1
 417 585 l 2
 443 584 444 584 454 579 c 0
 476 568 496 535 502 501 c 0
 510 449 502 399 478 368 c 0
 468 355 457 347 444 343 c 0
 438 341 435 341 426 341 c 0
 386 344 351 367 333 404 c 0
 324 422 315 428 302 424 c 0
 297 423 290 416 287 412 c 0
 285 408 283 390 283 384 c 0
 284 378 290 364 300 350 c 0
 309 336 328 316 342 307 c 0
 360 295 382 286 405 281 c 0
 418 279 447 279 461 282 c 0
 480 286 499 294 517 306 c 0
 530 315 551 336 561 350 c 0
 585 386 596 426 595 469 c 0
 593 512 576 552 548 582 c 0
 537 593 522 605 512 610 c 2
 506 613 l 1
 520 627 l 2
 536 642 543 653 553 673 c 0
 575 720 580 778 565 816 c 0
 558 835 549 848 535 863 c 0
 514 884 491 897 461 903 c 0
802 903 m 0
 791 905 769 907 759 905 c 0
 719 899 683 873 661 833 c 0
 644 804 630 759 624 713 c 0
 614 648 615 529 624 466 c 0
 630 427 641 389 655 361 c 0
 677 318 712 289 754 281 c 0
 763 279 787 279 797 281 c 0
 838 289 873 318 895 361 c 0
 909 389 920 427 926 466 c 0
 935 529 936 648 926 713 c 0
 920 759 906 804 889 833 c 0
 869 869 839 893 802 903 c 0
763 843 m 0
 789 849 815 833 830 803 c 0
 844 774 850 737 853 673 c 0
 854 641 854 525 852 502 c 0
 846 423 834 380 810 357 c 0
 804 350 798 347 791 344 c 0
 783 341 767 341 759 344 c 0
 752 347 746 350 740 357 c 0
 716 380 704 423 698 502 c 0
 696 525 696 641 697 673 c 0
 700 737 706 774 720 803 c 0
 730 824 746 838 763 843 c 0
EndSplineSet
Validated: 33
EndChar

StartChar: Gbreve
Encoding: 286 286 80
Width: 1200
GlyphClass: 2
Flags: W
LayerCount: 2
Fore
SplineSet
569 1199 m 0
 573.392578125 1199.29003906 581.21875 1199.41015625 590.490234375 1199.41015625 c 0
 612.873046875 1199.41015625 643.685546875 1198.70996094 655 1198 c 0
 766 1187 869 1148 957 1082 c 0
 1044 1018 1113 929 1155 830 c 0
 1177 776 1191 716 1198 654 c 0
 1199 641.5 1199.5 620.75 1199.5 600 c 0
 1199.5 579.25 1199 558.5 1198 546 c 0
 1190 468 1171 401 1137 334 c 0
 1073 204 963 101 830 45 c 0
 776 23 716 9 654 2 c 0
 641.5 1 620.75 0.5 600 0.5 c 0
 579.25 0.5 558.5 1 546 2 c 0
 468 10 401 29 334 63 c 0
 204 127 101 237 45 371 c 0
 23 424 9 484 2 546 c 0
 1 558.5 0.5 579.25 0.5 600 c 0
 0.5 620.75 1 641.5 2 654 c 0
 10 732 29 799 63 867 c 0
 127 996 237 1099 371 1155 c 0
 431 1180 500 1195 569 1199 c 0
461.000976562 903 m 0
 453.84375 904.65234375 443.353515625 905.395507812 433.200195312 905.395507812 c 0
 424.909179688 905.395507812 416.842773438 904.900390625 411 904.000976562 c 0
 364 897.000976562 324 868.000976562 302 825.000976562 c 0
 296 812.000976562 294 805.000976562 294 798.000976562 c 0
 295 791.000976562 305 772.000976562 311 766.000976562 c 0
 315.712890625 761.9609375 320.993164062 760.075195312 326.153320312 760.075195312 c 0
 336.3203125 760.075195312 346.020507812 767.3984375 350.000976562 780.001953125 c 0
 358.000976562 805.001953125 377.000976562 828.001953125 398.000976562 838.001953125 c 0
 409.168945312 843.958007812 422.000976562 847.142578125 432.78125 847.142578125 c 0
 436.479492188 847.142578125 439.936523438 846.767578125 443.001953125 846.001953125 c 0
 462.001953125 841.001953125 477.001953125 825.001953125 485.001953125 804.001953125 c 0
 490.001953125 791.001953125 491.001953125 779.001953125 491.001953125 758.001953125 c 0
 489.001953125 713.001953125 480.001953125 680.001953125 463.001953125 663.001953125 c 0
 453.001953125 653.001953125 448.001953125 652.001953125 419.001953125 649.001953125 c 0
 392.001953125 647.001953125 387.001953125 645.001953125 382.001953125 638.001953125 c 0
 378.001953125 632.001953125 377.001953125 627.001953125 377.001953125 613.001953125 c 0
 377.001953125 602.001953125 378.001953125 601.001953125 381.001953125 596.001953125 c 0
 382.001953125 593.001953125 385.001953125 590.001953125 388.001953125 589.001953125 c 2
 393.001953125 586.001953125 l 1
 417.001953125 585.001953125 l 2
 443.001953125 584.001953125 444.001953125 584.001953125 454.001953125 579.001953125 c 0
 476.001953125 568.001953125 496.001953125 535.001953125 502.001953125 501.001953125 c 0
 504.001953125 488.001953125 505.001953125 475.126953125 505.001953125 462.642578125 c 0
 505.001953125 425.189453125 496.001953125 391.251953125 478.001953125 368.001953125 c 0
 468.001953125 355.001953125 457.001953125 347.001953125 444.001953125 343.001953125 c 0
 438.001953125 341.001953125 435.001953125 341.001953125 426.001953125 341.001953125 c 0
 386.001953125 344.001953125 351.001953125 367.001953125 333.001953125 404.001953125 c 0
 325.766601562 418.470703125 318.532226562 425.185546875 309.21875 425.185546875 c 0
 306.947265625 425.185546875 304.55078125 424.786132812 302.000976562 424.000976562 c 0
 297.000976562 423.000976562 290.000976562 416.000976562 287.000976562 412.000976562 c 0
 285.000976562 408.000976562 283.000976562 390.000976562 283.000976562 384.000976562 c 0
 284.000976562 378.000976562 290.000976562 364.000976562 300.000976562 350.000976562 c 0
 309.000976562 336.000976562 328.000976562 316.000976562 342.000976562 307.000976562 c 0
 360.000976562 295.000976562 382.000976562 286.000976562 405.000976562 281.000976562 c 0
 410.84375 280.1015625 419.919921875 279.606445312 429.4140625 279.606445312 c 0
 441.041015625 279.606445312 453.293945312 280.348632812 461.000976562 282.000976562 c 0
 480.000976562 286.000976562 499.000976562 294.000976562 517.000976562 306.000976562 c 0
 530.000976562 315.000976562 551.000976562 336.000976562 561.000976562 350.000976562 c 0
 584.002929688 384.50390625 595.0625 422.6796875 595.0625 463.650390625 c 0
 595.0625 465.428710938 595.04296875 467.211914062 595.000976562 469.000976562 c 0
 593.000976562 512.000976562 576.000976562 552.000976562 548.000976562 582.000976562 c 0
 537.000976562 593.000976562 522.000976562 605.000976562 512.000976562 610.000976562 c 2
 506.000976562 613.000976562 l 1
 520.000976562 627.000976562 l 2
 536.000976562 642.000976562 543.000976562 653.000976562 553.000976562 673.000976562 c 0
 566.504882812 701.849609375 573.603515625 734.84375 573.603515625 764.8125 c 0
 573.603515625 783.666992188 570.793945312 801.325195312 565.000976562 816 c 0
 558.000976562 835 549.000976562 848 535.000976562 863 c 0
 514.000976562 884 491.000976562 897 461.000976562 903 c 0
822.000976562 633.000976562 m 1
 822.000976562 906.000976562 l 1
 812.000976562 906.000976562 l 1
 803.000976562 906.000976562 l 1
 795.000976562 899.000976562 l 2
 763.000976562 868.000976562 717.000976562 851.000976562 660.000976562 848.000976562 c 2
 644.000976562 848.000976562 l 1
 644.000976562 818.000976562 l 1
 644.000976562 789.000976562 l 1
 660.000976562 789.000976562 l 2
 688.000976562 790.000976562 715.000976562 796.000976562 737.000976562 804.000976562 c 2
 742.000976562 806.000976562 l 1
 742.000976562 583.000976562 l 1
 742.000976562 360.000976562 l 1
 696.000976562 360.000976562 l 1
 650.000976562 360.000976562 l 1
 650.000976562 331.000976562 l 1
 650.000976562 301.000976562 l 1
 780.000976562 301.000976562 l 1
 910.000976562 301.000976562 l 1
 910.000976562 331.000976562 l 1
 910.000976562 360.000976562 l 1
 866.000976562 360.000976562 l 1
 822.000976562 360.000976562 l 1
 822.000976562 633.000976562 l 1
EndSplineSet
Validated: 1
EndChar

StartChar: gbreve
Encoding: 287 287 81
Width: 1200
GlyphClass: 2
Flags: W
LayerCount: 2
Fore
SplineSet
569 1199 m 0
 584 1200 639 1199 655 1198 c 0
 766 1187 869 1148 957 1082 c 0
 1044 1018 1113 929 1155 830 c 0
 1177 776 1191 716 1198 654 c 0
 1200 629 1200 571 1198 546 c 0
 1190 468 1171 401 1137 334 c 0
 1073 204 963 101 830 45 c 0
 776 23 716 9 654 2 c 0
 629 0 571 0 546 2 c 0
 468 10 401 29 334 63 c 0
 204 127 101 237 45 371 c 0
 23 424 9 484 2 546 c 0
 0 571 0 629 2 654 c 0
 10 732 29 799 63 867 c 0
 127 996 237 1099 371 1155 c 0
 431 1180 500 1195 569 1199 c 0
461 903 m 0
 448 906 424 906 411 904 c 0
 364 897 324 868 302 825 c 0
 296 812 294 805 294 798 c 0
 295 791 305 772 311 766 c 0
 325 754 344 761 350 780 c 0
 358 805 377 828 398 838 c 0
 413 846 431 849 443 846 c 0
 462 841 477 825 485 804 c 0
 490 791 491 779 491 758 c 0
 489 713 480 680 463 663 c 0
 453 653 448 652 419 649 c 0
 392 647 387 645 382 638 c 0
 378 632 377 627 377 613 c 0
 377 602 378 601 381 596 c 0
 382 593 385 590 388 589 c 2
 393 586 l 1
 417 585 l 2
 443 584 444 584 454 579 c 0
 476 568 496 535 502 501 c 0
 510 449 502 399 478 368 c 0
 468 355 457 347 444 343 c 0
 438 341 435 341 426 341 c 0
 386 344 351 367 333 404 c 0
 324 422 315 428 302 424 c 0
 297 423 290 416 287 412 c 0
 285 408 283 390 283 384 c 0
 284 378 290 364 300 350 c 0
 309 336 328 316 342 307 c 0
 360 295 382 286 405 281 c 0
 418 279 447 279 461 282 c 0
 480 286 499 294 517 306 c 0
 530 315 551 336 561 350 c 0
 585 386 596 426 595 469 c 0
 593 512 576 552 548 582 c 0
 537 593 522 605 512 610 c 2
 506 613 l 1
 520 627 l 2
 536 642 543 653 553 673 c 0
 575 720 580 778 565 816 c 0
 558 835 549 848 535 863 c 0
 514 884 491 897 461 903 c 0
793 904 m 0
 783 905 755 906 746 905 c 0
 726 902 706 895 691 884 c 0
 675 873 657 852 646 832 c 0
 638 816 628 791 622 767 c 0
 619 754 618 750 620 745 c 0
 621 740 635 720 639 715 c 0
 647 708 657 707 666 712 c 0
 673 716 676 722 679 735 c 0
 680 741 683 753 685 760 c 0
 700 821 720 843 759 841 c 0
 771 840 778 838 789 833 c 0
 816 820 835 784 840 735 c 0
 842 720 842 694 840 681 c 0
 833 638 814 597 777 545 c 0
 763 525 753 513 686 427 c 0
 655 388 629 355 628 353 c 0
 626 350 625 348 625 325 c 2
 625 301 l 1
 775 301 l 1
 925 301 l 1
 925 337 l 1
 925 373 l 1
 824 373 l 1
 722 372 l 1
 745 399 l 2
 813 478 828 496 840 512 c 0
 893 578 918 630 924 687 c 0
 925 700 925 729 923 743 c 0
 918 779 906 813 889 840 c 0
 879 854 860 873 847 882 c 0
 830 893 812 900 793 904 c 0
EndSplineSet
Validated: 33
EndChar

StartChar: Gdotaccent
Encoding: 288 288 82
Width: 1200
GlyphClass: 2
Flags: W
LayerCount: 2
Fore
SplineSet
569 1199 m 0
 573.392578125 1199.29003906 581.21875 1199.41015625 590.490234375 1199.41015625 c 0
 612.873046875 1199.41015625 643.685546875 1198.70996094 655 1198 c 0
 766 1187 869 1148 957 1082 c 0
 1044 1018 1113 929 1155 830 c 0
 1177 776 1191 716 1198 654 c 0
 1199 641.5 1199.5 620.75 1199.5 600 c 0
 1199.5 579.25 1199 558.5 1198 546 c 0
 1190 468 1171 401 1137 334 c 0
 1073 204 963 101 830 45 c 0
 776 23 716 9 654 2 c 0
 641.5 1 620.75 0.5 600 0.5 c 0
 579.25 0.5 558.5 1 546 2 c 0
 468 10 401 29 334 63 c 0
 204 127 101 237 45 371 c 0
 23 424 9 484 2 546 c 0
 1 558.5 0.5 579.25 0.5 600 c 0
 0.5 620.75 1 641.5 2 654 c 0
 10 732 29 799 63 867 c 0
 127 996 237 1099 371 1155 c 0
 431 1180 500 1195 569 1199 c 0
461.000976562 903 m 0
 453.84375 904.65234375 443.353515625 905.395507812 433.200195312 905.395507812 c 0
 424.909179688 905.395507812 416.842773438 904.900390625 411 904.000976562 c 0
 364 897.000976562 324 868.000976562 302 825.000976562 c 0
 296 812.000976562 294 805.000976562 294 798.000976562 c 0
 295 791.000976562 305 772.000976562 311 766.000976562 c 0
 315.712890625 761.9609375 320.993164062 760.075195312 326.153320312 760.075195312 c 0
 336.3203125 760.075195312 346.020507812 767.3984375 350.000976562 780.001953125 c 0
 358.000976562 805.001953125 377.000976562 828.001953125 398.000976562 838.001953125 c 0
 409.168945312 843.958007812 422.000976562 847.142578125 432.78125 847.142578125 c 0
 436.479492188 847.142578125 439.936523438 846.767578125 443.001953125 846.001953125 c 0
 462.001953125 841.001953125 477.001953125 825.001953125 485.001953125 804.001953125 c 0
 490.001953125 791.001953125 491.001953125 779.001953125 491.001953125 758.001953125 c 0
 489.001953125 713.001953125 480.001953125 680.001953125 463.001953125 663.001953125 c 0
 453.001953125 653.001953125 448.001953125 652.001953125 419.001953125 649.001953125 c 0
 392.001953125 647.001953125 387.001953125 645.001953125 382.001953125 638.001953125 c 0
 378.001953125 632.001953125 377.001953125 627.001953125 377.001953125 613.001953125 c 0
 377.001953125 602.001953125 378.001953125 601.001953125 381.001953125 596.001953125 c 0
 382.001953125 593.001953125 385.001953125 590.001953125 388.001953125 589.001953125 c 2
 393.001953125 586.001953125 l 1
 417.001953125 585.001953125 l 2
 443.001953125 584.001953125 444.001953125 584.001953125 454.001953125 579.001953125 c 0
 476.001953125 568.001953125 496.001953125 535.001953125 502.001953125 501.001953125 c 0
 504.001953125 488.001953125 505.001953125 475.126953125 505.001953125 462.642578125 c 0
 505.001953125 425.189453125 496.001953125 391.251953125 478.001953125 368.001953125 c 0
 468.001953125 355.001953125 457.001953125 347.001953125 444.001953125 343.001953125 c 0
 438.001953125 341.001953125 435.001953125 341.001953125 426.001953125 341.001953125 c 0
 386.001953125 344.001953125 351.001953125 367.001953125 333.001953125 404.001953125 c 0
 325.766601562 418.470703125 318.532226562 425.185546875 309.21875 425.185546875 c 0
 306.947265625 425.185546875 304.55078125 424.786132812 302.000976562 424.000976562 c 0
 297.000976562 423.000976562 290.000976562 416.000976562 287.000976562 412.000976562 c 0
 285.000976562 408.000976562 283.000976562 390.000976562 283.000976562 384.000976562 c 0
 284.000976562 378.000976562 290.000976562 364.000976562 300.000976562 350.000976562 c 0
 309.000976562 336.000976562 328.000976562 316.000976562 342.000976562 307.000976562 c 0
 360.000976562 295.000976562 382.000976562 286.000976562 405.000976562 281.000976562 c 0
 410.84375 280.1015625 419.919921875 279.606445312 429.4140625 279.606445312 c 0
 441.041015625 279.606445312 453.293945312 280.348632812 461.000976562 282.000976562 c 0
 480.000976562 286.000976562 499.000976562 294.000976562 517.000976562 306.000976562 c 0
 530.000976562 315.000976562 551.000976562 336.000976562 561.000976562 350.000976562 c 0
 584.002929688 384.50390625 595.0625 422.6796875 595.0625 463.650390625 c 0
 595.0625 465.428710938 595.04296875 467.211914062 595.000976562 469.000976562 c 0
 593.000976562 512.000976562 576.000976562 552.000976562 548.000976562 582.000976562 c 0
 537.000976562 593.000976562 522.000976562 605.000976562 512.000976562 610.000976562 c 2
 506.000976562 613.000976562 l 1
 520.000976562 627.000976562 l 2
 536.000976562 642.000976562 543.000976562 653.000976562 553.000976562 673.000976562 c 0
 566.504882812 701.849609375 573.603515625 734.84375 573.603515625 764.8125 c 0
 573.603515625 783.666992188 570.793945312 801.325195312 565.000976562 816 c 0
 558.000976562 835 549.000976562 848 535.000976562 863 c 0
 514.000976562 884 491.000976562 897 461.000976562 903 c 0
797.000976562 903.000976562 m 0
 789.84375 904.653320312 779.354492188 905.395507812 769.201171875 905.395507812 c 0
 760.91015625 905.395507812 752.84375 904.900390625 747.000976562 904.000976562 c 0
 700.000976562 897.000976562 660.000976562 868.000976562 638.000976562 825.000976562 c 0
 632.000976562 812.000976562 630.000976562 805.000976562 630.000976562 798.000976562 c 0
 631.000976562 791.000976562 641.000976562 772.000976562 647.000976562 766.000976562 c 0
 651.713867188 761.9609375 656.994140625 760.075195312 662.154296875 760.075195312 c 0
 672.321289062 760.075195312 682.021484375 767.3984375 686.001953125 780.001953125 c 0
 694.001953125 805.001953125 713.001953125 828.001953125 734.001953125 838.001953125 c 0
 745.169921875 843.958007812 758.001953125 847.142578125 768.782226562 847.142578125 c 0
 772.48046875 847.142578125 775.9375 846.767578125 779.002929688 846.001953125 c 0
 798.002929688 841.001953125 813.002929688 825.001953125 821.002929688 804.001953125 c 0
 826.002929688 791.001953125 827.002929688 779.001953125 827.002929688 758.001953125 c 0
 825.002929688 713.001953125 816.002929688 680.001953125 799.002929688 663.001953125 c 0
 789.002929688 653.001953125 784.002929688 652.001953125 755.002929688 649.001953125 c 0
 728.002929688 647.001953125 723.002929688 645.001953125 718.002929688 638.001953125 c 0
 714.002929688 632.001953125 713.002929688 627.001953125 713.002929688 613.001953125 c 0
 713.002929688 602.001953125 714.002929688 601.001953125 717.002929688 596.001953125 c 0
 718.002929688 593.001953125 721.002929688 590.001953125 724.002929688 589.001953125 c 2
 729.002929688 586.001953125 l 1
 753.002929688 585.001953125 l 2
 779.002929688 584.001953125 780.002929688 584.001953125 790.002929688 579.001953125 c 0
 812.002929688 568.001953125 832.002929688 535.001953125 838.002929688 501.001953125 c 0
 840.002929688 488.001953125 841.002929688 475.126953125 841.002929688 462.642578125 c 0
 841.002929688 425.189453125 832.002929688 391.251953125 814.002929688 368.001953125 c 0
 804.002929688 355.001953125 793.002929688 347.001953125 780.002929688 343.001953125 c 0
 774.002929688 341.001953125 771.002929688 341.001953125 762.002929688 341.001953125 c 0
 722.002929688 344.001953125 687.002929688 367.001953125 669.002929688 404.001953125 c 0
 661.767578125 418.470703125 654.533203125 425.185546875 645.219726562 425.185546875 c 0
 642.947265625 425.185546875 640.55078125 424.786132812 638.000976562 424.000976562 c 0
 633.000976562 423.000976562 626.000976562 416.000976562 623.000976562 412.000976562 c 0
 621.000976562 408.000976562 619.000976562 390.000976562 619.000976562 384.000976562 c 0
 620.000976562 378.000976562 626.000976562 364.000976562 636.000976562 350.000976562 c 0
 645.000976562 336.000976562 664.000976562 316.000976562 678.000976562 307.000976562 c 0
 696.000976562 295.000976562 718.000976562 286.000976562 741.000976562 281.000976562 c 0
 746.84375 280.1015625 755.919921875 279.606445312 765.4140625 279.606445312 c 0
 777.041015625 279.606445312 789.293945312 280.348632812 797.000976562 282.000976562 c 0
 816.000976562 286.000976562 835.000976562 294.000976562 853.000976562 306.000976562 c 0
 866.000976562 315.000976562 887.000976562 336.000976562 897.000976562 350.000976562 c 0
 920.002929688 384.50390625 931.0625 422.6796875 931.0625 463.650390625 c 0
 931.0625 465.428710938 931.04296875 467.211914062 931.000976562 469.000976562 c 0
 929.000976562 512.000976562 912.000976562 552.000976562 884.000976562 582.000976562 c 0
 873.000976562 593.000976562 858.000976562 605.000976562 848.000976562 610.000976562 c 2
 842.000976562 613.000976562 l 1
 856.000976562 627.000976562 l 2
 872.000976562 642.000976562 879.000976562 653.000976562 889.000976562 673.000976562 c 0
 902.504882812 701.849609375 909.603515625 734.84375 909.603515625 764.8125 c 0
 909.603515625 783.66796875 906.793945312 801.326171875 901.000976562 816.000976562 c 0
 894.000976562 835.000976562 885.000976562 848.000976562 871.000976562 863.000976562 c 0
 850.000976562 884.000976562 827.000976562 897.000976562 797.000976562 903.000976562 c 0
EndSplineSet
Validated: 1
EndChar

StartChar: gdotaccent
Encoding: 289 289 83
Width: 1200
GlyphClass: 2
Flags: W
LayerCount: 2
Fore
SplineSet
569 1199 m 0
 584 1200 639 1199 655 1198 c 0
 766 1187 869 1148 957 1082 c 0
 1044 1018 1113 929 1155 830 c 0
 1177 776 1191 716 1198 654 c 0
 1200 629 1200 571 1198 546 c 0
 1190 468 1171 401 1137 334 c 0
 1073 204 963 101 830 45 c 0
 776 23 716 9 654 2 c 0
 629 0 571 0 546 2 c 0
 468 10 401 29 334 63 c 0
 204 127 101 237 45 371 c 0
 23 424 9 484 2 546 c 0
 0 571 0 629 2 654 c 0
 10 732 29 799 63 867 c 0
 127 996 237 1099 371 1155 c 0
 431 1180 500 1195 569 1199 c 0
461 903 m 0
 448 906 424 906 411 904 c 0
 364 897 324 868 302 825 c 0
 296 812 294 805 294 798 c 0
 295 791 305 772 311 766 c 0
 325 754 344 761 350 780 c 0
 358 805 377 828 398 838 c 0
 413 846 431 849 443 846 c 0
 462 841 477 825 485 804 c 0
 490 791 491 779 491 758 c 0
 489 713 480 680 463 663 c 0
 453 653 448 652 419 649 c 0
 392 647 387 645 382 638 c 0
 378 632 377 627 377 613 c 0
 377 602 378 601 381 596 c 0
 382 593 385 590 388 589 c 2
 393 586 l 1
 417 585 l 2
 443 584 444 584 454 579 c 0
 476 568 496 535 502 501 c 0
 510 449 502 399 478 368 c 0
 468 355 457 347 444 343 c 0
 438 341 435 341 426 341 c 0
 386 344 351 367 333 404 c 0
 324 422 315 428 302 424 c 0
 297 423 290 416 287 412 c 0
 285 408 283 390 283 384 c 0
 284 378 290 364 300 350 c 0
 309 336 328 316 342 307 c 0
 360 295 382 286 405 281 c 0
 418 279 447 279 461 282 c 0
 480 286 499 294 517 306 c 0
 530 315 551 336 561 350 c 0
 585 386 596 426 595 469 c 0
 593 512 576 552 548 582 c 0
 537 593 522 605 512 610 c 2
 506 613 l 1
 520 627 l 2
 536 642 543 653 553 673 c 0
 575 720 580 778 565 816 c 0
 558 835 549 848 535 863 c 0
 514 884 491 897 461 903 c 0
877 696 m 1
 877 884 l 1
 833 884 l 1
 788 884 l 1
 699 696 l 1
 609 508 l 1
 609 477 l 1
 609 446 l 1
 703 446 l 1
 797 446 l 1
 797 374 l 1
 797 301 l 1
 837 301 l 1
 877 301 l 1
 877 374 l 1
 877 446 l 1
 909 446 l 1
 941 446 l 1
 941 477 l 1
 941 508 l 1
 909 508 l 1
 877 508 l 1
 877 696 l 1
743 633 m 1
 803 757 l 1
 803 633 l 1
 803 508 l 1
 743 508 l 1
 684 509 l 1
 743 633 l 1
EndSplineSet
Validated: 33
EndChar

StartChar: Gcommaaccent
Encoding: 290 290 84
Width: 1200
GlyphClass: 2
Flags: W
LayerCount: 2
Fore
SplineSet
569 1199 m 0
 584 1200 639 1199 655 1198 c 0
 766 1187 869 1148 957 1082 c 0
 1044 1018 1113 929 1155 830 c 0
 1177 776 1191 716 1198 654 c 0
 1200 629 1200 571 1198 546 c 0
 1190 468 1171 401 1137 334 c 0
 1073 204 963 101 830 45 c 0
 776 23 716 9 654 2 c 0
 629 0 571 0 546 2 c 0
 468 10 401 29 334 63 c 0
 204 127 101 237 45 371 c 0
 23 424 9 484 2 546 c 0
 0 571 0 629 2 654 c 0
 10 732 29 799 63 867 c 0
 127 996 237 1099 371 1155 c 0
 431 1180 500 1195 569 1199 c 0
461 903 m 0
 448 906 424 906 411 904 c 0
 364 897 324 868 302 825 c 0
 296 812 294 805 294 798 c 0
 295 791 305 772 311 766 c 0
 325 754 344 761 350 780 c 0
 358 805 377 828 398 838 c 0
 413 846 431 849 443 846 c 0
 462 841 477 825 485 804 c 0
 490 791 491 779 491 758 c 0
 489 713 480 680 463 663 c 0
 453 653 448 652 419 649 c 0
 392 647 387 645 382 638 c 0
 378 632 377 627 377 613 c 0
 377 602 378 601 381 596 c 0
 382 593 385 590 388 589 c 2
 393 586 l 1
 417 585 l 2
 443 584 444 584 454 579 c 0
 476 568 496 535 502 501 c 0
 510 449 502 399 478 368 c 0
 468 355 457 347 444 343 c 0
 438 341 435 341 426 341 c 0
 386 344 351 367 333 404 c 0
 324 422 315 428 302 424 c 0
 297 423 290 416 287 412 c 0
 285 408 283 390 283 384 c 0
 284 378 290 364 300 350 c 0
 309 336 328 316 342 307 c 0
 360 295 382 286 405 281 c 0
 418 279 447 279 461 282 c 0
 480 286 499 294 517 306 c 0
 530 315 551 336 561 350 c 0
 585 386 596 426 595 469 c 0
 593 512 576 552 548 582 c 0
 537 593 522 605 512 610 c 2
 506 613 l 1
 520 627 l 2
 536 642 543 653 553 673 c 0
 575 720 580 778 565 816 c 0
 558 835 549 848 535 863 c 0
 514 884 491 897 461 903 c 0
900 852 m 1
 900 884 l 1
 772 884 l 1
 644 884 l 1
 644 716 l 1
 644 548 l 1
 678 548 l 1
 712 548 l 1
 712 551 l 2
 714 555 722 575 725 581 c 0
 737 607 757 621 779 621 c 0
 791 621 801 613 811 596 c 0
 826 570 835 530 835 483 c 0
 835 416 813 365 778 347 c 0
 768 342 761 341 750 341 c 0
 739 342 731 344 720 349 c 0
 710 354 705 358 696 366 c 0
 684 377 675 391 669 408 c 0
 667 413 664 419 663 420 c 0
 659 425 651 429 646 429 c 0
 634 429 627 424 619 408 c 0
 614 397 614 396 614 390 c 0
 614 383 614 381 618 372 c 0
 627 352 637 337 652 323 c 0
 678 296 712 281 749 279 c 0
 781 278 810 287 840 306 c 0
 853 315 875 337 885 351 c 0
 900 372 911 397 917 422 c 0
 922 441 924 453 925 474 c 0
 927 540 906 602 868 642 c 0
 845 665 824 677 797 682 c 0
 773 686 742 680 724 667 c 0
 721 666 719 664 718 664 c 0
 717 663 717 679 717 741 c 2
 717 819 l 1
 809 819 l 1
 900 819 l 1
 900 852 l 1
EndSplineSet
Validated: 33
EndChar

StartChar: gcommaaccent
Encoding: 291 291 85
Width: 1200
GlyphClass: 2
Flags: W
LayerCount: 2
Fore
SplineSet
569 1199 m 0
 584 1200 639 1199 655 1198 c 0
 766 1187 869 1148 957 1082 c 0
 1044 1018 1113 929 1155 830 c 0
 1177 776 1191 716 1198 654 c 0
 1200 629 1200 571 1198 546 c 0
 1190 468 1171 401 1137 334 c 0
 1073 204 963 101 830 45 c 0
 776 23 716 9 654 2 c 0
 629 0 571 0 546 2 c 0
 468 10 401 29 334 63 c 0
 204 127 101 237 45 371 c 0
 23 424 9 484 2 546 c 0
 0 571 0 629 2 654 c 0
 10 732 29 799 63 867 c 0
 127 996 237 1099 371 1155 c 0
 431 1180 500 1195 569 1199 c 0
461 903 m 0
 448 906 424 906 411 904 c 0
 364 897 324 868 302 825 c 0
 296 812 294 805 294 798 c 0
 295 791 305 772 311 766 c 0
 325 754 344 761 350 780 c 0
 358 805 377 828 398 838 c 0
 413 846 431 849 443 846 c 0
 462 841 477 825 485 804 c 0
 490 791 491 779 491 758 c 0
 489 713 480 680 463 663 c 0
 453 653 448 652 419 649 c 0
 392 647 387 645 382 638 c 0
 378 632 377 627 377 613 c 0
 377 602 378 601 381 596 c 0
 382 593 385 590 388 589 c 2
 393 586 l 1
 417 585 l 2
 443 584 444 584 454 579 c 0
 476 568 496 535 502 501 c 0
 510 449 502 399 478 368 c 0
 468 355 457 347 444 343 c 0
 438 341 435 341 426 341 c 0
 386 344 351 367 333 404 c 0
 324 422 315 428 302 424 c 0
 297 423 290 416 287 412 c 0
 285 408 283 390 283 384 c 0
 284 378 290 364 300 350 c 0
 309 336 328 316 342 307 c 0
 360 295 382 286 405 281 c 0
 418 279 447 279 461 282 c 0
 480 286 499 294 517 306 c 0
 530 315 551 336 561 350 c 0
 585 386 596 426 595 469 c 0
 593 512 576 552 548 582 c 0
 537 593 522 605 512 610 c 2
 506 613 l 1
 520 627 l 2
 536 642 543 653 553 673 c 0
 575 720 580 778 565 816 c 0
 558 835 549 848 535 863 c 0
 514 884 491 897 461 903 c 0
833 905 m 0
 814 907 794 905 775 899 c 0
 761 894 752 890 739 881 c 0
 707 860 682 829 660 786 c 0
 639 744 626 695 621 641 c 0
 619 622 619 545 621 522 c 0
 625 461 635 416 653 375 c 0
 667 342 685 319 710 301 c 0
 720 294 737 285 749 282 c 0
 774 276 805 279 830 291 c 0
 859 305 889 338 909 379 c 0
 920 400 925 420 929 447 c 0
 931 462 931 515 929 532 c 0
 924 568 912 600 891 631 c 0
 862 675 831 694 788 694 c 0
 770 694 756 691 740 684 c 0
 732 681 718 671 711 665 c 2
 705 659 l 1
 706 666 l 2
 711 706 722 745 737 777 c 0
 761 825 789 849 821 847 c 0
 832 846 838 844 848 836 c 0
 852 833 857 831 859 830 c 0
 869 827 880 832 885 840 c 0
 888 845 889 846 889 859 c 0
 889 872 888 873 886 877 c 0
 879 889 853 902 833 905 c 0
764 631 m 0
 767 631 773 632 780 632 c 0
 790 632 792 631 797 629 c 0
 809 623 820 609 830 587 c 0
 843 560 847 541 848 499 c 0
 849 459 846 431 839 410 c 0
 837 405 833 394 829 387 c 0
 817 363 805 349 792 344 c 0
 788 342 784 342 777 342 c 0
 767 342 766 342 761 344 c 0
 742 354 727 381 716 424 c 0
 710 446 706 477 707 482 c 0
 708 483 708 490 707 498 c 0
 705 524 707 554 715 575 c 0
 725 605 741 624 764 631 c 0
EndSplineSet
Validated: 33
EndChar

StartChar: Hcircumflex
Encoding: 292 292 86
Width: 1200
GlyphClass: 2
Flags: W
LayerCount: 2
Fore
SplineSet
569 1199 m 0
 584 1200 639 1199 655 1198 c 0
 766 1187 869 1148 957 1082 c 0
 1044 1018 1113 929 1155 830 c 0
 1177 776 1191 716 1198 654 c 0
 1200 629 1200 571 1198 546 c 0
 1190 468 1171 401 1137 334 c 0
 1073 204 963 101 830 45 c 0
 776 23 716 9 654 2 c 0
 629 0 571 0 546 2 c 0
 468 10 401 29 334 63 c 0
 204 127 101 237 45 371 c 0
 23 424 9 484 2 546 c 0
 0 571 0 629 2 654 c 0
 10 732 29 799 63 867 c 0
 127 996 237 1099 371 1155 c 0
 431 1180 500 1195 569 1199 c 0
461 903 m 0
 448 906 424 906 411 904 c 0
 364 897 324 868 302 825 c 0
 296 812 294 805 294 798 c 0
 295 791 305 772 311 766 c 0
 325 754 344 761 350 780 c 0
 358 805 377 828 398 838 c 0
 413 846 431 849 443 846 c 0
 462 841 477 825 485 804 c 0
 490 791 491 779 491 758 c 0
 489 713 480 680 463 663 c 0
 453 653 448 652 419 649 c 0
 392 647 387 645 382 638 c 0
 378 632 377 627 377 613 c 0
 377 602 378 601 381 596 c 0
 382 593 385 590 388 589 c 2
 393 586 l 1
 417 585 l 2
 443 584 444 584 454 579 c 0
 476 568 496 535 502 501 c 0
 510 449 502 399 478 368 c 0
 468 355 457 347 444 343 c 0
 438 341 435 341 426 341 c 0
 386 344 351 367 333 404 c 0
 324 422 315 428 302 424 c 0
 297 423 290 416 287 412 c 0
 285 408 283 390 283 384 c 0
 284 378 290 364 300 350 c 0
 309 336 328 316 342 307 c 0
 360 295 382 286 405 281 c 0
 418 279 447 279 461 282 c 0
 480 286 499 294 517 306 c 0
 530 315 551 336 561 350 c 0
 585 386 596 426 595 469 c 0
 593 512 576 552 548 582 c 0
 537 593 522 605 512 610 c 2
 506 613 l 1
 520 627 l 2
 536 642 543 653 553 673 c 0
 575 720 580 778 565 816 c 0
 558 835 549 848 535 863 c 0
 514 884 491 897 461 903 c 0
931 852 m 1
 931 884 l 1
 775 884 l 1
 619 884 l 1
 619 848 l 1
 619 812 l 1
 741 812 l 2
 808 813 863 813 863 813 c 2
 863 812 859 807 855 801 c 0
 829 765 805 724 784 682 c 0
 726 567 695 443 691 313 c 1
 691 290 l 1
 733 290 l 1
 776 290 l 1
 776 314 l 1
 781 489 830 655 921 802 c 2
 931 819 l 1
 931 852 l 1
EndSplineSet
Validated: 33
EndChar

StartChar: hcircumflex
Encoding: 293 293 87
Width: 1200
GlyphClass: 2
Flags: W
LayerCount: 2
Fore
SplineSet
569 1199 m 0
 584 1200 639 1199 655 1198 c 0
 766 1187 869 1148 957 1082 c 0
 1044 1018 1113 929 1155 830 c 0
 1177 776 1191 716 1198 654 c 0
 1200 629 1200 571 1198 546 c 0
 1190 468 1171 401 1137 334 c 0
 1073 204 963 101 830 45 c 0
 776 23 716 9 654 2 c 0
 629 0 571 0 546 2 c 0
 468 10 401 29 334 63 c 0
 204 127 101 237 45 371 c 0
 23 424 9 484 2 546 c 0
 0 571 0 629 2 654 c 0
 10 732 29 799 63 867 c 0
 127 996 237 1099 371 1155 c 0
 431 1180 500 1195 569 1199 c 0
461 903 m 0
 448 906 424 906 411 904 c 0
 364 897 324 868 302 825 c 0
 296 812 294 805 294 798 c 0
 295 791 305 772 311 766 c 0
 325 754 344 761 350 780 c 0
 358 805 377 828 398 838 c 0
 413 846 431 849 443 846 c 0
 462 841 477 825 485 804 c 0
 490 791 491 779 491 758 c 0
 489 713 480 680 463 663 c 0
 453 653 448 652 419 649 c 0
 392 647 387 645 382 638 c 0
 378 632 377 627 377 613 c 0
 377 602 378 601 381 596 c 0
 382 593 385 590 388 589 c 2
 393 586 l 1
 417 585 l 2
 443 584 444 584 454 579 c 0
 476 568 496 535 502 501 c 0
 510 449 502 399 478 368 c 0
 468 355 457 347 444 343 c 0
 438 341 435 341 426 341 c 0
 386 344 351 367 333 404 c 0
 324 422 315 428 302 424 c 0
 297 423 290 416 287 412 c 0
 285 408 283 390 283 384 c 0
 284 378 290 364 300 350 c 0
 309 336 328 316 342 307 c 0
 360 295 382 286 405 281 c 0
 418 279 447 279 461 282 c 0
 480 286 499 294 517 306 c 0
 530 315 551 336 561 350 c 0
 585 386 596 426 595 469 c 0
 593 512 576 552 548 582 c 0
 537 593 522 605 512 610 c 2
 506 613 l 1
 520 627 l 2
 536 642 543 653 553 673 c 0
 575 720 580 778 565 816 c 0
 558 835 549 848 535 863 c 0
 514 884 491 897 461 903 c 0
801 904 m 0
 791 905 767 906 758 905 c 0
 707 898 662 862 642 811 c 0
 629 779 627 743 634 712 c 0
 644 673 674 638 711 620 c 0
 716 618 720 616 720 616 c 1
 720 616 716 614 711 612 c 0
 707 609 697 604 691 600 c 0
 676 590 660 574 650 560 c 0
 642 549 632 530 628 518 c 0
 613 474 617 418 639 373 c 0
 649 353 660 337 674 323 c 0
 733 264 817 264 876 323 c 0
 890 337 901 353 911 373 c 0
 925 403 932 437 931 470 c 0
 929 513 912 551 882 581 c 0
 870 593 853 605 839 612 c 0
 834 614 830 616 830 616 c 1
 830 616 834 618 839 620 c 0
 876 638 906 673 916 712 c 0
 923 743 921 779 908 811 c 0
 889 859 848 894 801 904 c 0
761 845 m 0
 776 849 791 847 806 840 c 0
 836 824 851 790 849 739 c 0
 847 702 836 676 817 661 c 0
 791 642 759 642 733 661 c 0
 714 676 703 702 701 739 c 0
 700 781 709 811 729 829 c 0
 737 836 751 844 761 845 c 0
763 583 m 0
 776 586 788 585 802 578 c 0
 826 566 842 539 848 501 c 0
 850 487 850 441 848 428 c 0
 844 398 835 376 820 361 c 0
 806 347 793 342 775 342 c 0
 757 342 744 347 730 361 c 0
 715 376 706 398 702 428 c 0
 700 441 700 487 702 501 c 0
 707 531 717 553 734 568 c 0
 741 575 753 581 763 583 c 0
EndSplineSet
Validated: 33
EndChar

StartChar: Hbar
Encoding: 294 294 88
Width: 1200
GlyphClass: 2
Flags: W
LayerCount: 2
Fore
SplineSet
569 1199 m 0
 584 1200 639 1199 655 1198 c 0
 766 1187 869 1148 957 1082 c 0
 1044 1018 1113 929 1155 830 c 0
 1177 776 1191 716 1198 654 c 0
 1200 629 1200 571 1198 546 c 0
 1190 468 1171 401 1137 334 c 0
 1073 204 963 101 830 45 c 0
 776 23 716 9 654 2 c 0
 629 0 571 0 546 2 c 0
 468 10 401 29 334 63 c 0
 204 127 101 237 45 371 c 0
 23 424 9 484 2 546 c 0
 0 571 0 629 2 654 c 0
 10 732 29 799 63 867 c 0
 127 996 237 1099 371 1155 c 0
 431 1180 500 1195 569 1199 c 0
461 903 m 0
 448 906 424 906 411 904 c 0
 364 897 324 868 302 825 c 0
 296 812 294 805 294 798 c 0
 295 791 305 772 311 766 c 0
 325 754 344 761 350 780 c 0
 358 805 377 828 398 838 c 0
 413 846 431 849 443 846 c 0
 462 841 477 825 485 804 c 0
 490 791 491 779 491 758 c 0
 489 713 480 680 463 663 c 0
 453 653 448 652 419 649 c 0
 392 647 387 645 382 638 c 0
 378 632 377 627 377 613 c 0
 377 602 378 601 381 596 c 0
 382 593 385 590 388 589 c 2
 393 586 l 1
 417 585 l 2
 443 584 444 584 454 579 c 0
 476 568 496 535 502 501 c 0
 510 449 502 399 478 368 c 0
 468 355 457 347 444 343 c 0
 438 341 435 341 426 341 c 0
 386 344 351 367 333 404 c 0
 324 422 315 428 302 424 c 0
 297 423 290 416 287 412 c 0
 285 408 283 390 283 384 c 0
 284 378 290 364 300 350 c 0
 309 336 328 316 342 307 c 0
 360 295 382 286 405 281 c 0
 418 279 447 279 461 282 c 0
 480 286 499 294 517 306 c 0
 530 315 551 336 561 350 c 0
 585 386 596 426 595 469 c 0
 593 512 576 552 548 582 c 0
 537 593 522 605 512 610 c 2
 506 613 l 1
 520 627 l 2
 536 642 543 653 553 673 c 0
 575 720 580 778 565 816 c 0
 558 835 549 848 535 863 c 0
 514 884 491 897 461 903 c 0
804 903 m 0
 793 906 771 907 758 905 c 0
 724 899 697 883 672 853 c 0
 649 826 632 792 625 761 c 0
 621 744 620 732 619 708 c 0
 618 642 629 600 659 554 c 0
 680 522 700 505 726 496 c 0
 747 489 776 489 798 496 c 0
 812 501 828 510 839 520 c 2
 845 526 l 1
 845 522 l 2
 844 520 843 513 842 507 c 0
 837 467 827 431 811 400 c 0
 796 370 780 352 761 344 c 0
 755 342 753 342 743 342 c 0
 732 342 729 342 723 344 c 0
 714 347 705 353 699 362 c 0
 687 378 684 380 674 380 c 0
 663 380 657 376 648 361 c 0
 640 345 640 339 650 325 c 0
 661 311 676 298 690 291 c 0
 715 278 751 276 782 285 c 0
 791 288 808 297 819 304 c 0
 830 312 850 333 860 345 c 0
 885 380 905 423 917 472 c 0
 927 513 931 548 931 600 c 0
 931 687 922 749 902 801 c 0
 890 831 877 852 859 870 c 0
 842 887 825 898 804 903 c 0
767 846 m 0
 788 851 803 841 817 814 c 0
 827 795 835 766 841 733 c 0
 843 718 843 714 843 681 c 0
 843 647 843 644 841 633 c 0
 834 595 818 569 797 559 c 0
 787 554 780 553 768 553 c 0
 756 554 749 557 742 565 c 0
 726 580 711 613 706 640 c 0
 701 672 701 724 706 755 c 0
 710 776 719 798 732 818 c 0
 743 834 753 842 767 846 c 0
EndSplineSet
Validated: 33
EndChar

StartChar: hbar
Encoding: 295 295 89
Width: 1200
GlyphClass: 2
Flags: W
LayerCount: 2
Fore
SplineSet
569 1199 m 0
 584 1200 639 1199 655 1198 c 0
 766 1187 869 1148 957 1082 c 0
 1044 1018 1113 929 1155 830 c 0
 1177 776 1191 716 1198 654 c 0
 1200 629 1200 571 1198 546 c 0
 1190 468 1171 401 1137 334 c 0
 1073 204 963 101 830 45 c 0
 776 23 716 9 654 2 c 0
 629 0 571 0 546 2 c 0
 468 10 401 29 334 63 c 0
 204 127 101 237 45 371 c 0
 23 424 9 484 2 546 c 0
 0 571 0 629 2 654 c 0
 10 732 29 799 63 867 c 0
 127 996 237 1099 371 1155 c 0
 431 1180 500 1195 569 1199 c 0
802 903 m 0
 791 905 769 907 759 905 c 0
 719 899 683 873 661 833 c 0
 644 804 630 759 624 713 c 0
 614 648 615 529 624 466 c 0
 630 427 641 389 655 361 c 0
 677 318 712 289 754 281 c 0
 763 279 787 279 797 281 c 0
 838 289 873 318 895 361 c 0
 909 389 920 427 926 466 c 0
 935 529 936 648 926 713 c 0
 920 759 906 804 889 833 c 0
 869 869 839 893 802 903 c 0
541 696 m 1
 541 884 l 1
 497 884 l 1
 452 884 l 1
 363 696 l 1
 273 508 l 1
 273 477 l 1
 273 446 l 1
 367 446 l 1
 461 446 l 1
 461 374 l 1
 461 301 l 1
 501 301 l 1
 541 301 l 1
 541 374 l 1
 541 446 l 1
 573 446 l 1
 605 446 l 1
 605 477 l 1
 605 508 l 1
 573 508 l 1
 541 508 l 1
 541 696 l 1
763 843 m 0
 789 849 815 833 830 803 c 0
 844 774 850 737 853 673 c 0
 854 641 854 525 852 502 c 0
 846 423 834 380 810 357 c 0
 804 350 798 347 791 344 c 0
 783 341 767 341 759 344 c 0
 752 347 746 350 740 357 c 0
 716 380 704 423 698 502 c 0
 696 525 696 641 697 673 c 0
 700 737 706 774 720 803 c 0
 730 824 746 838 763 843 c 0
407 633 m 1
 467 757 l 1
 467 633 l 1
 467 508 l 1
 407 508 l 1
 348 509 l 1
 407 633 l 1
EndSplineSet
Validated: 33
EndChar

StartChar: Itilde
Encoding: 296 296 90
Width: 1200
GlyphClass: 2
Flags: W
LayerCount: 2
Fore
SplineSet
569 1199 m 0
 584 1200 639 1199 655 1198 c 0
 766 1187 869 1148 957 1082 c 0
 1044 1018 1113 929 1155 830 c 0
 1177 776 1191 716 1198 654 c 0
 1200 629 1200 571 1198 546 c 0
 1190 468 1171 401 1137 334 c 0
 1073 204 963 101 830 45 c 0
 776 23 716 9 654 2 c 0
 629 0 571 0 546 2 c 0
 468 10 401 29 334 63 c 0
 204 127 101 237 45 371 c 0
 23 424 9 484 2 546 c 0
 0 571 0 629 2 654 c 0
 10 732 29 799 63 867 c 0
 127 996 237 1099 371 1155 c 0
 431 1180 500 1195 569 1199 c 0
822 633 m 1
 822 906 l 1
 812 906 l 1
 803 906 l 1
 795 899 l 2
 763 868 717 851 660 848 c 2
 644 848 l 1
 644 818 l 1
 644 789 l 1
 660 789 l 2
 688 790 715 796 737 804 c 2
 742 806 l 1
 742 583 l 1
 742 360 l 1
 696 360 l 1
 650 360 l 1
 650 331 l 1
 650 301 l 1
 780 301 l 1
 910 301 l 1
 910 331 l 1
 910 360 l 1
 866 360 l 1
 822 360 l 1
 822 633 l 1
541 696 m 1
 541 884 l 1
 497 884 l 1
 452 884 l 1
 363 696 l 1
 273 508 l 1
 273 477 l 1
 273 446 l 1
 367 446 l 1
 461 446 l 1
 461 374 l 1
 461 301 l 1
 501 301 l 1
 541 301 l 1
 541 374 l 1
 541 446 l 1
 573 446 l 1
 605 446 l 1
 605 477 l 1
 605 508 l 1
 573 508 l 1
 541 508 l 1
 541 696 l 1
407 633 m 1
 467 757 l 1
 467 633 l 1
 467 508 l 1
 407 508 l 1
 348 509 l 1
 407 633 l 1
EndSplineSet
Validated: 33
EndChar

StartChar: itilde
Encoding: 297 297 91
Width: 1200
GlyphClass: 2
Flags: W
LayerCount: 2
Fore
SplineSet
569 1199 m 0
 584 1200 639 1199 655 1198 c 0
 766 1187 869 1148 957 1082 c 0
 1044 1018 1113 929 1155 830 c 0
 1177 776 1191 716 1198 654 c 0
 1200 629 1200 571 1198 546 c 0
 1190 468 1171 401 1137 334 c 0
 1073 204 963 101 830 45 c 0
 776 23 716 9 654 2 c 0
 629 0 571 0 546 2 c 0
 468 10 401 29 334 63 c 0
 204 127 101 237 45 371 c 0
 23 424 9 484 2 546 c 0
 0 571 0 629 2 654 c 0
 10 732 29 799 63 867 c 0
 127 996 237 1099 371 1155 c 0
 431 1180 500 1195 569 1199 c 0
793 904 m 0
 783 905 755 906 746 905 c 0
 726 902 706 895 691 884 c 0
 675 873 657 852 646 832 c 0
 638 816 628 791 622 767 c 0
 619 754 618 750 620 745 c 0
 621 740 635 720 639 715 c 0
 647 708 657 707 666 712 c 0
 673 716 676 722 679 735 c 0
 680 741 683 753 685 760 c 0
 700 821 720 843 759 841 c 0
 771 840 778 838 789 833 c 0
 816 820 835 784 840 735 c 0
 842 720 842 694 840 681 c 0
 833 638 814 597 777 545 c 0
 763 525 753 513 686 427 c 0
 655 388 629 355 628 353 c 0
 626 350 625 348 625 325 c 2
 625 301 l 1
 775 301 l 1
 925 301 l 1
 925 337 l 1
 925 373 l 1
 824 373 l 1
 722 372 l 1
 745 399 l 2
 813 478 828 496 840 512 c 0
 893 578 918 630 924 687 c 0
 925 700 925 729 923 743 c 0
 918 779 906 813 889 840 c 0
 879 854 860 873 847 882 c 0
 830 893 812 900 793 904 c 0
541 696 m 1
 541 884 l 1
 497 884 l 1
 452 884 l 1
 363 696 l 1
 273 508 l 1
 273 477 l 1
 273 446 l 1
 367 446 l 1
 461 446 l 1
 461 374 l 1
 461 301 l 1
 501 301 l 1
 541 301 l 1
 541 374 l 1
 541 446 l 1
 573 446 l 1
 605 446 l 1
 605 477 l 1
 605 508 l 1
 573 508 l 1
 541 508 l 1
 541 696 l 1
407 633 m 1
 467 757 l 1
 467 633 l 1
 467 508 l 1
 407 508 l 1
 348 509 l 1
 407 633 l 1
EndSplineSet
Validated: 33
EndChar

StartChar: Imacron
Encoding: 298 298 92
Width: 1200
GlyphClass: 2
Flags: W
LayerCount: 2
Fore
SplineSet
569 1199 m 0
 584 1200 639 1199 655 1198 c 0
 766 1187 869 1148 957 1082 c 0
 1044 1018 1113 929 1155 830 c 0
 1177 776 1191 716 1198 654 c 0
 1200 629 1200 571 1198 546 c 0
 1190 468 1171 401 1137 334 c 0
 1073 204 963 101 830 45 c 0
 776 23 716 9 654 2 c 0
 629 0 571 0 546 2 c 0
 468 10 401 29 334 63 c 0
 204 127 101 237 45 371 c 0
 23 424 9 484 2 546 c 0
 0 571 0 629 2 654 c 0
 10 732 29 799 63 867 c 0
 127 996 237 1099 371 1155 c 0
 431 1180 500 1195 569 1199 c 0
797 903 m 0
 784 906 760 906 747 904 c 0
 700 897 660 868 638 825 c 0
 632 812 630 805 630 798 c 0
 631 791 641 772 647 766 c 0
 661 754 680 761 686 780 c 0
 694 805 713 828 734 838 c 0
 749 846 767 849 779 846 c 0
 798 841 813 825 821 804 c 0
 826 791 827 779 827 758 c 0
 825 713 816 680 799 663 c 0
 789 653 784 652 755 649 c 0
 728 647 723 645 718 638 c 0
 714 632 713 627 713 613 c 0
 713 602 714 601 717 596 c 0
 718 593 721 590 724 589 c 2
 729 586 l 1
 753 585 l 2
 779 584 780 584 790 579 c 0
 812 568 832 535 838 501 c 0
 846 449 838 399 814 368 c 0
 804 355 793 347 780 343 c 0
 774 341 771 341 762 341 c 0
 722 344 687 367 669 404 c 0
 660 422 651 428 638 424 c 0
 633 423 626 416 623 412 c 0
 621 408 619 390 619 384 c 0
 620 378 626 364 636 350 c 0
 645 336 664 316 678 307 c 0
 696 295 718 286 741 281 c 0
 754 279 783 279 797 282 c 0
 816 286 835 294 853 306 c 0
 866 315 887 336 897 350 c 0
 921 386 932 426 931 469 c 0
 929 512 912 552 884 582 c 0
 873 593 858 605 848 610 c 2
 842 613 l 1
 856 627 l 2
 872 642 879 653 889 673 c 0
 911 720 916 778 901 816 c 0
 894 835 885 848 871 863 c 0
 850 884 827 897 797 903 c 0
541 696 m 1
 541 884 l 1
 497 884 l 1
 452 884 l 1
 363 696 l 1
 273 508 l 1
 273 477 l 1
 273 446 l 1
 367 446 l 1
 461 446 l 1
 461 374 l 1
 461 301 l 1
 501 301 l 1
 541 301 l 1
 541 374 l 1
 541 446 l 1
 573 446 l 1
 605 446 l 1
 605 477 l 1
 605 508 l 1
 573 508 l 1
 541 508 l 1
 541 696 l 1
407 633 m 1
 467 757 l 1
 467 633 l 1
 467 508 l 1
 407 508 l 1
 348 509 l 1
 407 633 l 1
EndSplineSet
Validated: 33
EndChar

StartChar: imacron
Encoding: 299 299 93
Width: 1200
GlyphClass: 2
Flags: W
LayerCount: 2
Fore
SplineSet
569 1199 m 0
 584 1200 639 1199 655 1198 c 0
 766 1187 869 1148 957 1082 c 0
 1044 1018 1113 929 1155 830 c 0
 1177 776 1191 716 1198 654 c 0
 1200 629 1200 571 1198 546 c 0
 1190 468 1171 401 1137 334 c 0
 1073 204 963 101 830 45 c 0
 776 23 716 9 654 2 c 0
 629 0 571 0 546 2 c 0
 468 10 401 29 334 63 c 0
 204 127 101 237 45 371 c 0
 23 424 9 484 2 546 c 0
 0 571 0 629 2 654 c 0
 10 732 29 799 63 867 c 0
 127 996 237 1099 371 1155 c 0
 431 1180 500 1195 569 1199 c 0
541 696 m 1
 541 884 l 1
 497 884 l 1
 452 884 l 1
 363 696 l 1
 273 508 l 1
 273 477 l 1
 273 446 l 1
 367 446 l 1
 461 446 l 1
 461 374 l 1
 461 301 l 1
 501 301 l 1
 541 301 l 1
 541 374 l 1
 541 446 l 1
 573 446 l 1
 605 446 l 1
 605 477 l 1
 605 508 l 1
 573 508 l 1
 541 508 l 1
 541 696 l 1
877 696 m 1
 877 884 l 1
 833 884 l 1
 788 884 l 1
 699 696 l 1
 609 508 l 1
 609 477 l 1
 609 446 l 1
 703 446 l 1
 797 446 l 1
 797 374 l 1
 797 301 l 1
 837 301 l 1
 877 301 l 1
 877 374 l 1
 877 446 l 1
 909 446 l 1
 941 446 l 1
 941 477 l 1
 941 508 l 1
 909 508 l 1
 877 508 l 1
 877 696 l 1
407 633 m 1
 467 757 l 1
 467 633 l 1
 467 508 l 1
 407 508 l 1
 348 509 l 1
 407 633 l 1
743 633 m 1
 803 757 l 1
 803 633 l 1
 803 508 l 1
 743 508 l 1
 684 509 l 1
 743 633 l 1
EndSplineSet
Validated: 33
EndChar

StartChar: Ibreve
Encoding: 300 300 94
Width: 1200
GlyphClass: 2
Flags: W
LayerCount: 2
Fore
SplineSet
569 1199 m 0
 584 1200 639 1199 655 1198 c 0
 766 1187 869 1148 957 1082 c 0
 1044 1018 1113 929 1155 830 c 0
 1177 776 1191 716 1198 654 c 0
 1200 629 1200 571 1198 546 c 0
 1190 468 1171 401 1137 334 c 0
 1073 204 963 101 830 45 c 0
 776 23 716 9 654 2 c 0
 629 0 571 0 546 2 c 0
 468 10 401 29 334 63 c 0
 204 127 101 237 45 371 c 0
 23 424 9 484 2 546 c 0
 0 571 0 629 2 654 c 0
 10 732 29 799 63 867 c 0
 127 996 237 1099 371 1155 c 0
 431 1180 500 1195 569 1199 c 0
541 696 m 1
 541 884 l 1
 497 884 l 1
 452 884 l 1
 363 696 l 1
 273 508 l 1
 273 477 l 1
 273 446 l 1
 367 446 l 1
 461 446 l 1
 461 374 l 1
 461 301 l 1
 501 301 l 1
 541 301 l 1
 541 374 l 1
 541 446 l 1
 573 446 l 1
 605 446 l 1
 605 477 l 1
 605 508 l 1
 573 508 l 1
 541 508 l 1
 541 696 l 1
900 852 m 1
 900 884 l 1
 772 884 l 1
 644 884 l 1
 644 716 l 1
 644 548 l 1
 678 548 l 1
 712 548 l 1
 712 551 l 2
 714 555 722 575 725 581 c 0
 737 607 757 621 779 621 c 0
 791 621 801 613 811 596 c 0
 826 570 835 530 835 483 c 0
 835 416 813 365 778 347 c 0
 768 342 761 341 750 341 c 0
 739 342 731 344 720 349 c 0
 710 354 705 358 696 366 c 0
 684 377 675 391 669 408 c 0
 667 413 664 419 663 420 c 0
 659 425 651 429 646 429 c 0
 634 429 627 424 619 408 c 0
 614 397 614 396 614 390 c 0
 614 383 614 381 618 372 c 0
 627 352 637 337 652 323 c 0
 678 296 712 281 749 279 c 0
 781 278 810 287 840 306 c 0
 853 315 875 337 885 351 c 0
 900 372 911 397 917 422 c 0
 922 441 924 453 925 474 c 0
 927 540 906 602 868 642 c 0
 845 665 824 677 797 682 c 0
 773 686 742 680 724 667 c 0
 721 666 719 664 718 664 c 0
 717 663 717 679 717 741 c 2
 717 819 l 1
 809 819 l 1
 900 819 l 1
 900 852 l 1
407 633 m 1
 467 757 l 1
 467 633 l 1
 467 508 l 1
 407 508 l 1
 348 509 l 1
 407 633 l 1
EndSplineSet
Validated: 33
EndChar

StartChar: ibreve
Encoding: 301 301 95
Width: 1200
GlyphClass: 2
Flags: W
LayerCount: 2
Fore
SplineSet
569 1199 m 0
 584 1200 639 1199 655 1198 c 0
 766 1187 869 1148 957 1082 c 0
 1044 1018 1113 929 1155 830 c 0
 1177 776 1191 716 1198 654 c 0
 1200 629 1200 571 1198 546 c 0
 1190 468 1171 401 1137 334 c 0
 1073 204 963 101 830 45 c 0
 776 23 716 9 654 2 c 0
 629 0 571 0 546 2 c 0
 468 10 401 29 334 63 c 0
 204 127 101 237 45 371 c 0
 23 424 9 484 2 546 c 0
 0 571 0 629 2 654 c 0
 10 732 29 799 63 867 c 0
 127 996 237 1099 371 1155 c 0
 431 1180 500 1195 569 1199 c 0
833 905 m 0
 814 907 794 905 775 899 c 0
 761 894 752 890 739 881 c 0
 707 860 682 829 660 786 c 0
 639 744 626 695 621 641 c 0
 619 622 619 545 621 522 c 0
 625 461 635 416 653 375 c 0
 667 342 685 319 710 301 c 0
 720 294 737 285 749 282 c 0
 774 276 805 279 830 291 c 0
 859 305 889 338 909 379 c 0
 920 400 925 420 929 447 c 0
 931 462 931 515 929 532 c 0
 924 568 912 600 891 631 c 0
 862 675 831 694 788 694 c 0
 770 694 756 691 740 684 c 0
 732 681 718 671 711 665 c 2
 705 659 l 1
 706 666 l 2
 711 706 722 745 737 777 c 0
 761 825 789 849 821 847 c 0
 832 846 838 844 848 836 c 0
 852 833 857 831 859 830 c 0
 869 827 880 832 885 840 c 0
 888 845 889 846 889 859 c 0
 889 872 888 873 886 877 c 0
 879 889 853 902 833 905 c 0
541 696 m 1
 541 884 l 1
 497 884 l 1
 452 884 l 1
 363 696 l 1
 273 508 l 1
 273 477 l 1
 273 446 l 1
 367 446 l 1
 461 446 l 1
 461 374 l 1
 461 301 l 1
 501 301 l 1
 541 301 l 1
 541 374 l 1
 541 446 l 1
 573 446 l 1
 605 446 l 1
 605 477 l 1
 605 508 l 1
 573 508 l 1
 541 508 l 1
 541 696 l 1
764 631 m 0
 767 631 773 632 780 632 c 0
 790 632 792 631 797 629 c 0
 809 623 820 609 830 587 c 0
 843 560 847 541 848 499 c 0
 849 459 846 431 839 410 c 0
 837 405 833 394 829 387 c 0
 817 363 805 349 792 344 c 0
 788 342 784 342 777 342 c 0
 767 342 766 342 761 344 c 0
 742 354 727 381 716 424 c 0
 710 446 706 477 707 482 c 0
 708 483 708 490 707 498 c 0
 705 524 707 554 715 575 c 0
 725 605 741 624 764 631 c 0
407 633 m 1
 467 757 l 1
 467 633 l 1
 467 508 l 1
 407 508 l 1
 348 509 l 1
 407 633 l 1
EndSplineSet
Validated: 33
EndChar

StartChar: Iogonek
Encoding: 302 302 96
Width: 1200
GlyphClass: 2
Flags: W
LayerCount: 2
Fore
SplineSet
569 1199 m 0
 584 1200 639 1199 655 1198 c 0
 766 1187 869 1148 957 1082 c 0
 1044 1018 1113 929 1155 830 c 0
 1177 776 1191 716 1198 654 c 0
 1200 629 1200 571 1198 546 c 0
 1190 468 1171 401 1137 334 c 0
 1073 204 963 101 830 45 c 0
 776 23 716 9 654 2 c 0
 629 0 571 0 546 2 c 0
 468 10 401 29 334 63 c 0
 204 127 101 237 45 371 c 0
 23 424 9 484 2 546 c 0
 0 571 0 629 2 654 c 0
 10 732 29 799 63 867 c 0
 127 996 237 1099 371 1155 c 0
 431 1180 500 1195 569 1199 c 0
541 696 m 1
 541 884 l 1
 497 884 l 1
 452 884 l 1
 363 696 l 1
 273 508 l 1
 273 477 l 1
 273 446 l 1
 367 446 l 1
 461 446 l 1
 461 374 l 1
 461 301 l 1
 501 301 l 1
 541 301 l 1
 541 374 l 1
 541 446 l 1
 573 446 l 1
 605 446 l 1
 605 477 l 1
 605 508 l 1
 573 508 l 1
 541 508 l 1
 541 696 l 1
931 852 m 1
 931 884 l 1
 775 884 l 1
 619 884 l 1
 619 848 l 1
 619 812 l 1
 741 812 l 2
 808 813 863 813 863 813 c 2
 863 812 859 807 855 801 c 0
 829 765 805 724 784 682 c 0
 726 567 695 443 691 313 c 1
 691 290 l 1
 733 290 l 1
 776 290 l 1
 776 314 l 1
 781 489 830 655 921 802 c 2
 931 819 l 1
 931 852 l 1
407 633 m 1
 467 757 l 1
 467 633 l 1
 467 508 l 1
 407 508 l 1
 348 509 l 1
 407 633 l 1
EndSplineSet
Validated: 33
EndChar

StartChar: iogonek
Encoding: 303 303 97
Width: 1200
GlyphClass: 2
Flags: W
LayerCount: 2
Fore
SplineSet
569 1199 m 0
 584 1200 639 1199 655 1198 c 0
 766 1187 869 1148 957 1082 c 0
 1044 1018 1113 929 1155 830 c 0
 1177 776 1191 716 1198 654 c 0
 1200 629 1200 571 1198 546 c 0
 1190 468 1171 401 1137 334 c 0
 1073 204 963 101 830 45 c 0
 776 23 716 9 654 2 c 0
 629 0 571 0 546 2 c 0
 468 10 401 29 334 63 c 0
 204 127 101 237 45 371 c 0
 23 424 9 484 2 546 c 0
 0 571 0 629 2 654 c 0
 10 732 29 799 63 867 c 0
 127 996 237 1099 371 1155 c 0
 431 1180 500 1195 569 1199 c 0
801 904 m 0
 791 905 767 906 758 905 c 0
 707 898 662 862 642 811 c 0
 629 779 627 743 634 712 c 0
 644 673 674 638 711 620 c 0
 716 618 720 616 720 616 c 1
 720 616 716 614 711 612 c 0
 707 609 697 604 691 600 c 0
 676 590 660 574 650 560 c 0
 642 549 632 530 628 518 c 0
 613 474 617 418 639 373 c 0
 649 353 660 337 674 323 c 0
 733 264 817 264 876 323 c 0
 890 337 901 353 911 373 c 0
 925 403 932 437 931 470 c 0
 929 513 912 551 882 581 c 0
 870 593 853 605 839 612 c 0
 834 614 830 616 830 616 c 1
 830 616 834 618 839 620 c 0
 876 638 906 673 916 712 c 0
 923 743 921 779 908 811 c 0
 889 859 848 894 801 904 c 0
541 696 m 1
 541 884 l 1
 497 884 l 1
 452 884 l 1
 363 696 l 1
 273 508 l 1
 273 477 l 1
 273 446 l 1
 367 446 l 1
 461 446 l 1
 461 374 l 1
 461 301 l 1
 501 301 l 1
 541 301 l 1
 541 374 l 1
 541 446 l 1
 573 446 l 1
 605 446 l 1
 605 477 l 1
 605 508 l 1
 573 508 l 1
 541 508 l 1
 541 696 l 1
761 845 m 0
 776 849 791 847 806 840 c 0
 836 824 851 790 849 739 c 0
 847 702 836 676 817 661 c 0
 791 642 759 642 733 661 c 0
 714 676 703 702 701 739 c 0
 700 781 709 811 729 829 c 0
 737 836 751 844 761 845 c 0
763 583 m 0
 776 586 788 585 802 578 c 0
 826 566 842 539 848 501 c 0
 850 487 850 441 848 428 c 0
 844 398 835 376 820 361 c 0
 806 347 793 342 775 342 c 0
 757 342 744 347 730 361 c 0
 715 376 706 398 702 428 c 0
 700 441 700 487 702 501 c 0
 707 531 717 553 734 568 c 0
 741 575 753 581 763 583 c 0
407 633 m 1
 467 757 l 1
 467 633 l 1
 467 508 l 1
 407 508 l 1
 348 509 l 1
 407 633 l 1
EndSplineSet
Validated: 33
EndChar

StartChar: Idotaccent
Encoding: 304 304 98
Width: 1200
GlyphClass: 2
Flags: W
LayerCount: 2
Fore
SplineSet
569 1199 m 0
 584 1200 639 1199 655 1198 c 0
 766 1187 869 1148 957 1082 c 0
 1044 1018 1113 929 1155 830 c 0
 1177 776 1191 716 1198 654 c 0
 1200 629 1200 571 1198 546 c 0
 1190 468 1171 401 1137 334 c 0
 1073 204 963 101 830 45 c 0
 776 23 716 9 654 2 c 0
 629 0 571 0 546 2 c 0
 468 10 401 29 334 63 c 0
 204 127 101 237 45 371 c 0
 23 424 9 484 2 546 c 0
 0 571 0 629 2 654 c 0
 10 732 29 799 63 867 c 0
 127 996 237 1099 371 1155 c 0
 431 1180 500 1195 569 1199 c 0
804 903 m 0
 793 906 771 907 758 905 c 0
 724 899 697 883 672 853 c 0
 649 826 632 792 625 761 c 0
 621 744 620 732 619 708 c 0
 618 642 629 600 659 554 c 0
 680 522 700 505 726 496 c 0
 747 489 776 489 798 496 c 0
 812 501 828 510 839 520 c 2
 845 526 l 1
 845 522 l 2
 844 520 843 513 842 507 c 0
 837 467 827 431 811 400 c 0
 796 370 780 352 761 344 c 0
 755 342 753 342 743 342 c 0
 732 342 729 342 723 344 c 0
 714 347 705 353 699 362 c 0
 687 378 684 380 674 380 c 0
 663 380 657 376 648 361 c 0
 640 345 640 339 650 325 c 0
 661 311 676 298 690 291 c 0
 715 278 751 276 782 285 c 0
 791 288 808 297 819 304 c 0
 830 312 850 333 860 345 c 0
 885 380 905 423 917 472 c 0
 927 513 931 548 931 600 c 0
 931 687 922 749 902 801 c 0
 890 831 877 852 859 870 c 0
 842 887 825 898 804 903 c 0
541 696 m 1
 541 884 l 1
 497 884 l 1
 452 884 l 1
 363 696 l 1
 273 508 l 1
 273 477 l 1
 273 446 l 1
 367 446 l 1
 461 446 l 1
 461 374 l 1
 461 301 l 1
 501 301 l 1
 541 301 l 1
 541 374 l 1
 541 446 l 1
 573 446 l 1
 605 446 l 1
 605 477 l 1
 605 508 l 1
 573 508 l 1
 541 508 l 1
 541 696 l 1
767 846 m 0
 788 851 803 841 817 814 c 0
 827 795 835 766 841 733 c 0
 843 718 843 714 843 681 c 0
 843 647 843 644 841 633 c 0
 834 595 818 569 797 559 c 0
 787 554 780 553 768 553 c 0
 756 554 749 557 742 565 c 0
 726 580 711 613 706 640 c 0
 701 672 701 724 706 755 c 0
 710 776 719 798 732 818 c 0
 743 834 753 842 767 846 c 0
407 633 m 1
 467 757 l 1
 467 633 l 1
 467 508 l 1
 407 508 l 1
 348 509 l 1
 407 633 l 1
EndSplineSet
Validated: 33
EndChar

StartChar: dotlessi
Encoding: 305 305 99
Width: 1200
GlyphClass: 2
Flags: W
LayerCount: 2
Fore
SplineSet
569 1199 m 0
 584 1200 639 1199 655 1198 c 0
 766 1187 869 1148 957 1082 c 0
 1044 1018 1113 929 1155 830 c 0
 1177 776 1191 716 1198 654 c 0
 1200 629 1200 571 1198 546 c 0
 1190 468 1171 401 1137 334 c 0
 1073 204 963 101 830 45 c 0
 776 23 716 9 654 2 c 0
 629 0 571 0 546 2 c 0
 468 10 401 29 334 63 c 0
 204 127 101 237 45 371 c 0
 23 424 9 484 2 546 c 0
 0 571 0 629 2 654 c 0
 10 732 29 799 63 867 c 0
 127 996 237 1099 371 1155 c 0
 431 1180 500 1195 569 1199 c 0
802 903 m 0
 791 905 769 907 759 905 c 0
 719 899 683 873 661 833 c 0
 644 804 630 759 624 713 c 0
 614 648 615 529 624 466 c 0
 630 427 641 389 655 361 c 0
 677 318 712 289 754 281 c 0
 763 279 787 279 797 281 c 0
 838 289 873 318 895 361 c 0
 909 389 920 427 926 466 c 0
 935 529 936 648 926 713 c 0
 920 759 906 804 889 833 c 0
 869 869 839 893 802 903 c 0
564 852 m 1
 564 884 l 1
 436 884 l 1
 308 884 l 1
 308 716 l 1
 308 548 l 1
 342 548 l 1
 376 548 l 1
 376 551 l 2
 378 555 386 575 389 581 c 0
 401 607 421 621 443 621 c 0
 455 621 465 613 475 596 c 0
 490 570 499 530 499 483 c 0
 499 416 477 365 442 347 c 0
 432 342 425 341 414 341 c 0
 403 342 395 344 384 349 c 0
 374 354 369 358 360 366 c 0
 348 377 339 391 333 408 c 0
 331 413 328 419 327 420 c 0
 323 425 315 429 310 429 c 0
 298 429 291 424 283 408 c 0
 278 397 278 396 278 390 c 0
 278 383 278 381 282 372 c 0
 291 352 301 337 316 323 c 0
 342 296 376 281 413 279 c 0
 445 278 474 287 504 306 c 0
 517 315 539 337 549 351 c 0
 564 372 575 397 581 422 c 0
 586 441 588 453 589 474 c 0
 591 540 570 602 532 642 c 0
 509 665 488 677 461 682 c 0
 437 686 406 680 388 667 c 0
 385 666 383 664 382 664 c 0
 381 663 381 679 381 741 c 2
 381 819 l 1
 473 819 l 1
 564 819 l 1
 564 852 l 1
763 843 m 0
 789 849 815 833 830 803 c 0
 844 774 850 737 853 673 c 0
 854 641 854 525 852 502 c 0
 846 423 834 380 810 357 c 0
 804 350 798 347 791 344 c 0
 783 341 767 341 759 344 c 0
 752 347 746 350 740 357 c 0
 716 380 704 423 698 502 c 0
 696 525 696 641 697 673 c 0
 700 737 706 774 720 803 c 0
 730 824 746 838 763 843 c 0
EndSplineSet
Validated: 33
EndChar

StartChar: IJ
Encoding: 306 306 100
Width: 1200
GlyphClass: 2
Flags: W
LayerCount: 2
Fore
SplineSet
569 1199 m 0
 584 1200 639 1199 655 1198 c 0
 766 1187 869 1148 957 1082 c 0
 1044 1018 1113 929 1155 830 c 0
 1177 776 1191 716 1198 654 c 0
 1200 629 1200 571 1198 546 c 0
 1190 468 1171 401 1137 334 c 0
 1073 204 963 101 830 45 c 0
 776 23 716 9 654 2 c 0
 629 0 571 0 546 2 c 0
 468 10 401 29 334 63 c 0
 204 127 101 237 45 371 c 0
 23 424 9 484 2 546 c 0
 0 571 0 629 2 654 c 0
 10 732 29 799 63 867 c 0
 127 996 237 1099 371 1155 c 0
 431 1180 500 1195 569 1199 c 0
822 633 m 1
 822 906 l 1
 812 906 l 1
 803 906 l 1
 795 899 l 2
 763 868 717 851 660 848 c 2
 644 848 l 1
 644 818 l 1
 644 789 l 1
 660 789 l 2
 688 790 715 796 737 804 c 2
 742 806 l 1
 742 583 l 1
 742 360 l 1
 696 360 l 1
 650 360 l 1
 650 331 l 1
 650 301 l 1
 780 301 l 1
 910 301 l 1
 910 331 l 1
 910 360 l 1
 866 360 l 1
 822 360 l 1
 822 633 l 1
564 852 m 1
 564 884 l 1
 436 884 l 1
 308 884 l 1
 308 716 l 1
 308 548 l 1
 342 548 l 1
 376 548 l 1
 376 551 l 2
 378 555 386 575 389 581 c 0
 401 607 421 621 443 621 c 0
 455 621 465 613 475 596 c 0
 490 570 499 530 499 483 c 0
 499 416 477 365 442 347 c 0
 432 342 425 341 414 341 c 0
 403 342 395 344 384 349 c 0
 374 354 369 358 360 366 c 0
 348 377 339 391 333 408 c 0
 331 413 328 419 327 420 c 0
 323 425 315 429 310 429 c 0
 298 429 291 424 283 408 c 0
 278 397 278 396 278 390 c 0
 278 383 278 381 282 372 c 0
 291 352 301 337 316 323 c 0
 342 296 376 281 413 279 c 0
 445 278 474 287 504 306 c 0
 517 315 539 337 549 351 c 0
 564 372 575 397 581 422 c 0
 586 441 588 453 589 474 c 0
 591 540 570 602 532 642 c 0
 509 665 488 677 461 682 c 0
 437 686 406 680 388 667 c 0
 385 666 383 664 382 664 c 0
 381 663 381 679 381 741 c 2
 381 819 l 1
 473 819 l 1
 564 819 l 1
 564 852 l 1
EndSplineSet
Validated: 33
EndChar

StartChar: ij
Encoding: 307 307 101
Width: 1200
GlyphClass: 2
Flags: W
LayerCount: 2
Fore
SplineSet
569 1199 m 0
 584 1200 639 1199 655 1198 c 0
 766 1187 869 1148 957 1082 c 0
 1044 1018 1113 929 1155 830 c 0
 1177 776 1191 716 1198 654 c 0
 1200 629 1200 571 1198 546 c 0
 1190 468 1171 401 1137 334 c 0
 1073 204 963 101 830 45 c 0
 776 23 716 9 654 2 c 0
 629 0 571 0 546 2 c 0
 468 10 401 29 334 63 c 0
 204 127 101 237 45 371 c 0
 23 424 9 484 2 546 c 0
 0 571 0 629 2 654 c 0
 10 732 29 799 63 867 c 0
 127 996 237 1099 371 1155 c 0
 431 1180 500 1195 569 1199 c 0
793 904 m 0
 783 905 755 906 746 905 c 0
 726 902 706 895 691 884 c 0
 675 873 657 852 646 832 c 0
 638 816 628 791 622 767 c 0
 619 754 618 750 620 745 c 0
 621 740 635 720 639 715 c 0
 647 708 657 707 666 712 c 0
 673 716 676 722 679 735 c 0
 680 741 683 753 685 760 c 0
 700 821 720 843 759 841 c 0
 771 840 778 838 789 833 c 0
 816 820 835 784 840 735 c 0
 842 720 842 694 840 681 c 0
 833 638 814 597 777 545 c 0
 763 525 753 513 686 427 c 0
 655 388 629 355 628 353 c 0
 626 350 625 348 625 325 c 2
 625 301 l 1
 775 301 l 1
 925 301 l 1
 925 337 l 1
 925 373 l 1
 824 373 l 1
 722 372 l 1
 745 399 l 2
 813 478 828 496 840 512 c 0
 893 578 918 630 924 687 c 0
 925 700 925 729 923 743 c 0
 918 779 906 813 889 840 c 0
 879 854 860 873 847 882 c 0
 830 893 812 900 793 904 c 0
564 852 m 1
 564 884 l 1
 436 884 l 1
 308 884 l 1
 308 716 l 1
 308 548 l 1
 342 548 l 1
 376 548 l 1
 376 551 l 2
 378 555 386 575 389 581 c 0
 401 607 421 621 443 621 c 0
 455 621 465 613 475 596 c 0
 490 570 499 530 499 483 c 0
 499 416 477 365 442 347 c 0
 432 342 425 341 414 341 c 0
 403 342 395 344 384 349 c 0
 374 354 369 358 360 366 c 0
 348 377 339 391 333 408 c 0
 331 413 328 419 327 420 c 0
 323 425 315 429 310 429 c 0
 298 429 291 424 283 408 c 0
 278 397 278 396 278 390 c 0
 278 383 278 381 282 372 c 0
 291 352 301 337 316 323 c 0
 342 296 376 281 413 279 c 0
 445 278 474 287 504 306 c 0
 517 315 539 337 549 351 c 0
 564 372 575 397 581 422 c 0
 586 441 588 453 589 474 c 0
 591 540 570 602 532 642 c 0
 509 665 488 677 461 682 c 0
 437 686 406 680 388 667 c 0
 385 666 383 664 382 664 c 0
 381 663 381 679 381 741 c 2
 381 819 l 1
 473 819 l 1
 564 819 l 1
 564 852 l 1
EndSplineSet
Validated: 33
EndChar

StartChar: Jcircumflex
Encoding: 308 308 102
Width: 1200
GlyphClass: 2
Flags: W
LayerCount: 2
Fore
SplineSet
569 1199 m 0
 584 1200 639 1199 655 1198 c 0
 766 1187 869 1148 957 1082 c 0
 1044 1018 1113 929 1155 830 c 0
 1177 776 1191 716 1198 654 c 0
 1200 629 1200 571 1198 546 c 0
 1190 468 1171 401 1137 334 c 0
 1073 204 963 101 830 45 c 0
 776 23 716 9 654 2 c 0
 629 0 571 0 546 2 c 0
 468 10 401 29 334 63 c 0
 204 127 101 237 45 371 c 0
 23 424 9 484 2 546 c 0
 0 571 0 629 2 654 c 0
 10 732 29 799 63 867 c 0
 127 996 237 1099 371 1155 c 0
 431 1180 500 1195 569 1199 c 0
797 903 m 0
 784 906 760 906 747 904 c 0
 700 897 660 868 638 825 c 0
 632 812 630 805 630 798 c 0
 631 791 641 772 647 766 c 0
 661 754 680 761 686 780 c 0
 694 805 713 828 734 838 c 0
 749 846 767 849 779 846 c 0
 798 841 813 825 821 804 c 0
 826 791 827 779 827 758 c 0
 825 713 816 680 799 663 c 0
 789 653 784 652 755 649 c 0
 728 647 723 645 718 638 c 0
 714 632 713 627 713 613 c 0
 713 602 714 601 717 596 c 0
 718 593 721 590 724 589 c 2
 729 586 l 1
 753 585 l 2
 779 584 780 584 790 579 c 0
 812 568 832 535 838 501 c 0
 846 449 838 399 814 368 c 0
 804 355 793 347 780 343 c 0
 774 341 771 341 762 341 c 0
 722 344 687 367 669 404 c 0
 660 422 651 428 638 424 c 0
 633 423 626 416 623 412 c 0
 621 408 619 390 619 384 c 0
 620 378 626 364 636 350 c 0
 645 336 664 316 678 307 c 0
 696 295 718 286 741 281 c 0
 754 279 783 279 797 282 c 0
 816 286 835 294 853 306 c 0
 866 315 887 336 897 350 c 0
 921 386 932 426 931 469 c 0
 929 512 912 552 884 582 c 0
 873 593 858 605 848 610 c 2
 842 613 l 1
 856 627 l 2
 872 642 879 653 889 673 c 0
 911 720 916 778 901 816 c 0
 894 835 885 848 871 863 c 0
 850 884 827 897 797 903 c 0
564 852 m 1
 564 884 l 1
 436 884 l 1
 308 884 l 1
 308 716 l 1
 308 548 l 1
 342 548 l 1
 376 548 l 1
 376 551 l 2
 378 555 386 575 389 581 c 0
 401 607 421 621 443 621 c 0
 455 621 465 613 475 596 c 0
 490 570 499 530 499 483 c 0
 499 416 477 365 442 347 c 0
 432 342 425 341 414 341 c 0
 403 342 395 344 384 349 c 0
 374 354 369 358 360 366 c 0
 348 377 339 391 333 408 c 0
 331 413 328 419 327 420 c 0
 323 425 315 429 310 429 c 0
 298 429 291 424 283 408 c 0
 278 397 278 396 278 390 c 0
 278 383 278 381 282 372 c 0
 291 352 301 337 316 323 c 0
 342 296 376 281 413 279 c 0
 445 278 474 287 504 306 c 0
 517 315 539 337 549 351 c 0
 564 372 575 397 581 422 c 0
 586 441 588 453 589 474 c 0
 591 540 570 602 532 642 c 0
 509 665 488 677 461 682 c 0
 437 686 406 680 388 667 c 0
 385 666 383 664 382 664 c 0
 381 663 381 679 381 741 c 2
 381 819 l 1
 473 819 l 1
 564 819 l 1
 564 852 l 1
EndSplineSet
Validated: 33
EndChar

StartChar: jcircumflex
Encoding: 309 309 103
Width: 1200
GlyphClass: 2
Flags: W
LayerCount: 2
Fore
SplineSet
569 1199 m 0
 584 1200 639 1199 655 1198 c 0
 766 1187 869 1148 957 1082 c 0
 1044 1018 1113 929 1155 830 c 0
 1177 776 1191 716 1198 654 c 0
 1200 629 1200 571 1198 546 c 0
 1190 468 1171 401 1137 334 c 0
 1073 204 963 101 830 45 c 0
 776 23 716 9 654 2 c 0
 629 0 571 0 546 2 c 0
 468 10 401 29 334 63 c 0
 204 127 101 237 45 371 c 0
 23 424 9 484 2 546 c 0
 0 571 0 629 2 654 c 0
 10 732 29 799 63 867 c 0
 127 996 237 1099 371 1155 c 0
 431 1180 500 1195 569 1199 c 0
564 852 m 1
 564 884 l 1
 436 884 l 1
 308 884 l 1
 308 716 l 1
 308 548 l 1
 342 548 l 1
 376 548 l 1
 376 551 l 2
 378 555 386 575 389 581 c 0
 401 607 421 621 443 621 c 0
 455 621 465 613 475 596 c 0
 490 570 499 530 499 483 c 0
 499 416 477 365 442 347 c 0
 432 342 425 341 414 341 c 0
 403 342 395 344 384 349 c 0
 374 354 369 358 360 366 c 0
 348 377 339 391 333 408 c 0
 331 413 328 419 327 420 c 0
 323 425 315 429 310 429 c 0
 298 429 291 424 283 408 c 0
 278 397 278 396 278 390 c 0
 278 383 278 381 282 372 c 0
 291 352 301 337 316 323 c 0
 342 296 376 281 413 279 c 0
 445 278 474 287 504 306 c 0
 517 315 539 337 549 351 c 0
 564 372 575 397 581 422 c 0
 586 441 588 453 589 474 c 0
 591 540 570 602 532 642 c 0
 509 665 488 677 461 682 c 0
 437 686 406 680 388 667 c 0
 385 666 383 664 382 664 c 0
 381 663 381 679 381 741 c 2
 381 819 l 1
 473 819 l 1
 564 819 l 1
 564 852 l 1
877 696 m 1
 877 884 l 1
 833 884 l 1
 788 884 l 1
 699 696 l 1
 609 508 l 1
 609 477 l 1
 609 446 l 1
 703 446 l 1
 797 446 l 1
 797 374 l 1
 797 301 l 1
 837 301 l 1
 877 301 l 1
 877 374 l 1
 877 446 l 1
 909 446 l 1
 941 446 l 1
 941 477 l 1
 941 508 l 1
 909 508 l 1
 877 508 l 1
 877 696 l 1
743 633 m 1
 803 757 l 1
 803 633 l 1
 803 508 l 1
 743 508 l 1
 684 509 l 1
 743 633 l 1
EndSplineSet
Validated: 33
EndChar

StartChar: Kcommaaccent
Encoding: 310 310 104
Width: 1200
GlyphClass: 2
Flags: W
LayerCount: 2
Fore
SplineSet
569 1199 m 0
 584 1200 639 1199 655 1198 c 0
 766 1187 869 1148 957 1082 c 0
 1044 1018 1113 929 1155 830 c 0
 1177 776 1191 716 1198 654 c 0
 1200 629 1200 571 1198 546 c 0
 1190 468 1171 401 1137 334 c 0
 1073 204 963 101 830 45 c 0
 776 23 716 9 654 2 c 0
 629 0 571 0 546 2 c 0
 468 10 401 29 334 63 c 0
 204 127 101 237 45 371 c 0
 23 424 9 484 2 546 c 0
 0 571 0 629 2 654 c 0
 10 732 29 799 63 867 c 0
 127 996 237 1099 371 1155 c 0
 431 1180 500 1195 569 1199 c 0
564 852 m 1
 564 884 l 1
 436 884 l 1
 308 884 l 1
 308 716 l 1
 308 548 l 1
 342 548 l 1
 376 548 l 1
 376 551 l 2
 378 555 386 575 389 581 c 0
 401 607 421 621 443 621 c 0
 455 621 465 613 475 596 c 0
 490 570 499 530 499 483 c 0
 499 416 477 365 442 347 c 0
 432 342 425 341 414 341 c 0
 403 342 395 344 384 349 c 0
 374 354 369 358 360 366 c 0
 348 377 339 391 333 408 c 0
 331 413 328 419 327 420 c 0
 323 425 315 429 310 429 c 0
 298 429 291 424 283 408 c 0
 278 397 278 396 278 390 c 0
 278 383 278 381 282 372 c 0
 291 352 301 337 316 323 c 0
 342 296 376 281 413 279 c 0
 445 278 474 287 504 306 c 0
 517 315 539 337 549 351 c 0
 564 372 575 397 581 422 c 0
 586 441 588 453 589 474 c 0
 591 540 570 602 532 642 c 0
 509 665 488 677 461 682 c 0
 437 686 406 680 388 667 c 0
 385 666 383 664 382 664 c 0
 381 663 381 679 381 741 c 2
 381 819 l 1
 473 819 l 1
 564 819 l 1
 564 852 l 1
900 852 m 1
 900 884 l 1
 772 884 l 1
 644 884 l 1
 644 716 l 1
 644 548 l 1
 678 548 l 1
 712 548 l 1
 712 551 l 2
 714 555 722 575 725 581 c 0
 737 607 757 621 779 621 c 0
 791 621 801 613 811 596 c 0
 826 570 835 530 835 483 c 0
 835 416 813 365 778 347 c 0
 768 342 761 341 750 341 c 0
 739 342 731 344 720 349 c 0
 710 354 705 358 696 366 c 0
 684 377 675 391 669 408 c 0
 667 413 664 419 663 420 c 0
 659 425 651 429 646 429 c 0
 634 429 627 424 619 408 c 0
 614 397 614 396 614 390 c 0
 614 383 614 381 618 372 c 0
 627 352 637 337 652 323 c 0
 678 296 712 281 749 279 c 0
 781 278 810 287 840 306 c 0
 853 315 875 337 885 351 c 0
 900 372 911 397 917 422 c 0
 922 441 924 453 925 474 c 0
 927 540 906 602 868 642 c 0
 845 665 824 677 797 682 c 0
 773 686 742 680 724 667 c 0
 721 666 719 664 718 664 c 0
 717 663 717 679 717 741 c 2
 717 819 l 1
 809 819 l 1
 900 819 l 1
 900 852 l 1
EndSplineSet
Validated: 33
EndChar

StartChar: kcommaaccent
Encoding: 311 311 105
Width: 1200
GlyphClass: 2
Flags: W
LayerCount: 2
Fore
SplineSet
569 1199 m 0
 584 1200 639 1199 655 1198 c 0
 766 1187 869 1148 957 1082 c 0
 1044 1018 1113 929 1155 830 c 0
 1177 776 1191 716 1198 654 c 0
 1200 629 1200 571 1198 546 c 0
 1190 468 1171 401 1137 334 c 0
 1073 204 963 101 830 45 c 0
 776 23 716 9 654 2 c 0
 629 0 571 0 546 2 c 0
 468 10 401 29 334 63 c 0
 204 127 101 237 45 371 c 0
 23 424 9 484 2 546 c 0
 0 571 0 629 2 654 c 0
 10 732 29 799 63 867 c 0
 127 996 237 1099 371 1155 c 0
 431 1180 500 1195 569 1199 c 0
833 905 m 0
 814 907 794 905 775 899 c 0
 761 894 752 890 739 881 c 0
 707 860 682 829 660 786 c 0
 639 744 626 695 621 641 c 0
 619 622 619 545 621 522 c 0
 625 461 635 416 653 375 c 0
 667 342 685 319 710 301 c 0
 720 294 737 285 749 282 c 0
 774 276 805 279 830 291 c 0
 859 305 889 338 909 379 c 0
 920 400 925 420 929 447 c 0
 931 462 931 515 929 532 c 0
 924 568 912 600 891 631 c 0
 862 675 831 694 788 694 c 0
 770 694 756 691 740 684 c 0
 732 681 718 671 711 665 c 2
 705 659 l 1
 706 666 l 2
 711 706 722 745 737 777 c 0
 761 825 789 849 821 847 c 0
 832 846 838 844 848 836 c 0
 852 833 857 831 859 830 c 0
 869 827 880 832 885 840 c 0
 888 845 889 846 889 859 c 0
 889 872 888 873 886 877 c 0
 879 889 853 902 833 905 c 0
564 852 m 1
 564 884 l 1
 436 884 l 1
 308 884 l 1
 308 716 l 1
 308 548 l 1
 342 548 l 1
 376 548 l 1
 376 551 l 2
 378 555 386 575 389 581 c 0
 401 607 421 621 443 621 c 0
 455 621 465 613 475 596 c 0
 490 570 499 530 499 483 c 0
 499 416 477 365 442 347 c 0
 432 342 425 341 414 341 c 0
 403 342 395 344 384 349 c 0
 374 354 369 358 360 366 c 0
 348 377 339 391 333 408 c 0
 331 413 328 419 327 420 c 0
 323 425 315 429 310 429 c 0
 298 429 291 424 283 408 c 0
 278 397 278 396 278 390 c 0
 278 383 278 381 282 372 c 0
 291 352 301 337 316 323 c 0
 342 296 376 281 413 279 c 0
 445 278 474 287 504 306 c 0
 517 315 539 337 549 351 c 0
 564 372 575 397 581 422 c 0
 586 441 588 453 589 474 c 0
 591 540 570 602 532 642 c 0
 509 665 488 677 461 682 c 0
 437 686 406 680 388 667 c 0
 385 666 383 664 382 664 c 0
 381 663 381 679 381 741 c 2
 381 819 l 1
 473 819 l 1
 564 819 l 1
 564 852 l 1
764 631 m 0
 767 631 773 632 780 632 c 0
 790 632 792 631 797 629 c 0
 809 623 820 609 830 587 c 0
 843 560 847 541 848 499 c 0
 849 459 846 431 839 410 c 0
 837 405 833 394 829 387 c 0
 817 363 805 349 792 344 c 0
 788 342 784 342 777 342 c 0
 767 342 766 342 761 344 c 0
 742 354 727 381 716 424 c 0
 710 446 706 477 707 482 c 0
 708 483 708 490 707 498 c 0
 705 524 707 554 715 575 c 0
 725 605 741 624 764 631 c 0
EndSplineSet
Validated: 33
EndChar

StartChar: kgreenlandic
Encoding: 312 312 106
Width: 1200
GlyphClass: 2
Flags: W
LayerCount: 2
Fore
SplineSet
569 1199 m 0
 584 1200 639 1199 655 1198 c 0
 766 1187 869 1148 957 1082 c 0
 1044 1018 1113 929 1155 830 c 0
 1177 776 1191 716 1198 654 c 0
 1200 629 1200 571 1198 546 c 0
 1190 468 1171 401 1137 334 c 0
 1073 204 963 101 830 45 c 0
 776 23 716 9 654 2 c 0
 629 0 571 0 546 2 c 0
 468 10 401 29 334 63 c 0
 204 127 101 237 45 371 c 0
 23 424 9 484 2 546 c 0
 0 571 0 629 2 654 c 0
 10 732 29 799 63 867 c 0
 127 996 237 1099 371 1155 c 0
 431 1180 500 1195 569 1199 c 0
564 852 m 1
 564 884 l 1
 436 884 l 1
 308 884 l 1
 308 716 l 1
 308 548 l 1
 342 548 l 1
 376 548 l 1
 376 551 l 2
 378 555 386 575 389 581 c 0
 401 607 421 621 443 621 c 0
 455 621 465 613 475 596 c 0
 490 570 499 530 499 483 c 0
 499 416 477 365 442 347 c 0
 432 342 425 341 414 341 c 0
 403 342 395 344 384 349 c 0
 374 354 369 358 360 366 c 0
 348 377 339 391 333 408 c 0
 331 413 328 419 327 420 c 0
 323 425 315 429 310 429 c 0
 298 429 291 424 283 408 c 0
 278 397 278 396 278 390 c 0
 278 383 278 381 282 372 c 0
 291 352 301 337 316 323 c 0
 342 296 376 281 413 279 c 0
 445 278 474 287 504 306 c 0
 517 315 539 337 549 351 c 0
 564 372 575 397 581 422 c 0
 586 441 588 453 589 474 c 0
 591 540 570 602 532 642 c 0
 509 665 488 677 461 682 c 0
 437 686 406 680 388 667 c 0
 385 666 383 664 382 664 c 0
 381 663 381 679 381 741 c 2
 381 819 l 1
 473 819 l 1
 564 819 l 1
 564 852 l 1
931 852 m 1
 931 884 l 1
 775 884 l 1
 619 884 l 1
 619 848 l 1
 619 812 l 1
 741 812 l 2
 808 813 863 813 863 813 c 2
 863 812 859 807 855 801 c 0
 829 765 805 724 784 682 c 0
 726 567 695 443 691 313 c 1
 691 290 l 1
 733 290 l 1
 776 290 l 1
 776 314 l 1
 781 489 830 655 921 802 c 2
 931 819 l 1
 931 852 l 1
EndSplineSet
Validated: 33
EndChar

StartChar: Lacute
Encoding: 313 313 107
Width: 1200
GlyphClass: 2
Flags: W
LayerCount: 2
Fore
SplineSet
569 1199 m 0
 584 1200 639 1199 655 1198 c 0
 766 1187 869 1148 957 1082 c 0
 1044 1018 1113 929 1155 830 c 0
 1177 776 1191 716 1198 654 c 0
 1200 629 1200 571 1198 546 c 0
 1190 468 1171 401 1137 334 c 0
 1073 204 963 101 830 45 c 0
 776 23 716 9 654 2 c 0
 629 0 571 0 546 2 c 0
 468 10 401 29 334 63 c 0
 204 127 101 237 45 371 c 0
 23 424 9 484 2 546 c 0
 0 571 0 629 2 654 c 0
 10 732 29 799 63 867 c 0
 127 996 237 1099 371 1155 c 0
 431 1180 500 1195 569 1199 c 0
801 904 m 0
 791 905 767 906 758 905 c 0
 707 898 662 862 642 811 c 0
 629 779 627 743 634 712 c 0
 644 673 674 638 711 620 c 0
 716 618 720 616 720 616 c 1
 720 616 716 614 711 612 c 0
 707 609 697 604 691 600 c 0
 676 590 660 574 650 560 c 0
 642 549 632 530 628 518 c 0
 613 474 617 418 639 373 c 0
 649 353 660 337 674 323 c 0
 733 264 817 264 876 323 c 0
 890 337 901 353 911 373 c 0
 925 403 932 437 931 470 c 0
 929 513 912 551 882 581 c 0
 870 593 853 605 839 612 c 0
 834 614 830 616 830 616 c 1
 830 616 834 618 839 620 c 0
 876 638 906 673 916 712 c 0
 923 743 921 779 908 811 c 0
 889 859 848 894 801 904 c 0
564 852 m 1
 564 884 l 1
 436 884 l 1
 308 884 l 1
 308 716 l 1
 308 548 l 1
 342 548 l 1
 376 548 l 1
 376 551 l 2
 378 555 386 575 389 581 c 0
 401 607 421 621 443 621 c 0
 455 621 465 613 475 596 c 0
 490 570 499 530 499 483 c 0
 499 416 477 365 442 347 c 0
 432 342 425 341 414 341 c 0
 403 342 395 344 384 349 c 0
 374 354 369 358 360 366 c 0
 348 377 339 391 333 408 c 0
 331 413 328 419 327 420 c 0
 323 425 315 429 310 429 c 0
 298 429 291 424 283 408 c 0
 278 397 278 396 278 390 c 0
 278 383 278 381 282 372 c 0
 291 352 301 337 316 323 c 0
 342 296 376 281 413 279 c 0
 445 278 474 287 504 306 c 0
 517 315 539 337 549 351 c 0
 564 372 575 397 581 422 c 0
 586 441 588 453 589 474 c 0
 591 540 570 602 532 642 c 0
 509 665 488 677 461 682 c 0
 437 686 406 680 388 667 c 0
 385 666 383 664 382 664 c 0
 381 663 381 679 381 741 c 2
 381 819 l 1
 473 819 l 1
 564 819 l 1
 564 852 l 1
761 845 m 0
 776 849 791 847 806 840 c 0
 836 824 851 790 849 739 c 0
 847 702 836 676 817 661 c 0
 791 642 759 642 733 661 c 0
 714 676 703 702 701 739 c 0
 700 781 709 811 729 829 c 0
 737 836 751 844 761 845 c 0
763 583 m 0
 776 586 788 585 802 578 c 0
 826 566 842 539 848 501 c 0
 850 487 850 441 848 428 c 0
 844 398 835 376 820 361 c 0
 806 347 793 342 775 342 c 0
 757 342 744 347 730 361 c 0
 715 376 706 398 702 428 c 0
 700 441 700 487 702 501 c 0
 707 531 717 553 734 568 c 0
 741 575 753 581 763 583 c 0
EndSplineSet
Validated: 33
EndChar

